<svg width="24" height="12" viewBox="0 0 24 12" xmlns="http://www.w3.org/2000/svg"><path d="M18 0h-3.234c1.125.75 2.18 2.086 2.507 3h.704c1.523 0 3 1.5 3 3s-1.524 3-3 3h-4.5c-1.477 0-3-1.5-3-3 0-.54.164-1.055.42-1.5h-3.21C7.57 4.992 7.5 5.484 7.5 6c0 3 2.977 6 5.977 6H18c3 0 6-3 6-6s-3-6-6-6zM6.727 9h-.704c-1.523 0-3-1.5-3-3s1.524-3 3-3h4.5c1.477 0 3 1.5 3 3 0 .54-.164 1.055-.42 1.5h3.21c.117-.492.187-.984.187-1.5 0-3-2.977-6-5.977-6H6C3 0 0 3 0 6s3 6 6 6h3.234c-1.125-.75-2.18-2.086-2.507-3z" fill="#FF5231"/></svg>