<svg width="20" height="10" viewBox="0 0 20 10" xmlns="http://www.w3.org/2000/svg"><path d="M15 0h-2.695c.937.625 1.816 1.738 2.09 2.5h.585c1.27 0 2.5 1.25 2.5 2.5s-1.27 2.5-2.5 2.5h-3.75C10 7.5 8.73 6.25 8.73 5c0-.45.137-.88.352-1.25H6.406c-.097.41-.156.82-.156 1.25 0 2.5 2.48 5 4.98 5H15c2.5 0 5-2.5 5-5s-2.5-5-5-5zM5.605 7.5H5.02c-1.27 0-2.5-1.25-2.5-2.5s1.27-2.5 2.5-2.5h3.75c1.23 0 2.5 1.25 2.5 2.5 0 .45-.137.88-.352 1.25h2.676c.097-.41.156-.82.156-1.25 0-2.5-2.48-5-4.98-5H5C2.5 0 0 2.5 0 5s2.5 5 5 5h2.695c-.937-.625-1.816-1.738-2.09-2.5z" fill="#FF5231"/></svg>