<svg width="24" height="24" viewBox="0 0 24 24" xmlns="http://www.w3.org/2000/svg"><path d="M23.555 6.223L17.777.445c-.53-.53-1.394-.53-1.925 0l-5.777 5.778c-.533.53-.533 1.394 0 1.926l.962.96 5.777-5.776 3.852 3.852-5.777 5.777.962.964c.53.53 1.394.53 1.925 0l5.778-5.778c.53-.533.53-1.396 0-1.927zM12.963 14.89l-5.777 5.776-3.852-3.852 5.777-5.777-.962-.964c-.53-.53-1.394-.53-1.925 0L.445 15.85c-.53.533-.53 1.396 0 1.927l5.778 5.778c.53.53 1.394.53 1.925 0l5.777-5.778c.533-.53.533-1.394 0-1.926l-.962-.96zm-4.815.96c.533.533 1.394.533 1.927 0l5.777-5.777c.53-.53.53-1.392 0-1.924-.533-.533-1.394-.533-1.927 0l-5.777 5.777c-.53.53-.53 1.392 0 1.924z" fill="#FF5231"/></svg>