<svg xmlns="http://www.w3.org/2000/svg"><defs><font horiz-adv-x="1138"><font-face units-per-em="2048" ascent="1556" descent="-492"/><glyph unicode="ﬁ" horiz-adv-x="1280" d="M78 889l26 147h187l35 197q20 108 106.5 180t216.5 72q17 0 33.5-1t28.5-2 28.5-4.5 24-4.5 26-6 22-6 25-7.5 23.5-7.5l-26-148q-98 37-177 37-62 0-106.5-35.5T496 1206l-31-170h301l-27-147H438L283 0H109l157 889H78zM788 0l185 1036h178L967 0H788zm213 1274l37 205h203l-37-205h-203z"/><glyph unicode="ﬂ" horiz-adv-x="1316" d="M78 889l26 147h187l35 197q20 108 106.5 180t216.5 72q17 0 33.5-1t28.5-2 28.5-4.5 24-4.5 26-6 22-6 25-7.5 23.5-7.5l-26-148q-98 37-177 37-62 0-106.5-35.5T496 1206l-31-170h301l-27-147H438L283 0H109l157 889H78zm743-713q0 24 13 98l213 1205h174L999 233q-2-8-2-22 0-72 78-72 38 0 82 13l-24-142q-55-22-123-22-95 0-144 55-45 51-45 133z"/><glyph horiz-adv-x="2048"/><glyph horiz-adv-x="2048"/><glyph horiz-adv-x="682"/><glyph horiz-adv-x="454"/><glyph horiz-adv-x="454"/><glyph horiz-adv-x="454"/><glyph horiz-adv-x="454"/><glyph horiz-adv-x="454"/><glyph unicode="!" horiz-adv-x="669" d="M133 0l41 223h219L352 0H133zm125 440l47 553 82 459h217l-82-459-145-553H258z"/><glyph unicode="&quot;" horiz-adv-x="901" d="M252 887l10 313 45 252h199l-45-252-101-313H252zm346 0l10 313 45 252h199l-45-252-100-313H598z"/><glyph unicode="#" horiz-adv-x="1503" d="M74 391l28 150h283l107 342H227l29 151h283l123 389h153l-121-389h324l121 389h153l-121-389h256l-26-151h-279l-106-342h258l-29-150H969L846 0H692l123 391H492L369 0H215l121 391H74zm465 150h323l107 342H645z"/><glyph unicode="$" d="M14 449q0 31 2 47h179q-2-16-2-50 0-112 63-182t174-96l88 498-74 22q-135 41-212.5 127.5T154 1026q0 96 43.5 177.5t114.5 135 161 83.5 184 30l31 186h119l-35-198q156-31 254-142t98-268H942q0 98-51.5 164T745 1282l-81-471 59-14q133-32 225-129t92-226q0-101-40.5-185T887 115Q748 1 520-2l-33-188H367L403 8Q229 38 121.5 156.5T14 449zm320 587q0-124 158-176l57-18 78 452q-123-3-208-72t-85-186zm215-878q120 2 214.5 72.5T858 418q0 78-51.5 129.5T672 625l-39 12z"/><glyph unicode="%" horiz-adv-x="1888" d="M186 1010q0 95 30 192t87 160q107 119 260 119 138 0 221.5-89t83.5-225q0-96-29.5-191.5T752 817Q643 696 492 696q-138 0-222 89t-84 225zm64-969l1306 1450 93-88L342-49zm92 973q0-81 39.5-130.5T502 834q56 0 104 38 51 42 78 126.5t27 164.5q0 81-39 130.5T553 1343q-59 0-107-38-51-41-77.5-125.5T342 1014zm684-727q0 95 30 192t87 160q107 119 258 119 138 0 221.5-89t83.5-225q0-95-30-191t-87-159Q1480-27 1331-27q-138 0-221.5 89T1026 287zm156 4q0-82 38-131t119-49q58 0 107 39 51 42 76.5 125.5T1548 440q0 82-38 131.5T1393 621q-60 0-109-39-51-41-76.5-125T1182 291z"/><glyph unicode="&" horiz-adv-x="1501" d="M100 344q0 66 20 126t52 105.5 80.5 88.5 96 74T457 801l-54 76q-71 106-71 215 0 169 113.5 278T741 1479q151 0 242.5-91t91.5-208q0-124-69-218T827 811q-81-40-122-63l247-342q96 133 131 403h310l-23-150h-149q-18-100-65.5-205T1044 276L1243 0h-211L932 141Q860 72 746 22.5T502-27q-103 0-193.5 42.5T159 144.5 100 344zm174 16q0-101 69-163t171-62q111 0 187 31.5T842 266L543 682q-15-9-46.5-25.5T449 631q-79-48-127-117t-48-154zm236 744q0-82 55-160 38-51 56-78l94 47q84 42 136 107t52 149q0 60-47 111t-129 51q-96 0-156.5-64.5T510 1104z"/><glyph unicode="'" horiz-adv-x="534" d="M240 887l12 313 45 252h197l-45-252-99-313H240z"/><glyph unicode="(" horiz-adv-x="612" d="M100 440q0 120 23 258 44 252 177 487.5T627 1575l92-94q-184-170-295.5-367T270 672q-22-121-22-254 0-338 168-660l-121-55Q199-141 149.5 50.5T100 440z"/><glyph unicode=")" horiz-adv-x="610" d="M-129-225Q57-37 169 165t155 447q22 124 22 260 0 328-166 637l115 68q98-149 148.5-338.5T494 850q0-127-21-250-44-253-178-500T-33-317z"/><glyph unicode="*" horiz-adv-x="1083" d="M186 1055l74 155 291-123 29 338h180l-74-338 322 123 34-163-337-82 167-265-149-94-133 281-234-281-125 103 258 260z"/><glyph unicode="+" horiz-adv-x="1386" d="M109 549v141h491v506h143V690h494V549H743V10H600v539H109z"/><glyph unicode="," horiz-adv-x="593" d="M2-225q84 34 120 84T174 0H43l43 240h254L297 0q-21-119-81.5-197.5T39-322z"/><glyph unicode="-" horiz-adv-x="886" d="M106 537l29 161h608l-28-161H106z"/><glyph unicode="." horiz-adv-x="593" d="M47 0l43 244h244L291 0H47z"/><glyph unicode="/" horiz-adv-x="808" d="M-102-27l890 1506h146L43-27h-145z"/><glyph unicode="0" d="M66 442q0 119 34 312 14 81 25.5 134.5t34 129 49 130 69 111.5 95.5 99q119 94 276 94 191 0 305-121 119-125 119-348 0-124-33-311-14-80-26-134.5T979.5 408t-49-129.5-69-111.5T766 68Q642-27 489-27 325-27 205 78 66 202 66 442zm178-4q0-51 8.5-95t27.5-83 47.5-67 71.5-44 97-16q64 0 116 22.5t88.5 70 61 90.5 44 117 28 113.5T855 661q3 18 5 27 3 17 10 57.5t10.5 63 8 56.5 6.5 63.5 2 58.5q0 51-8.5 95t-27.5 83-47.5 67-71.5 44-97 16q-64 0-116-22.5t-88.5-70-61-90.5-44-117-28-113.5T286 764q-3-18-5-27-3-17-10-57.5t-10.5-63-8-56.5-6.5-63.5-2-58.5z"/><glyph unicode="1" d="M264 981l35 201 393 241h168L608 0H432l213 1219z"/><glyph unicode="2" d="M-18 0L8 156l729 690q123 116 123 254 0 75-51 129-62 65-178 65-90 0-163.5-62T373 1057H193q23 174 149 284.5T645 1452q190 0 299-109 94-97 94-233 0-199-184-371L252 164h616L842 0H-18z"/><glyph unicode="3" d="M45 367q0 19 4 65h180q-4-36-4-53 0-116 68.5-182T479 131q126 0 207.5 86T768 430q0 109-69 168t-179 59h-86l29 162h84q133 0 219 66t86 196q0 96-68 154.5T618 1294q-107 0-178-64t-92-171H172q0 60 36.5 134t82.5 122q66 67 155 102t187 35q105 0 195.5-40.5t148-122.5 57.5-189q0-125-75.5-231T764 725q86-38 133-122t47-183q0-127-64.5-230T707 30 473-27q-122 0-217.5 44.5T102.5 153 45 367z"/><glyph unicode="4" d="M-16 303l30 182 709 938h195L188 461h476l73 424h178l-73-424h190l-26-158H813L760 0H584l53 303H-16z"/><glyph unicode="5" d="M76 377q0 41 2 61h174q-2-18-2-55 0-114 70-182t184-68q60 0 112.5 23t89.5 61 64 88.5T810 411t13 111q0 121-65.5 191.5T571 784q-142 0-227-104l-188 39 166 704h778l-31-157H446L342 834q48 53 123.5 78.5T623 938q177 0 277.5-109T1001 543q0-153-60-281.5T762 53 487-27Q311-27 193.5 84T76 377z"/><glyph unicode="6" d="M90 449q0 110 29 284 21 120 41.5 204.5t63 182.5T324 1286q139 164 352 164 208 0 317-143 72-95 72-222H887q0 80-51 138-61 69-174 69-105 0-181-69-38-33-67.5-82.5t-50-113-32.5-113T305 795q41 64 126 102.5T610 936q184 0 293-114t109-296q0-128-51-244T815 84Q688-27 506-27 333-27 219 84 90 208 90 449zm174-46q0-120 69-196t189-76q98 0 178 66 64 54 99 139t35 174q0 123-68 197.5T575 782q-108 0-184-69-62-55-94.5-138T264 403z"/><glyph unicode="7" d="M88 0l825 1266H182l29 157h924l-29-157L285 0H88z"/><glyph unicode="8" d="M47 360q0 136 80 247t211 155q-66 45-104.5 118T195 1036q0 168 124 289 133 127 332 127 191 0 310-119 100-100 100-237 0-123-70.5-226T805 721q71-37 118.5-122T971 420q0-91-39-175.5T825 98Q691-27 485-27q-95 0-182 31.5T158 96Q47 210 47 360zm178 9q0-110 77.5-176T492 127q132 0 217.5 85T795 426q0 110-76.5 176T530 668q-132 0-218.5-85T225 369zm146 667q0-103 69.5-162T614 815q114 0 192.5 77t78.5 191q0 100-71.5 157.5T641 1298q-115 0-192.5-74.5T371 1036z"/><glyph unicode="9" d="M70 334l2 35h174v-27q0-86 63-149 63-60 164-60 99 0 178 72 71 63 110.5 170.5T829 629q-41-63-126-101.5T524 489q-90 0-172.5 37.5T215 633q-90 114-90 266 0 128 51 244t148 198q127 111 311 111 118 0 211.5-53T993 1243q54-108 54-266 0-111-29-285-33-188-76.5-321.5T815 139Q752 65 662 20T461-25q-97 0-182 37T139 123q-69 91-69 211zm233 581q0-101 47-172 67-100 209-100 100 0 182 68 63 53 96 136.5t33 174.5q0 99-47 170-68 102-205 102-101 0-184-69-64-54-97.5-137T303 915z"/><glyph unicode=":" horiz-adv-x="614" d="M76-2l41 225h227L303-2H76zm143 811l41 227h227l-41-227H219z"/><glyph unicode=";" horiz-adv-x="614" d="M31-213q79 32 111.5 79.5T190 0H74l39 225h227L301 0q-21-117-75.5-188.5T61-303zM217 805l39 229h227l-39-229H217z"/><glyph unicode="<" horiz-adv-x="958" d="M72 625l651 649 100-98-551-551L823 74 725-27z"/><glyph unicode="=" horiz-adv-x="1409" d="M178 274v158h987V274H178zm0 431v157h987V705H178z"/><glyph unicode=">" horiz-adv-x="958" d="M152 74l550 551-550 551 100 98 651-649L250-27z"/><glyph unicode="?" horiz-adv-x="1013" d="M94 1051q32 180 142 290 64 64 158 101t200 37q187 0 301-111 98-94 98-238 0-167-129-303-48-50-144-112.5T588 614q-67-70-84-176l-8-51H336l8 72q16 156 100 246 41 44 133.5 105T707 907q27 26 40 40.5t31.5 41.5 26.5 59.5 8 73.5q0 70-45 125-62 74-184 74-126 0-204-74.5T281 1051H94zM244 0l39 225h219L463 0H244z"/><glyph unicode="@" horiz-adv-x="1849" d="M125 580q0 252 115 457.5T561.5 1361t464.5 118q145 0 273.5-46t225-129 152.5-207 56-272q0-136-45-262.5T1556 352q-64-62-126-92.5T1278 229q-69 0-118 34.5t-62 80.5Q997 229 838 229q-115 0-197 82-94 91-94 240 0 74 16.5 145t51 133.5 82.5 110 115 75 144 27.5q64 0 121-27.5t86-80.5l51 86h138l-127-508q-8-36-8-57 0-40 21-60t58-20q77 0 146 69 65 63 95 168.5t30 212.5q0 154-75 269t-199 173-277 58q-158 0-294.5-61T493 1100.5 349 863t-52-283q0-275 174.5-440T924-25q105 0 222 27t206 70l-29-160q-85-41-198-64.5T911-176q-159 0-301.5 52T359 23 188 262.5 125 580zm594-15q0-84 40-136t122-52q60 0 106.5 34t72 88.5 38 112T1110 725q0 82-41.5 129T946 901q-72 0-135-70-45-51-68.5-124T719 565z"/><glyph unicode="A" horiz-adv-x="1259" d="M-115 0l768 1452h213L1126 0H944l-57 344H254L78 0h-193zm457 516h514l-127 754z"/><glyph unicode="B" horiz-adv-x="1368" d="M76 0l256 1452h573q171 0 279-97.5t108-256.5q0-117-78.5-223T1026 743q79-30 133.5-118t54.5-181q0-111-43.5-198T1053 106.5 887 27 692 0H76zm209 168h426q136 0 226.5 75t90.5 210q0 99-69.5 160T784 674H375zm118 666h406q123 0 207 66.5t84 186.5q0 92-63.5 147.5T877 1290H483z"/><glyph unicode="C" horiz-adv-x="1265" d="M82 518q0 220 68.5 443.5T356 1317q169 162 400 162 220 0 362-148 64-67 98.5-156t34.5-182h-188q0 141-92 230-85 82-226 82-147 0-262-115-102-102-158.5-296.5T268 528q0-167 85.5-274T602 147q71 0 137 26t109 69q89 86 113 184h190q-20-94-74.5-182.5T946 94Q796-27 592-27q-156 0-273 72.5T142 241 82 518z"/><glyph unicode="D" horiz-adv-x="1378" d="M76 0l256 1452h465q227 0 361-147.5T1292 928q0-214-66.5-429.5T1026 154Q866 0 604 0H76zm213 168h338q77 0 151.5 29T901 274q99 98 154 288t55 356q0 160-87.5 263T776 1284H485z"/><glyph unicode="E" horiz-adv-x="1265" d="M76 0l254 1452h958l-28-168H485l-79-442h686l-31-170H379l-90-504h782L1044 0H76z"/><glyph unicode="F" horiz-adv-x="1191" d="M76 0l256 1452h932l-29-168H487l-84-475h672l-31-168H373L260 0H76z"/><glyph unicode="G" horiz-adv-x="1353" d="M82 518q0 106 14.5 212T142 943.5t85.5 204.5T354 1315q171 164 406 164 118 0 210-40.5t152-99.5q68-65 105-155.5t37-177.5h-185q0 78-37 146.5T940 1260q-75 45-195 45-147 0-264-117-71-71-121-193t-71-240.5T268 528q0-198 103-295 89-86 233-86 97 0 175 37.5T909 288t84.5 144 48.5 170H657l31 168h551L1102 0H969v141Q904 58 803 15.5T592-27q-214 0-352 131-77 73-117.5 180.5T82 518z"/><glyph unicode="H" horiz-adv-x="1466" d="M76 0l256 1452h184L410 848h690l106 604h185L1135 0H950l119 670H379L260 0H76z"/><glyph unicode="I" horiz-adv-x="595" d="M76 0l256 1452h188L264 0H76z"/><glyph unicode="J" horiz-adv-x="1038" d="M-41 340q0 52 10 100h181q-9-61-9-82 0-101 51.5-156T346 147q100 0 169 69t87 171l189 1065h184L784 371Q752 192 633 82.5T332-27Q255-27 183-.5T59 78Q-41 178-41 340z"/><glyph unicode="K" horiz-adv-x="1355" d="M76 0l256 1452h184L381 686l788 766h238L836 899 1200 0H999L694 762 334 412 260 0H76z"/><glyph unicode="L" horiz-adv-x="1097" d="M76 0l256 1452h184L291 170h698L958 0H76z"/><glyph unicode="M" horiz-adv-x="1800" d="M76 0l256 1452h256L813 270l641 1182h270L1468 0h-178l221 1225L848 20H705L465 1235 254 0H76z"/><glyph unicode="N" horiz-adv-x="1503" d="M76 0l256 1452h209l497-1192 205 1192h184L1171 0H963L465 1188 260 0H76z"/><glyph unicode="O" horiz-adv-x="1341" d="M82 518q0 139 26.5 281t91 285T358 1317q169 162 392 162 119 0 216-42.5t159.5-116.5 96-173 33.5-213q0-141-25-281.5t-88.5-284T985 135Q816-27 592-27q-156 0-273 72.5T142 241 82 518zm186 10q0-167 85.5-274T602 147q143 0 256 113 101 101 155 295.5t54 368.5q0 168-83 274.5T739 1305q-139 0-254-115-102-102-159.5-297T268 528z"/><glyph unicode="P" horiz-adv-x="1275" d="M76 0l256 1452h526q181 0 302.5-98.5T1282 1077q0-159-72-276.5T1016 624t-279-59H358L260 0H76zm313 729h354q158 0 253.5 89t95.5 245q0 113-76 168t-193 55H487z"/><glyph unicode="Q" horiz-adv-x="1341" d="M82 518q0 139 26.5 281t91 285T358 1317q169 162 392 162 119 0 216-42.5t159.5-116.5 96-173 33.5-213q0-139-26-280.5t-89-284T985 135l-8-8 113-170-134-92L846 35Q728-27 592-27q-156 0-273 72.5T142 241 82 518zm186 10q0-167 85.5-274T602 147q85 0 150 35L610 399l129 93 138-211q93 106 141.5 291.5T1067 924q0 168-83 274.5T739 1305q-139 0-254-115-102-102-159.5-297T268 528z"/><glyph unicode="R" horiz-adv-x="1355" d="M76 0l256 1452h547q188 0 304.5-108.5T1300 1067q0-98-37-183t-96-139q-82-76-213-112L1153 0H961L772 608H367L260 0H76zm321 772h377q158 0 246 76.5t88 218.5q0 101-67.5 160T852 1286H487z"/><glyph unicode="S" horiz-adv-x="1288" d="M43 483h190q0-134 74-223 101-119 309-119 162 0 258 92 72 69 72 168 0 75-51.5 134T741 621l-221 55q-146 36-233.5 125.5T199 1036q0 102 46 188t132 148q143 105 348 105 121 0 228-45t177-138q89-119 89-278h-191q0 90-43 158-83 135-278 135-145 0-236-82-82-72-82-174 0-80 49.5-129.5T571 854l232-57q156-39 246-137t90-236q0-181-119-297-76-76-188-115T594-27q-134 0-249.5 46T152 158Q43 293 43 483z"/><glyph unicode="T" horiz-adv-x="1097" d="M121 1282l31 170h1048l-31-170H737L514 0H328l225 1282H121z"/><glyph unicode="U" horiz-adv-x="1417" d="M139 432q0 64 13 137l155 883h185L332 549q-10-62-10-111 0-144 84.5-217.5T643 147t250 95.5T1018 492l170 960h184l-170-965q-41-233-189.5-373.5T633-27Q411-27 275 98.5T139 432z"/><glyph unicode="V" horiz-adv-x="1163" d="M117 1452h180L479 229l608 1223h199L537 0H350z"/><glyph unicode="W" horiz-adv-x="1748" d="M178 1452h172l23-1178 534 1158h164l139-1151 430 1171h175L1270 0h-187L948 1171 418 0H215z"/><glyph unicode="X" horiz-adv-x="1187" d="M-109 0l588 733-323 719h194l260-588 463 588h207L700 733 1030 0H836L571 596 102 0h-211z"/><glyph unicode="Y" horiz-adv-x="1136" d="M113 1452h186l260-690 500 690h207L625 588 522 0H336l106 588z"/><glyph unicode="Z" horiz-adv-x="1253" d="M-39 0l33 182 1010 1100H195l30 170h1030l-32-184L209 168h840L1018 0H-39z"/><glyph unicode="[" horiz-adv-x="628" d="M43-233l315 1783h385l-22-127H477L207-106h244l-23-127H43z"/><glyph unicode="\" horiz-adv-x="811" d="M143 1479h136L637-27H502z"/><glyph unicode="]" horiz-adv-x="628" d="M-139-233l22 127h242l270 1529H154l22 127h385L246-233h-385z"/><glyph unicode="^" horiz-adv-x="1101" d="M145 829l344 650h156l344-650H807l-240 461-241-461H145z"/><glyph unicode="_" horiz-adv-x="1107" d="M-80 0H934v-123H-80V0z"/><glyph unicode="`" horiz-adv-x="483" d="M129 1335l111 142 305-252-72-92z"/><glyph unicode="a" horiz-adv-x="1161" d="M53 416q0 146 50.5 284.5T250 932q134 131 315 131 88 0 162-39 83-44 121-121l51 133h143L860 0H727v154Q684 76 596 24.5T420-27Q263-27 168 76 53 197 53 416zm178 0q0-147 66-223 60-70 149-70 77 0 144 49t109.5 126 67 167.5T791 643q0 104-39 170-60 100-177 100-108 0-196-88-72-73-110-188t-38-221z"/><glyph unicode="b" horiz-adv-x="1193" d="M57 0l260 1479h175l-95-543q112 127 293 127 84 0 160-35.5T973 930q92-122 92-309 0-151-55-298T854 84Q733-27 561-27q-93 0-179 45T254 145L203 0H57zm254 422q0-60 14-112t42-95 77-67.5T557 123q103 0 182 76 74 70 111 186.5T887 621q0 78-23 141.5t-78.5 107T649 913q-85 0-151-51-58-43-100.5-112T336 602q-25-105-25-180z"/><glyph unicode="c" horiz-adv-x="1067" d="M53 399q0 96 19.5 189.5t61 179.5T235 919.5 382 1024t191 39q171 0 283.5-100T969 694q0-5-1-16t-1-16H788q0 4 1.5 11t1.5 11q0 103-62 166t-164 63q-111 0-196-88-70-71-104-187.5T231 406q0-145 78-220 66-63 168-63 94 0 162 56t98 147h174Q887 173 759.5 73T469-27Q284-27 168.5 91T53 399z"/><glyph unicode="d" horiz-adv-x="1193" d="M61 416q0 138 48.5 274T248 920q136 143 332 143 60 0 116.5-18T801 987.5t71-94.5l103 586h176L891 0H745v131Q693 53 609.5 13T434-27q-78 0-151 35.5T160 106Q61 228 61 416zm181 0q0-58 13-108.5t39.5-93 73-67T475 123q84 0 156 55 115 85 157 256 25 105 25 180 0 83-20.5 147t-75 108T578 913q-101 0-181-77-75-71-115-187.5T242 416z"/><glyph unicode="e" horiz-adv-x="1103" d="M53 432q0 139 50.5 271T246 926q137 137 338 137 183 0 293-119 112-121 112-313 0-86-20-168H233q-2-18-2-55 0-129 70-207t193-78q81 0 145 45t98 123h181Q871 143 750.5 58T475-27q-111 0-202 46.5T125 158Q53 277 53 432zm203 180h555q2 14 2 39 0 113-63 188.5T573 915q-116 0-208-96-75-75-109-207z"/><glyph unicode="f" horiz-adv-x="741" d="M78 889l26 147h187l35 197q20 108 106.5 180t216.5 72q17 0 33.5-1t28.5-2 28.5-4.5 24-4.5 26-6 22-6 25-7.5 23.5-7.5l-26-148q-98 37-177 37-62 0-106.5-35.5T496 1206l-31-170h301l-27-147H438L283 0H109l157 889H78z"/><glyph unicode="g" horiz-adv-x="1077" d="M-41-176q0 81 52 151T143 76q-80 55-80 135 0 52 17 89t57 75q33 31 99 61-95 98-95 232 0 88 39 167.5T289 971q116 92 282 92 127 0 220-55 33 63 91 97t124 34q36 0 73-9l-24-141q-18 6-54 6-39 0-71-17.5T883 930q69-84 69-205 0-87-37.5-167.5T811 420q-53-45-129.5-70.5T520 324q-106 0-178 34-61-15-98-55-25-25-25-59 0-31 24.5-52.5T309 166l297-31q133-14 216-84t83-180q0-129-92-221-134-131-428-131-239 0-354 123-72 76-72 182zm158 18q0-56 43-102 38-39 103-56.5T395-334q207 0 289 82 47 47 47 111Q731-27 553-8L291 20Q213 7 165-38t-48-120zm196 826q0-96 60.5-150.5T530 463q107 0 177.5 75.5T778 721q0 95-61.5 148T559 922q-109 0-177.5-75T313 668z"/><glyph unicode="h" horiz-adv-x="1177" d="M57 0l260 1479h175L391 907q57 72 146 114t180 42q145 0 227-82 72-72 72-199 0-36-17-147L887 0H713l110 623q15 86 15 114 0 86-39 125-47 47-135 47-71 0-139-45T414 754q-68-103-92-248L231 0H57z"/><glyph unicode="i" horiz-adv-x="550" d="M57 0l185 1036h178L236 0H57zm213 1274l37 205h203l-37-205H270z"/><glyph unicode="j" horiz-adv-x="571" d="M-242-387l25 135q27-15 65.5-26t67.5-11q48 0 83.5 28T45-178l215 1214h176L219-193q-20-117-89.5-181T-49-438q-99 0-193 51zm527 1661l37 205h202l-37-205H285z"/><glyph unicode="k" horiz-adv-x="1101" d="M57 0l262 1479h175L326 526l546 510h220Q902 863 645 623L948 0H762L516 504Q361 357 283 285L231 0H57z"/><glyph unicode="l" horiz-adv-x="587" d="M92 176q0 30 12 98l213 1205h175L270 233q-2-8-2-22 0-72 78-72 38 0 82 13L403 10q-55-22-122-22-95 0-144 55-45 51-45 133z"/><glyph unicode="m" horiz-adv-x="1765" d="M57 0l183 1036h141V901q54 83 135.5 122.5T692 1063q109 0 182.5-53T967 870q54 84 147 138.5t203 54.5q74 0 135.5-28t99.5-79q52-67 52-168 0-44-9-94L1473 0h-175l117 659q8 44 8 91 0 157-168 157-85 0-168-73-100-85-137-283L852 0H678l117 659q8 44 8 91 0 157-168 157-85 0-168-73-100-85-137-283L231 0H57z"/><glyph unicode="n" horiz-adv-x="1177" d="M57 0l183 1036h141V893q55 77 148 123.5t188 46.5q145 0 227-82 72-72 72-199 0-36-17-147L887 0H713l110 623q15 86 15 114 0 86-39 125-47 47-135 47-71 0-139-45T414 754q-68-103-92-248L231 0H57z"/><glyph unicode="o" horiz-adv-x="1110" d="M53 406q0 95 19.5 187.5t61.5 178 102 150 147.5 103T575 1063q91 0 172-35.5T883 926q100-121 100-295 0-95-19.5-187.5t-61.5-178T800 115 652.5 11.5 461-27q-91 0-171.5 36T154 111Q53 233 53 406zm178 4q0-123 61.5-205T475 123q71 0 128.5 33.5t94 86.5T759 364t35.5 134T805 627q0 123-61.5 204.5T561 913q-71 0-128.5-33.5t-94-86T277 673t-35.5-134T231 410z"/><glyph unicode="p" horiz-adv-x="1187" d="M-18-444l260 1480h143V913q49 73 131 111.5t172 38.5q82 0 158-37t123-100q92-122 92-305 0-92-19-182.5t-59.5-175-98-149T744 11.5 563-27q-95 0-180 44T256 145L154-444H-18zm333 866q0-60 13.5-112t41.5-95 76.5-67.5T559 123q99 0 180 78 74 70 109 185t35 235q0 79-21.5 142.5T786 871t-135 44q-91 0-157-51-140-106-172-360-7-47-7-82z"/><glyph unicode="q" horiz-adv-x="1171" d="M53 416q0 91 20.5 182T137 773t102.5 148.5 144.5 103 183 38.5q93 0 174.5-45.5T854 891l51 145h148L793-442H616l97 542Q664 38 585 5.5T422-27q-78 0-151.5 35.5T147 106Q53 221 53 416zm178 0q0-58 13-108.5t39-93.5 72.5-68T463 121q86 0 158 55 110 81 153 258 25 105 25 180 0 61-12 112t-38 94.5-73 68T565 913q-98 0-180-79-75-71-114.5-186.5T231 416z"/><glyph unicode="r" horiz-adv-x="784" d="M57 0l183 1036h141V887q49 80 130.5 121t174.5 41q62 0 117-15l-29-170q-52 19-108 19-96 0-181-64-123-94-166-323L231 0H57z"/><glyph unicode="s" horiz-adv-x="1046" d="M33 311v37h174v-29q0-77 67-137 40-36 87.5-49.5T475 119q108 0 178 61 54 47 54 113 0 104-132 133-20 4-94 22t-102 25q-101 24-160 80-73 70-76 168v7q0 148 121 245 115 90 285 90 104 0 198-41.5T889 897q49-85 49-172H762q0 65-41 117-62 78-189 78-113 0-176-68-41-44-41-102 0-50 33-80t78-41q112-24 242-60 97-26 156-93t59-161q0-151-119-247-118-95-299-95-248 0-367 150-65 81-65 188z"/><glyph unicode="t" horiz-adv-x="784" d="M59 887l27 149h205l47 264 184 54-57-318h305l-29-149H438l-96-549q-10-61-10-94 0-107 129-107 34 0 91 13.5t85 25.5L610 31q-93-45-211-45-119 0-186 73-57 62-57 162 0 49 10 107l98 559H59z"/><glyph unicode="u" horiz-adv-x="1175" d="M100 287q0 47 9 102l114 647h174L285 399q-6-40-6-77 0-92 49-144 48-51 137-51 96 0 180 88 97 107 133 315l90 506h174L860 0H717v133Q668 58 583.5 15.5T412-27q-132 0-215 74-97 84-97 240z"/><glyph unicode="v" horiz-adv-x="972" d="M53 1036h172l154-831 432 831h190L444 0H256z"/><glyph unicode="w" horiz-adv-x="1556" d="M129 1036h170l55-786 396 774h141l131-778 342 790h180L1081 0H918L784 788 381 0H211z"/><glyph unicode="x" horiz-adv-x="1015" d="M-92 0l450 535-260 501h187l200-391 328 391h215L573 518 856 0H668L455 412 117 0H-92z"/><glyph unicode="y" horiz-adv-x="1017" d="M-131-375l25 135q79-49 151-49 88 0 133 82L299 12 72 1036h182l168-811 432 811h193L336-260Q240-438 70-438q-107 0-201 63z"/><glyph unicode="z" horiz-adv-x="1007" d="M-29 0L0 154l717 731H129l27 151h807l-29-153-717-731h602L791 0H-29z"/><glyph unicode="{" horiz-adv-x="706" d="M70 586l26 147q73-3 147 40.5T330 887l65 354q32 167 121 239t252 72h53l-22-129h-54q-106 0-150.5-49T530 1214l-59-329q-15-88-77-150.5T240 659v-4q82-20 122-81.5T389 426l-53-313q-8-54-8-78 0-51 13.5-82.5t44-45.5 60.5-18 82-4l-22-129h-55q-128 0-197.5 63T184 8q0 50 9 96l51 291q13 87-27 129-59 62-147 62z"/><glyph unicode="|" horiz-adv-x="542" d="M201-244v1796h141V-244H201z"/><glyph unicode="}" horiz-adv-x="706" d="M-129-244l23 129h53q102 0 149 53.5T162 94l59 330q15 87 81 151.5T461 653v4q-93 23-132 89t-22 167l49 283q23 130-17 178.5T164 1423l22 129h56q320 0 264-317l-57-322q-15-96 22-135 52-55 152-55l-27-148q-91 4-158.5-47.5T356 395L303 94q-21-124-61-195T125.5-208-76-244h-53z"/><glyph unicode="~" horiz-adv-x="1300" d="M117 614q90 95 156 127.5T418 774q71 0 164-35 25-9 76.5-33.5T737 672q46-17 80-17 51 0 94.5 18.5T1016 754l102-117q-92-95-157.5-127.5T817 477q-95 0-239 70-38 19-54.5 26.5t-49 17T416 600q-50 0-94-18.5T217 500z"/><glyph unicode="¡" horiz-adv-x="669" d="M66-422l81 459 146 553h119L365 37l-82-459H66zM276 807l41 223h220l-41-223H276z"/><glyph unicode="¢" d="M127 600q0 94 18 184.5t57 175 95.5 150 138.5 107 180 47.5l33 188h125l-35-197q136-26 219.5-120.5T1042 895q0-5-1-16.5t-1-16.5H862q0 4 1 11.5t1 11.5q0 83-40 141t-111 78L573 324q85 7 147 61.5T811 526h174q-24-152-150-251T547 174L516 0H391l33 188q-136 36-216.5 145.5T127 600zm178 6q0-144 78-219 36-32 70-45l135 768q-82-17-146-84-70-71-103.5-187.5T305 606z"/><glyph unicode="£" d="M-10 0l28 162q159 3 187 164 10 58 30.5 175.5T266 678H102l27 149h164l43 248q30 172 143.5 275.5T760 1454q152 0 247-88.5t95-228.5q0-31-6-58H922q6 42 6 45 0 84-49.5 130T741 1300q-93 0-153-68.5T512 1075l-43-248h330l-27-149H444l-65-367q-24-128-113-151v-4h422q78 0 125 46t61 120h173q-19-155-122-238.5T655 0H-10z"/><glyph unicode="¤" d="M-2 106l162 140Q74 369 74 520q0 152 86 275L-2 928l135 135 137-158q121 82 267 82t264-82l141 160 133-137-160-133q86-123 86-275 0-151-86-274l160-140L944-25 801 135Q681 51 537 51q-141 0-265 84L131-25zm242 414q0-128 79.5-218.5T537 211q140 0 218.5 87.5T834 520q0 131-81 219t-216 88q-145 0-221-84.5T240 520z"/><glyph unicode="¥" d="M80 346l20 125h338l33 186H133l23 125h247l-251 641h182l246-632 454 632h203L758 782h270l-22-125H645l-33-186h361l-21-125H592L530 0H354l62 346H80z"/><glyph unicode="¦" horiz-adv-x="557" d="M217-102v630h156v-630H217zm0 1024v632h156V922H217z"/><glyph unicode="§" horiz-adv-x="1142" d="M53-207q0 41 6 78h170q-4-18-4-57 0-76 51.5-120T406-350q90 0 153.5 57.5T623-145q0 83-60 143L211 348q-44 42-68 101.5T119 571q0 205 231 330-49 69-49 172 0 174 115.5 278.5T707 1456q134 0 234.5-81.5T1042 1165q0-28-8-78H864q6 27 6 58 0 73-51.5 118.5T690 1309q-94 0-155.5-55.5T473 1104q0-84 59-143l353-351q44-42 68-101.5T977 387q0-204-232-330 50-70 50-172 0-174-116.5-278.5T387-498q-138 0-236 83T53-207zm240 813q0-82 49-131l320-323q63 31 102 83.5T803 354q0 80-49 129L434 807q-63-31-102-83t-39-118z"/><glyph unicode="¨" horiz-adv-x="585" d="M106 1227l33 188h189l-33-188H106zm361 0l33 188h188l-33-188H467z"/><glyph unicode="©" horiz-adv-x="1757" d="M139 725q0 155 56.5 294.5t154 240.5T585 1420t294 59q208 0 378-100t265.5-272 95.5-380-95.5-380.5-265.5-273T879-27q-156 0-294 59T349.5 191.5 195.5 431 139 725zm137 0q0-178 74.5-319T563 184.5 879 104t315.5 81 212 222.5T1481 727t-74.5 319-212 221.5T879 1348t-316-81-212.5-222.5T276 725zm248 0q0 110 42.5 201t127 147.5T891 1130q140 0 234.5-82T1231 836h-156q-10 80-60.5 120.5T891 997q-94 0-152-71-61-75-61-201 0-128 59-201 58-71 154-71 73 0 123.5 40.5T1075 614h156q-12-131-107.5-213T891 319q-92 0-167 40T602 467q-42 61-60 121t-18 137z"/><glyph unicode="ª" horiz-adv-x="983" d="M141 862q0 41 14.5 80.5t46 77T291 1082t135 30l231 14v54q0 86-36 118-42 39-127 39-95 0-140-45-37-37-37-98H180q3 128 91.5 193t222.5 65q110 0 180-42t100-112q21-49 21-122V795q0-29 10-39.5t31-10.5l36 5V645q-39-20-90-20t-83 32.5-35 81.5q-35-57-101-90t-147-33q-129 0-202 72.5T141 862zm144 4q0-57 36.5-94T436 735q97 0 156 62 65 65 65 176v43l-204-12q-69-3-118.5-37.5T285 866z"/><glyph unicode="«" horiz-adv-x="1118" d="M68 614l419 467 103-88-311-387 172-399-127-70zm479 0l418 467 102-88-309-387 170-399-125-70z"/><glyph unicode="¬" horiz-adv-x="1271" d="M109 541v157h993V203H942v338H109z"/><glyph unicode="­" horiz-adv-x="886" d="M106 537l29 161h608l-28-161H106z"/><glyph unicode="®" horiz-adv-x="1757" d="M139 725q0 155 56.5 294.5t154 240.5T585 1420t294 59q208 0 378-100t265.5-272 95.5-380-95.5-380.5-265.5-273T879-27q-156 0-294 59T349.5 191.5 195.5 431 139 725zm137 0q0-178 74.5-319T563 184.5 879 104t315.5 81 212 222.5T1481 727t-74.5 319-212 221.5T879 1348t-316-81-212.5-222.5T276 725zm347-379v784h288q118 0 198.5-65t80.5-180q0-165-141-228l145-311h-150L913 635H760V346H623zm135 416h153q64 0 100 30.5t36 92.5q0 57-38.5 88t-97.5 31H758V762z"/><glyph unicode="¯" horiz-adv-x="598" d="M106 1245l25 139h569l-24-139H106z"/><glyph unicode="°" horiz-adv-x="935" d="M203 1143q0 147 96 241.5t242 94.5 243-94.5 97-241.5-97-241.5T541 807t-242 94.5-96 241.5zm153 0q0-84 52.5-137.5T541 952t133 53.5 53 137.5-53 137-133 53-132.5-53-52.5-137z"/><glyph unicode="±" horiz-adv-x="1157" d="M129 0v141h899V0H129zm0 680v143h379v379h143V823h377V680H651V297H508v383H129z"/><glyph unicode="²" horiz-adv-x="935" d="M176 702l23 129 360 267q34 25 51 40.5t35.5 45T664 1245q0 43-32 67.5t-75 24.5q-66 0-110-38.5T391 1194H246q25 125 113.5 198.5T575 1466q99 0 167.5-57t68.5-149q0-40-13-76.5t-29.5-62.5-48-56-53.5-47-61-45L420 838h340l-23-136H176z"/><glyph unicode="³" horiz-adv-x="872" d="M193 913q0 21 2 31h137q-2-8-2-26 0-54 41-84 39-29 94-29 64 0 112 31.5t48 91.5q0 27-12 46.5t-28.5 29.5-42.5 15.5-45.5 7-45.5 1.5l20 117q29 0 44 .5t43 3.5 43.5 10 33 18.5 25.5 32 8 47.5q0 44-33.5 70.5T551 1354q-65 0-106.5-33t-53.5-96H246q22 117 100 178 82 65 217 65 63 0 119-21.5t90-62.5q43-53 43-114 0-66-41.5-118T668 1085q42-11 72-55.5t30-85.5q0-64-27-114.5T670.5 749t-101-45.5T453 688q-106 0-183 61t-77 164z"/><glyph unicode="´" horiz-adv-x="491" d="M106 1231l394 250 71-150-413-203z"/><glyph unicode="¶" horiz-adv-x="1337" d="M172 1014q0 192 132.5 315T641 1452h664l-25-141h-141L864-256H715l274 1567H760L485-256H332l164 936q-134 0-229 98t-95 236z"/><glyph unicode="·" horiz-adv-x="602" d="M141 506l43 244h242l-43-244H141z"/><glyph unicode="¸" horiz-adv-x="348" d="M-137-397L74-121h159L29-481z"/><glyph unicode="¹" horiz-adv-x="688" d="M186 1155l29 160 223 137h133L438 707H295l102 577z"/><glyph unicode="º" horiz-adv-x="983" d="M190 1034q0 211 113 324 94 94 238 94 145 0 239-94 111-111 111-324 0-214-111-325-95-95-239-95-143 0-238 95-113 113-113 325zm146 0q0-170 70-243 51-54 135-54 86 0 137 54 70 73 70 243 0 169-70 242-50 53-137 53-85 0-135-53-70-73-70-242z"/><glyph unicode="»" horiz-adv-x="1118" d="M18 227l312 387-176 398 127 67 260-473-420-467zm480 0l309 387-174 398 127 67 258-473-418-467z"/><glyph unicode="¼" horiz-adv-x="1763" d="M162 43l1308 1442 101-82L258-43zm82 1112l28 160 224 137h133L496 707H352l103 577zM897 154l25 141 376 461h166l-389-482h211l27 160h139l-27-160h121l-22-120h-121L1376 0h-139l27 154H897z"/><glyph unicode="½" horiz-adv-x="1828" d="M162 43l1308 1442 101-82L258-43zm82 1112l28 160 224 137h133L496 707H352l103 577zM967 0l22 129 361 266q32 24 50 40.5t36 46 18 61.5q0 43-31.5 67.5T1348 635q-66 0-110-38.5T1182 492h-146q25 125 114 198.5t216 73.5q99 0 167.5-57.5T1602 557q0-40-13-76.5t-29.5-62.5-48-56-53.5-47-61-45l-187-135h340L1528 0H967z"/><glyph unicode="¾" horiz-adv-x="1867" d="M193 913q0 21 2 31h137q-2-8-2-26 0-54 41-84 39-29 94-29 64 0 112 31.5t48 91.5q0 27-12 46.5t-28.5 29.5-42.5 15.5-45.5 7-45.5 1.5l20 117q29 0 44 .5t43 3.5 43.5 10 33 18.5 25.5 32 8 47.5q0 44-33.5 70.5T551 1354q-65 0-106.5-33t-53.5-96H246q22 117 100 178 82 65 217 65 63 0 119-21.5t90-62.5q43-53 43-114 0-66-41.5-118T668 1085q42-11 72-55.5t30-85.5q0-64-27-114.5T670.5 749t-101-45.5T453 688q-106 0-183 61t-77 164zm73-870l1309 1442 100-82L362-43zm735 111l25 141 377 461h166l-389-482h211l26 160h139l-26-160h121l-23-120h-121L1481 0h-140l27 154h-367z"/><glyph unicode="¿" horiz-adv-x="1013" d="M20-94q0 166 130 303 48 50 144 112.5T426 422q67 70 84 176l8 51h160l-8-71q-16-155-101-246-41-44-133-105.5T307 129q-27-26-40-40.5T235.5 47 209-12.5 201-86q0-70 45-125 62-74 184-74 126 0 204 75t99 196h187q-32-181-142-291-64-64-158-100.5T420-442q-188 0-301 110-99 94-99 238zm492 905l39 225h219l-39-225H512z"/><glyph unicode="À" horiz-adv-x="1259" d="M-115 0l768 1452h213L1126 0H944l-57 344H254L78 0h-193zm457 516h514l-127 754zm238 1237l110 141 305-252-71-92z"/><glyph unicode="Á" horiz-adv-x="1259" d="M-115 0l768 1452h213L1126 0H944l-57 344H254L78 0h-193zm457 516h514l-127 754zm207 1131l393 249 72-149-414-203z"/><glyph unicode="Â" horiz-adv-x="1259" d="M-115 0l768 1452h213L1126 0H944l-57 344H254L78 0h-193zm457 516h514l-127 754zm109 1118l303 269h112l209-269-102-92-180 236-261-236z"/><glyph unicode="Ã" horiz-adv-x="1259" d="M-115 0l768 1452h213L1126 0H944l-57 344H254L78 0h-193zm457 516h514l-127 754zm98 1196q57 53 111 82t117 29q48 0 91.5-22.5t83.5-45 79-22.5q75 0 139 61l61-86q-107-111-227-111-52 0-97 21.5t-83 43-74 21.5q-68 0-135-57z"/><glyph unicode="Ä" horiz-adv-x="1259" d="M-115 0l768 1452h213L1126 0H944l-57 344H254L78 0h-193zm457 516h514l-127 754zm164 1100l33 188h188l-33-188H506zm360 0l33 188h188l-32-188H866z"/><glyph unicode="Å" horiz-adv-x="1259" d="M-115 0l733 1384q-44 34-69 85t-25 108q0 99 68 170.5t180 71.5 181-72 69-170q0-70-37-129.5T883 1358L1126 0H944l-57 344H254L78 0h-193zm457 516h514l-127 754zm307 1061q0-46 27.5-82t71.5-43h49q44 7 71 43t27 82q0 53-34 90t-89 37-89-37-34-90z"/><glyph unicode="Æ" horiz-adv-x="1863" d="M-129 0l913 1452h1102l-31-170h-681l-74-420h586l-31-172h-586l-92-518h692L1638 0H762l69 387H315L78 0h-207zm551 559h440l127 729H870z"/><glyph unicode="Ç" horiz-adv-x="1265" d="M82 518q0 220 68.5 443.5T356 1317q169 162 400 162 220 0 362-148 64-67 98.5-156t34.5-182h-188q0 141-92 230-85 82-226 82-147 0-262-115-102-102-158.5-296.5T268 528q0-167 85.5-274T602 147q71 0 137 26t109 69q89 86 113 184h190q-20-94-74.5-182.5T946 94Q796-27 592-27q-156 0-273 72.5T142 241 82 518zm182-893L475-98h160L430-459z"/><glyph unicode="È" horiz-adv-x="1265" d="M76 0l254 1452h958l-28-168H485l-79-442h686l-31-170H379l-90-504h782L1044 0H76zm555 1761l110 142 306-252-72-92z"/><glyph unicode="É" horiz-adv-x="1265" d="M76 0l254 1452h958l-28-168H485l-79-442h686l-31-170H379l-90-504h782L1044 0H76zm561 1647l393 249 72-149-414-203z"/><glyph unicode="Ê" horiz-adv-x="1265" d="M76 0l254 1452h958l-28-168H485l-79-442h686l-31-170H379l-90-504h782L1044 0H76zm444 1649l303 268h113l209-268-103-93-180 236-260-236z"/><glyph unicode="Ë" horiz-adv-x="1265" d="M76 0l254 1452h958l-28-168H485l-79-442h686l-31-170H379l-90-504h782L1044 0H76zm485 1616l33 188h188l-32-188H561zm361 0l32 188h189l-33-188H922z"/><glyph unicode="Ì" horiz-adv-x="595" d="M76 0l256 1452h188L264 0H76zm162 1753l110 141 305-252-71-92z"/><glyph unicode="Í" horiz-adv-x="595" d="M70 0l256 1452h188L258 0H70zm129 1647l393 249 72-149-414-203z"/><glyph unicode="Î" horiz-adv-x="595" d="M76 0l256 1452h188L264 0H76zm53 1632l303 269h113l209-269-103-92-180 236-260-236z"/><glyph unicode="Ï" horiz-adv-x="595" d="M70 0l256 1452h188L258 0H70zm100 1616l33 188h188l-33-188H170zm360 0l33 188h189l-33-188H530z"/><glyph unicode="Ð" horiz-adv-x="1378" d="M76 0l121 686H92l25 135h104l111 631h465q227 0 361-147.5T1292 928q0-214-66.5-429.5T1026 154Q866 0 604 0H76zm213 168h338q77 0 151.5 29T901 274q99 98 154 288t55 356q0 160-87.5 263T776 1284H485l-82-463h345l-25-135H381z"/><glyph unicode="Ñ" horiz-adv-x="1503" d="M70 0l256 1452h209l497-1192 205 1192h184L1165 0H956L459 1188 254 0H70zm477 1700q57 53 110.5 81.5T774 1810q48 0 91.5-22.5t83.5-45 79-22.5q73 0 139 62l62-86q-107-111-228-111-41 0-78.5 13.5t-61 29.5-54 29.5T748 1671q-69 0-136-57z"/><glyph unicode="Ò" horiz-adv-x="1341" d="M82 518q0 139 26.5 281t91 285T358 1317q169 162 392 162 119 0 216-42.5t159.5-116.5 96-173 33.5-213q0-141-25-281.5t-88.5-284T985 135Q816-27 592-27q-156 0-273 72.5T142 241 82 518zm186 10q0-167 85.5-274T602 147q143 0 256 113 101 101 155 295.5t54 368.5q0 168-83 274.5T739 1305q-139 0-254-115-102-102-159.5-297T268 528zm367 1241l110 142 306-252-72-92z"/><glyph unicode="Ó" horiz-adv-x="1341" d="M82 518q0 139 26.5 281t91 285T358 1317q169 162 392 162 119 0 216-42.5t159.5-116.5 96-173 33.5-213q0-141-25-281.5t-88.5-284T985 135Q816-27 592-27q-156 0-273 72.5T142 241 82 518zm186 10q0-167 85.5-274T602 147q143 0 256 113 101 101 155 295.5t54 368.5q0 168-83 274.5T739 1305q-139 0-254-115-102-102-159.5-297T268 528zm312 1129l393 250 71-150-413-203z"/><glyph unicode="Ô" horiz-adv-x="1341" d="M82 518q0 139 26.5 281t91 285T358 1317q169 162 392 162 119 0 216-42.5t159.5-116.5 96-173 33.5-213q0-141-25-281.5t-88.5-284T985 135Q816-27 592-27q-156 0-273 72.5T142 241 82 518zm186 10q0-167 85.5-274T602 147q143 0 256 113 101 101 155 295.5t54 368.5q0 168-83 274.5T739 1305q-139 0-254-115-102-102-159.5-297T268 528zm226 1106l303 269h112l209-269-102-92-180 236-261-236z"/><glyph unicode="Õ" horiz-adv-x="1341" d="M82 518q0 139 26.5 281t91 285T358 1317q169 162 392 162 119 0 216-42.5t159.5-116.5 96-173 33.5-213q0-141-25-281.5t-88.5-284T985 135Q816-27 592-27q-156 0-273 72.5T142 241 82 518zm186 10q0-167 85.5-274T602 147q143 0 256 113 101 101 155 295.5t54 368.5q0 168-83 274.5T739 1305q-139 0-254-115-102-102-159.5-297T268 528zm226 1184q58 53 111 82t116 29q48 0 91.5-22.5t83.5-45 79-22.5q75 0 139 61l62-86q-107-111-228-111-52 0-97 21.5t-83 43-74 21.5q-68 0-135-57z"/><glyph unicode="Ö" horiz-adv-x="1341" d="M82 518q0 139 26.5 281t91 285T358 1317q169 162 392 162 119 0 216-42.5t159.5-116.5 96-173 33.5-213q0-141-25-281.5t-88.5-284T985 135Q816-27 592-27q-156 0-273 72.5T142 241 82 518zm186 10q0-167 85.5-274T602 147q143 0 256 113 101 101 155 295.5t54 368.5q0 168-83 274.5T739 1305q-139 0-254-115-102-102-159.5-297T268 528zm277 1092l33 188h188l-33-188H545zm360 0l33 188h188l-32-188H905z"/><glyph unicode="×" horiz-adv-x="1388" d="M129 156l455 454-455 455 111 111 452-455 457 455 111-111-457-455 457-454-111-111-455 455L240 45z"/><glyph unicode="Ø" horiz-adv-x="1341" d="M82 518q0 139 26.5 281t91 285T358 1317q169 162 392 162 161 0 282-78l109 172 102-51-123-197q135-147 135-391 0-141-25-282t-88.5-284T985 135Q816-27 592-27q-156 0-279 76L195-141 90-88l133 211Q82 273 82 518zm186 10q0-142 60-239l606 958q-77 58-195 58-139 0-254-115-102-102-159.5-297T268 528zm144-325q78-56 190-56 143 0 256 113 101 101 155 295.5t54 368.5q0 143-53 233z"/><glyph unicode="Ù" horiz-adv-x="1417" d="M141 428q0 76 11 141l155 883h185L332 549q-8-49-8-115 0-140 75-213 43-42 101-60t141-18q151 0 251 100.5T1018 492l170 960h184l-170-965q-51-295-270-432-129-82-303-82-242 0-379 146-109 120-109 309zm498 1325l111 141 305-252-72-92z"/><glyph unicode="Ú" horiz-adv-x="1417" d="M141 428q0 76 11 141l155 883h185L332 549q-8-49-8-115 0-140 75-213 43-42 101-60t141-18q151 0 251 100.5T1018 492l170 960h184l-170-965q-51-295-270-432-129-82-303-82-242 0-379 146-109 120-109 309zm496 1219l393 249 72-149-414-203z"/><glyph unicode="Û" horiz-adv-x="1417" d="M141 428q0 76 11 141l155 883h185L332 549q-8-49-8-115 0-140 75-213 43-42 101-60t141-18q151 0 251 100.5T1018 492l170 960h184l-170-965q-51-295-270-432-129-82-303-82-242 0-379 146-109 120-109 309zm408 1206l303 269h113l209-269-103-92-180 236-260-236z"/><glyph unicode="Ü" horiz-adv-x="1417" d="M141 428q0 76 11 141l155 883h185L332 549q-8-49-8-115 0-140 75-213 43-42 101-60t141-18q151 0 251 100.5T1018 492l170 960h184l-170-965q-51-295-270-432-129-82-303-82-242 0-379 146-109 120-109 309zm441 1190l32 188h189l-33-188H582zm360 0l33 188h188l-33-188H942z"/><glyph unicode="Ý" horiz-adv-x="1136" d="M113 1452h186l260-690 500 690h207L625 588 522 0H336l106 588zm383 180l393 250 72-149-414-203z"/><glyph unicode="Þ" horiz-adv-x="1234" d="M72 0l256 1454h184l-47-272h297q181 0 302.5-98.5T1186 807q0-120-41.5-217.5t-114.5-162T857.5 328 641 293H307L256 0H72zm264 459h311q158 0 253 89t95 245q0 113-75.5 168T727 1016H434z"/><glyph unicode="ß" horiz-adv-x="1224" d="M70 874l26 156h176l7 35q33 194 154 311t306 117q166 0 270.5-96t104.5-242q0-132-75-236.5T838 793q118-26 187-121.5t69-220.5q0-204-135.5-339T614-23q-112 0-219 35l25 144q86-25 176-25 150 0 234.5 88T915 457q0 124-79.5 193T637 719h-55l26 151h76q109 0 180.5 84t71.5 195q0 94-57 145.5T729 1346q-111 0-181.5-80T455 1061L270 0H94l152 874H70z"/><glyph unicode="à" horiz-adv-x="1161" d="M53 416q0 146 50.5 284.5T250 932q134 131 315 131 88 0 162-39 83-44 121-121l51 133h143L860 0H727v154Q684 76 596 24.5T420-27Q263-27 168 76 53 197 53 416zm178 0q0-147 66-223 60-70 149-70 77 0 144 49t109.5 126 67 167.5T791 643q0 114-37 170-61 100-179 100-108 0-196-88-72-73-110-188t-38-221zm205 919l111 142 305-252-72-92z"/><glyph unicode="á" horiz-adv-x="1161" d="M53 416q0 146 50.5 284.5T250 932q134 131 315 131 88 0 162-39 83-44 121-121l51 133h143L860 0H727v154Q684 76 596 24.5T420-27Q263-27 168 76 53 197 53 416zm178 0q0-147 66-223 60-70 149-70 77 0 144 49t109.5 126 67 167.5T791 643q0 114-37 170-61 100-179 100-108 0-196-88-72-73-110-188t-38-221zm181 823l393 250 72-150-414-202z"/><glyph unicode="â" horiz-adv-x="1161" d="M53 416q0 146 50.5 284.5T250 932q134 131 315 131 88 0 162-39 83-44 121-121l51 133h143L860 0H727v154Q684 76 596 24.5T420-27Q263-27 168 76 53 197 53 416zm178 0q0-147 66-223 60-70 149-70 77 0 144 49t109.5 126 67 167.5T791 643q0 114-37 170-61 100-179 100-108 0-196-88-72-73-110-188t-38-221zm97 817l303 268h112l209-268-102-92-180 235-260-235z"/><glyph unicode="ã" horiz-adv-x="1161" d="M53 416q0 146 50.5 284.5T250 932q134 131 315 131 88 0 162-39 83-44 121-121l51 133h143L860 0H727v154Q684 76 596 24.5T420-27Q263-27 168 76 53 197 53 416zm178 0q0-147 66-223 60-70 149-70 77 0 144 49t109.5 126 67 167.5T791 643q0 114-37 170-61 100-179 100-108 0-196-88-72-73-110-188t-38-221zm97 913q58 53 111 82t116 29q48 0 91.5-22.5t83.5-45 79-22.5q75 0 139 61l62-86q-107-111-228-111-52 0-97 21.5t-83 43-74 21.5q-68 0-135-57z"/><glyph unicode="ä" horiz-adv-x="1161" d="M53 416q0 146 50.5 284.5T250 932q134 131 315 131 88 0 162-39 83-44 121-121l51 133h143L860 0H727v154Q684 76 596 24.5T420-27Q263-27 168 76 53 197 53 416zm178 0q0-147 66-223 60-70 149-70 77 0 144 49t109.5 126 67 167.5T791 643q0 114-37 170-61 100-179 100-108 0-196-88-72-73-110-188t-38-221zm150 817l33 188h188l-33-188H381zm360 0l33 188h189l-33-188H741z"/><glyph unicode="å" horiz-adv-x="1161" d="M53 416q0 146 50.5 284.5T250 932q134 131 315 131 88 0 162-39 83-44 121-121l51 133h143L860 0H727v154Q684 76 596 24.5T420-27Q263-27 168 76 53 197 53 416zm178 0q0-147 66-223 60-70 149-70 77 0 144 49t109.5 126 67 167.5T791 643q0 114-37 170-61 100-179 100-108 0-196-88-72-73-110-188t-38-221zm222 958q0 89 61.5 154t163.5 65 163.5-65 61.5-154-61.5-154-163.5-65-163.5 65-61.5 154zm112 0q0-47 31.5-79.5T678 1262t80 32.5 30 79.5q0 48-30.5 81.5T678 1489q-50 0-81.5-34t-31.5-81z"/><glyph unicode="æ" horiz-adv-x="1730" d="M16 248q0 163 115.5 262.5T412 610h325q15 74 15 127 0 80-43 125-53 56-140 56-95 0-155-35-42-25-71.5-65T303 731H133q35 161 160 246.5t295 85.5q92 0 175.5-42T879 905q52 60 98 86 117 72 244 72 177 0 284-119 109-120 109-313 0-82-21-168H881q-2-18-2-55 0-130 67-207.5t187-77.5q77 0 140 45.5t97 122.5h174q-47-148-162.5-233T1116-27q-112 0-209.5 57.5T764 188Q661 44 496-6q-74-21-156-21-74 0-142.5 28T88 76q-72 82-72 172zm179 22q0-67 50-107t120-40q118 0 208 76 114 96 144 274H430q-102 0-168.5-55.5T195 270zm708 342h539q2 14 2 39 0 113-62 188.5T1210 915q-117 0-202-92-72-77-105-211z"/><glyph unicode="ç" horiz-adv-x="1067" d="M53 399q0 96 19.5 189.5t61 179.5T235 919.5 382 1024t191 39q171 0 283.5-100T969 694q0-5-1-16t-1-16H788q0 4 1.5 11t1.5 11q0 103-62 166t-164 63q-111 0-196-88-70-71-104-187.5T231 406q0-145 78-220 66-63 168-63 94 0 162 56t98 147h174Q887 173 759.5 73T469-27Q284-27 168.5 91T53 399zm94-796l211 276h160L313-481z"/><glyph unicode="è" horiz-adv-x="1103" d="M53 432q0 139 50.5 271T246 926q137 137 338 137 183 0 293-119 112-121 112-313 0-86-20-168H233q-2-18-2-55 0-129 70-207t193-78q81 0 145 45t98 123h181Q871 143 750.5 58T475-27q-111 0-202 46.5T125 158Q53 277 53 432zm203 180h555q2 14 2 39 0 113-63 188.5T573 915q-116 0-208-96-75-75-109-207zm201 723l110 142 305-252-71-92z"/><glyph unicode="é" horiz-adv-x="1103" d="M53 432q0 139 50.5 271T246 926q137 137 338 137 183 0 293-119 112-121 112-313 0-86-20-168H233q-2-18-2-55 0-129 70-207t193-78q81 0 145 45t98 123h181Q871 143 750.5 58T475-27q-111 0-202 46.5T125 158Q53 277 53 432zm203 180h555q2 14 2 39 0 113-63 188.5T573 915q-116 0-208-96-75-75-109-207zm186 623l394 250 71-150-413-202z"/><glyph unicode="ê" horiz-adv-x="1103" d="M53 432q0 139 50.5 271T246 926q137 137 338 137 183 0 293-119 112-121 112-313 0-86-20-168H233q-2-18-2-55 0-129 70-207t193-78q81 0 145 45t98 123h181Q871 143 750.5 58T475-27q-111 0-202 46.5T125 158Q53 277 53 432zm203 180h555q2 14 2 39 0 113-63 188.5T573 915q-116 0-208-96-75-75-109-207zm80 611l303 268h113l209-268-103-93-180 236-260-236z"/><glyph unicode="ë" horiz-adv-x="1103" d="M53 432q0 139 50.5 271T246 926q137 137 338 137 183 0 293-119 112-121 112-313 0-86-20-168H233q-2-18-2-55 0-129 70-207t193-78q81 0 145 45t98 123h181Q871 143 750.5 58T475-27q-111 0-202 46.5T125 158Q53 277 53 432zm203 180h555q2 14 2 39 0 113-63 188.5T573 915q-116 0-208-96-75-75-109-207zm111 615l32 188h189l-33-188H367zm360 0l33 188h188l-33-188H727z"/><glyph unicode="ì" horiz-adv-x="550" d="M57 0l185 1036h178L236 0H57zm88 1335l111 142 305-252-72-92z"/><glyph unicode="í" horiz-adv-x="550" d="M57 0l185 1036h180L238 0H57zm95 1231l393 250 71-150-413-203z"/><glyph unicode="î" horiz-adv-x="550" d="M45 1223l303 268h113l209-268-103-93-180 236-260-236zM57 0l185 1036h180L238 0H57z"/><glyph unicode="ï" horiz-adv-x="550" d="M57 0l185 1036h178L236 0H57zm29 1227l33 188h188l-33-188H86zm360 0l33 188h189l-33-188H446z"/><glyph unicode="ð" horiz-adv-x="1120" d="M61 406q0 95 19.5 187.5t62 178 102.5 150 147.5 103T584 1063q55 0 114-16l-55 157H397l23 121h174l-55 154h168l59-154h209l-23-121H815l148-405q28-76 28-168 0-95-19.5-187.5t-61.5-178T808 115 660.5 11.5 469-27q-91 0-172 37T160 113Q61 232 61 406zm179 4q0-121 62.5-204T483 123q71 0 128.5 33.5t94 86.5T767 364t35.5 134T813 627q0 121-63 203.5T569 913q-71 0-128.5-33.5t-94-86T285 673t-35-134-10-129z"/><glyph unicode="ñ" horiz-adv-x="1210" d="M57 0l183 1036h141V893q55 77 148 123.5t188 46.5q145 0 227-82 72-72 72-199 0-36-17-147L887 0H713l110 623q15 86 15 114 0 86-39 125-47 47-135 47-71 0-139-45T414 754q-68-103-92-248L231 0H57zm310 1329q58 53 111 82t116 29q48 0 91.5-22.5t83.5-45 79-22.5q75 0 139 61l62-86q-107-111-228-111-52 0-97 21.5t-83 43-74 21.5q-68 0-135-57z"/><glyph unicode="ò" horiz-adv-x="1110" d="M53 406q0 95 19.5 187.5t61.5 178 102 150 147.5 103T575 1063q91 0 172-35.5T883 926q100-121 100-295 0-95-19.5-187.5t-61.5-178T800 115 652.5 11.5 461-27q-91 0-171.5 36T154 111Q53 233 53 406zm178 4q0-123 61.5-205T475 123q71 0 128.5 33.5t94 86.5T759 364t35.5 134T805 627q0 123-61.5 204.5T561 913q-71 0-128.5-33.5t-94-86T277 673t-35.5-134T231 410zm213 925l111 142 305-252-72-92z"/><glyph unicode="ó" horiz-adv-x="1110" d="M53 406q0 95 19.5 187.5t61.5 178 102 150 147.5 103T575 1063q91 0 172-35.5T883 926q100-121 100-295 0-95-19.5-187.5t-61.5-178T800 115 652.5 11.5 461-27q-91 0-171.5 36T154 111Q53 233 53 406zm178 4q0-123 61.5-205T475 123q71 0 128.5 33.5t94 86.5T759 364t35.5 134T805 627q0 123-61.5 204.5T561 913q-71 0-128.5-33.5t-94-86T277 673t-35.5-134T231 410zm201 827l393 250 72-150-414-202z"/><glyph unicode="ô" horiz-adv-x="1110" d="M53 406q0 95 19.5 187.5t61.5 178 102 150 147.5 103T575 1063q91 0 172-35.5T883 926q100-121 100-295 0-95-19.5-187.5t-61.5-178T800 115 652.5 11.5 461-27q-91 0-171.5 36T154 111Q53 233 53 406zm178 4q0-123 61.5-205T475 123q71 0 128.5 33.5t94 86.5T759 364t35.5 134T805 627q0 123-61.5 204.5T561 913q-71 0-128.5-33.5t-94-86T277 673t-35.5-134T231 410zm91 819l303 268h112l209-268-102-92-180 235-261-235z"/><glyph unicode="õ" horiz-adv-x="1110" d="M53 406q0 95 19.5 187.5t61.5 178 102 150 147.5 103T575 1063q91 0 172-35.5T883 926q100-121 100-295 0-95-19.5-187.5t-61.5-178T800 115 652.5 11.5 461-27q-91 0-171.5 36T154 111Q53 233 53 406zm178 4q0-123 61.5-205T475 123q71 0 128.5 33.5t94 86.5T759 364t35.5 134T805 627q0 123-61.5 204.5T561 913q-71 0-128.5-33.5t-94-86T277 673t-35.5-134T231 410zm105 931q58 53 111 82t116 29q48 0 91.5-22.5t83.5-45 79-22.5q75 0 139 61l62-86q-107-110-227-110-52 0-97 21.5t-83 43-74 21.5q-68 0-136-58z"/><glyph unicode="ö" horiz-adv-x="1110" d="M53 406q0 95 19.5 187.5t61.5 178 102 150 147.5 103T575 1063q91 0 172-35.5T883 926q100-121 100-295 0-95-19.5-187.5t-61.5-178T800 115 652.5 11.5 461-27q-91 0-171.5 36T154 111Q53 233 53 406zm178 4q0-123 61.5-205T475 123q71 0 128.5 33.5t94 86.5T759 364t35.5 134T805 627q0 123-61.5 204.5T561 913q-71 0-128.5-33.5t-94-86T277 673t-35.5-134T231 410zm127 817l33 188h189l-33-188H358zm361 0l33 188h188l-33-188H719z"/><glyph unicode="÷" horiz-adv-x="1327" d="M133 535v159h1028V535H133zM526 98v242h234V98H526zm0 807v242h234V905H526z"/><glyph unicode="ø" horiz-adv-x="1118" d="M53 406q0 95 19.5 187.5t61.5 178 102 150 147.5 103T575 1063q115 0 207-53l121 188 88-57-125-197q58-59 87.5-142T983 631q0-95-19.5-187.5t-61.5-178T800 115 652.5 11.5 461-27q-101 0-185 41L166-158 76-98 186 76q-9 8-32 35Q53 233 53 406zm178 4q0-112 50-189l415 653q-55 39-135 39-71 0-128.5-33.5t-94-86T277 673t-35.5-134T231 410zm129-260q56-27 115-27 71 0 128.5 33.5t94 86.5T759 364t35.5 134T805 627q0 98-35 164z"/><glyph unicode="ù" horiz-adv-x="1175" d="M100 287q0 47 9 102l114 647h174L285 399q-6-40-6-77 0-92 49-144 48-51 137-51 126 0 225 147 58 85 88 256l90 506h174L860 0H717v133Q668 58 583.5 15.5T412-27q-132 0-215 74-97 84-97 240zm336 1048l111 142 305-252-72-92z"/><glyph unicode="ú" horiz-adv-x="1175" d="M100 287q0 47 9 102l114 647h174L285 399q-6-40-6-77 0-92 49-144 48-51 137-51 126 0 225 147 58 85 88 256l90 506h174L860 0H717v133Q668 58 583.5 15.5T412-27q-132 0-215 74-97 84-97 240zm359 948l393 250 72-150-414-202z"/><glyph unicode="û" horiz-adv-x="1175" d="M100 287q0 47 9 102l114 647h174L285 399q-6-40-6-77 0-92 49-144 48-51 137-51 126 0 225 147 58 85 88 256l90 506h174L860 0H717v133Q668 58 583.5 15.5T412-27q-132 0-215 74-97 84-97 240zm258 952l304 268h112l209-268-102-92-181 235-260-235z"/><glyph unicode="ü" horiz-adv-x="1175" d="M100 287q0 47 9 102l114 647h174L285 399q-6-40-6-77 0-92 49-144 48-51 137-51 126 0 225 147 58 85 88 256l90 506h174L860 0H717v133Q668 58 583.5 15.5T412-27q-132 0-215 74-97 84-97 240zm301 940l33 188h189l-33-188H401zm361 0l33 188h188l-33-188H762z"/><glyph unicode="ý" horiz-adv-x="1017" d="M-131-377l29 148q80-50 153-50 87 0 133 82L299 12 72 1036h182l168-811 432 811h193L336-260q-47-87-108-132.5T80-438q-119 0-211 61zm537 1612l393 250 71-150-413-202z"/><glyph unicode="þ" horiz-adv-x="1191" d="M-20-444l337 1923h175l-95-545q51 62 128.5 95.5T686 1063q82 0 158-37t123-100q92-122 92-305 0-92-19-182.5t-59.5-175-98-149T742 11.5 561-27q-95 0-180 44T254 145L152-444H-20zm333 866q0-60 13.5-111.5t41.5-94 76.5-67T557 125q99 0 180 78 74 70 109 184t35 234q0 58-13 109.5t-39 95-72.5 69T649 920q-84 0-157-56-76-57-117.5-153.5T319 504q-6-41-6-82z"/><glyph unicode="ÿ" horiz-adv-x="1017" d="M-131-375l25 135q79-49 151-49 88 0 133 82L299 12 72 1036h182l168-811 432 811h193L336-260Q240-438 70-438q-107 0-201 63zm438 1602l33 188h188l-32-188H307zm361 0l32 188h189l-33-188H668z"/><glyph unicode="Œ" horiz-adv-x="2076" d="M82 518q0 104 16 211.5T147 946t88 204 126.5 169 172 117 218.5 43q122 0 225-51t158-148l30 172h934l-28-168h-750l-80-442h641l-31-172h-637l-90-502h758L1855 0H911l19 106Q868 41 776.5 7T590-27q-157 0-273.5 72T141 239.5 82 518zm186 10q0-81 20.5-149t60-120.5 104-82T600 147q74 0 138 28.5T848.5 252t84 113T994 500.5t40 147.5 22.5 145 6.5 131q0 80-18.5 147.5t-56 120.5-101 83-146.5 30q-84 0-156-38t-122.5-102.5-89-144-61-168.5T279 681.5 268 528z"/><glyph unicode="œ" horiz-adv-x="1806" d="M53 406q0 153 49.5 295T248 936q130 127 321 127 93 0 179-47 108-60 155-170 52 81 133 137 116 80 258 80 177 0 287-119 111-120 111-313 0-90-19-168H950q-2-18-2-55 0-130 67-207.5t189-77.5q80 0 141.5 45t96.5 123h180q-47-148-164-233t-272-85q-117 0-214.5 61.5T834 201Q765 84 668 29 610-3 562-15T446-27q-176 0-294 140-99 119-99 293zm178 4q0-122 60.5-204.5T469 123q87 0 162 61 82 68 122 193t40 250q0 78-24 141t-79.5 104T555 913q-71 0-128-33.5t-92.5-86-60-121-34-133.5-9.5-129zm740 202h545q2 14 2 39 0 114-60.5 189T1284 915q-119 0-209-94-74-74-104-209z"/><glyph unicode="Ÿ" horiz-adv-x="1136" d="M113 1452h186l260-690 500 690h207L625 588 522 0H336l106 588zm301 141l32 189h189l-33-189H414zm360 0l33 189h188l-32-189H774z"/><glyph unicode="ˆ" horiz-adv-x="718" d="M131 1223l303 268h113l209-268-103-93-180 236-260-236z"/><glyph unicode="˜" horiz-adv-x="729" d="M129 1329q58 53 111 82t116 29q48 0 91.5-22.5t83.5-45 79-22.5q76 0 140 61l61-86q-107-111-227-111-52 0-97 21.5t-83 43-74 21.5q-68 0-135-57z"/><glyph horiz-adv-x="958"/><glyph horiz-adv-x="1917"/><glyph horiz-adv-x="958"/><glyph horiz-adv-x="1917"/><glyph horiz-adv-x="639"/><glyph horiz-adv-x="479"/><glyph horiz-adv-x="319"/><glyph horiz-adv-x="319"/><glyph horiz-adv-x="239"/><glyph horiz-adv-x="383"/><glyph horiz-adv-x="106"/><glyph unicode="‐" horiz-adv-x="886" d="M106 537l29 161h608l-28-161H106z"/><glyph unicode="‑" horiz-adv-x="886" d="M106 537l29 161h608l-28-161H106z"/><glyph unicode="‒" horiz-adv-x="886" d="M106 537l29 161h608l-28-161H106z"/><glyph unicode="–" horiz-adv-x="1333" d="M106 537l29 161h1055l-29-161H106z"/><glyph unicode="—" horiz-adv-x="2295" d="M106 537l29 161h2017l-28-161H106z"/><glyph unicode="‘" horiz-adv-x="555" d="M164 911l43 240q42 237 258 322l37-97q-144-58-172-225h129l-43-240H164z"/><glyph unicode="’" horiz-adv-x="534" d="M188 987q84 34 120 84t52 141H231l43 240h252l-43-240q-21-119-81.5-197T225 891z"/><glyph unicode="‚" horiz-adv-x="563" d="M-6-225q84 34 120 84T166 0H37l43 240h252L289 0q-21-119-81.5-197.5T31-322z"/><glyph unicode="“" horiz-adv-x="958" d="M168 911l43 240q42 237 258 322l37-97q-144-58-172-225h129l-43-240H168zm403 0l43 240q42 237 258 322l37-97q-144-58-172-225h129l-43-240H571z"/><glyph unicode="”" horiz-adv-x="937" d="M186 987q84 34 120 84t52 141H229l43 240h252l-43-240q-21-119-81.5-197T223 891zm404 0q84 34 120 84t52 141H633l43 240h252l-43-240q-21-119-81.5-197T627 891z"/><glyph unicode="„" horiz-adv-x="999" d="M2-225q84 34 120 84T174 0H45l43 240h252L297 0q-21-119-81.5-197.5T39-322zm406 0q84 34 120 84T580 0H451l43 240h251L702 0q-21-119-81.5-197.5T444-322z"/><glyph unicode="•" horiz-adv-x="903" d="M166 598q0 110 76.5 189T428 866q108 0 184-78.5T688 598t-76-189.5T428 330q-109 0-185.5 79T166 598z"/><glyph unicode="…" horiz-adv-x="1640" d="M25 0l43 236h235L260 0H25zm548 0l43 236h236L809 0H573zm549 0l43 236h238L1360 0h-238z"/><glyph horiz-adv-x="383"/><glyph unicode="‹" horiz-adv-x="641" d="M68 614l419 467 103-88-311-387 174-399-125-70z"/><glyph unicode="›" horiz-adv-x="641" d="M18 227l312 387-174 398 127 67 258-473-420-467z"/><glyph horiz-adv-x="479"/><glyph unicode="€" horiz-adv-x="1191" d="M12 506l23 125h151q0 56 23 162H63l23 125h152q61 222 204 362 173 170 414 170 250 0 404-154l-93-141q-128 131-321 131-172 0-295-129-81-90-129-239h584l-78-125H389q-14-58-22-162h471l-78-125H360q0-169 102-270t271-101q146 0 271 78l40-152Q895-29 723-29q-242 0-389.5 147.5T180 506H12z"/><glyph unicode="™" horiz-adv-x="1705" d="M143 1325l23 127h594l-23-127H512L393 651H252l119 674H143zm588-674l141 801h215l87-573 290 573h222l-142-801h-141l115 656-328-635h-100l-103 633-115-654H731z"/><glyph unicode="" horiz-adv-x="1034" d="M0 0v1034h1034V0H0z"/></font>
</defs>
</svg>
