<svg xmlns="http://www.w3.org/2000/svg"><defs><font horiz-adv-x="1163"><font-face units-per-em="2048" ascent="1556" descent="-492"/><glyph unicode="ﬁ" horiz-adv-x="1269" d="M66 930v94h204v180q0 124 75 205.5t214 81.5q83 0 156-12v-93q-89 13-148 13-194 0-194-199v-176h321v-94H373V0H270v930H66zm864 379v143h143v-143H930zM948 0v1024h109V0H948z"/><glyph unicode="ﬂ" horiz-adv-x="1300" d="M66 930v94h204v180q0 124 75 205.5t214 81.5q83 0 156-12v-93q-89 13-148 13-194 0-194-199v-176h321v-94H373V0H270v930H66zm860-725v1274h102V209q0-59 23.5-91t83.5-32q59 0 88 4V0q-46-12-93-12-204 0-204 217z"/><glyph horiz-adv-x="2048"/><glyph horiz-adv-x="2048"/><glyph horiz-adv-x="682"/><glyph horiz-adv-x="440"/><glyph horiz-adv-x="440"/><glyph horiz-adv-x="440"/><glyph horiz-adv-x="440"/><glyph horiz-adv-x="440"/><glyph unicode="!" horiz-adv-x="628" d="M266 0v156h156V0H266zm13 1055v397h127v-397l-29-590h-70z"/><glyph unicode="&quot;" horiz-adv-x="897" d="M197 1198v254h125v-254l-31-311h-66zm309 0v254h125v-254l-31-311h-65z"/><glyph unicode="#" horiz-adv-x="1566" d="M170 406v92h272l60 428H238v92h278l57 405h91l-58-405h443l57 405h92l-57-405h266v-92h-281l-59-428h272v-92h-286L995 0h-90l58 406H520L463 0h-92l57 406H170zm362 92h443l61 428H594z"/><glyph unicode="$" d="M68 469h102q0-149 104-256 100-103 267-113v600l-92 13q-150 20-245 109t-95 243q0 150 122 260 126 114 310 123v190h84v-192q187-19 299-137 120-126 125-289H946q-6 130-98 229-78 84-223 101V797l96-13q164-20 257-117t93-253q0-163-115-273Q833 18 625 6v-186h-84V6q-103 6-195 44T193 154Q68 289 68 469zm143 596q0-61 20-107t56-74.5 78.5-44.5 93.5-22l82-10v547q-145-6-234-84-96-82-96-205zm414-965q157 12 256 107 88 84 88 207 0 117-67.5 184T709 680l-84 10V100z"/><glyph unicode="%" horiz-adv-x="1894" d="M139 1098q0 159 66 256 89 125 244 125 159 0 245-125 68-100 68-256t-68-256q-89-125-243-125-157 0-246 125-66 97-66 256zm92 0q0-129 54.5-209T451 809t164 80 53 209-54 208.5-165 79.5-164.5-79.5T231 1098zM375 31l1059 1442 73-52L446-25zm747 321q0 156 68 256 89 125 244 125 157 0 243-125 68-100 68-256t-68-256q-89-125-243-125-155 0-244 125-68 100-68 256zm92 0q0-129 54.5-209T1434 63t164 80 53 209-53 209-164 80-165.5-80-54.5-209z"/><glyph unicode="&" horiz-adv-x="1472" d="M184 381q0 108 52.5 197T383 723l115 68-107 118q-100 111-100 248t97 230.5 245 93.5 248-89 100-235q0-193-178-299l-152-90 385-436q76 137 76 393v88h254v-92h-156q-4-323-104-467L1333 0h-131l-151 172Q970 78 858 24.5T614-29q-119 0-216.5 49.5T242 164.5 184 381zm105 0q0-135 94.5-221T614 74q226 0 365 176L563 717l-114-68q-75-44-117.5-113.5T289 381zm104 776q0-96 86-196l107-123 166 102q61 37 95 93.5t34 123.5q0 103-70.5 166T633 1386q-100 0-170-63.5T393 1157z"/><glyph unicode="'" horiz-adv-x="493" d="M184 1198v254h125v-254l-30-311h-66z"/><glyph unicode="(" horiz-adv-x="595" d="M154 662q0 246 88 494t250 429l63-49q-305-391-305-874 0-484 305-875l-63-49Q330-81 242 167.5T154 662z"/><glyph unicode=")" horiz-adv-x="595" d="M41-213q305 391 305 875 0 483-305 874l63 49q162-181 250-429t88-494-88-494.5T104-262z"/><glyph unicode="*" horiz-adv-x="1093" d="M129 1090l29 92 350-123-10 368h96l-8-368 348 123 31-92-355-107 221-293-77-57-209 305-209-305-78 57 225 293z"/><glyph unicode="+" horiz-adv-x="1398" d="M150 573v93h501v526h97V666h501v-93H748V10h-97v563H150z"/><glyph unicode="," horiz-adv-x="550" d="M180-195q66 35 90.5 77.5T295 0H182v184h189V-2q0-177-156-250z"/><glyph unicode="-" horiz-adv-x="886" d="M154 571v95h579v-95H154z"/><glyph unicode="." horiz-adv-x="540" d="M180 0v184h180V0H180z"/><glyph unicode="/" horiz-adv-x="811" d="M51-27l641 1506h94L145-27H51z"/><glyph unicode="0" d="M125 713q0 96 6 174t22.5 166 51.5 161 88 123q120 115 289 115 168 0 288-115 53-50 88-123t51.5-161 22.5-166 6-174-6-174.5-22.5-166.5T958 211 870 88Q750-27 582-27 413-27 293 88q-53 50-88 123t-51.5 161T131 538.5 125 713zm104 0q0-71 1.5-118.5t8.5-120T259.5 350 299 244t63-90q85-82 220-82 134 0 219 82 37 36 63 90t39.5 106T924 474.5t8.5 120T934 713t-1.5 118.5-8.5 120-20.5 124.5-39.5 106-63 90q-85 82-219 82-135 0-220-82-37-36-63-90t-39.5-106T239 951.5t-8.5-120T229 713z"/><glyph unicode="1" d="M246 1036v115l364 272h92V0H600v1296z"/><glyph unicode="2" d="M201 1030q0 187 110 304.5T608 1452q169 0 275-96.5T989 1096q0-85-39-172.5T850 762L317 98h711V0H203v111l569 710q48 61 81.5 135t33.5 140q0 121-79 189.5T608 1354q-142 0-220.5-89.5T309 1030H201z"/><glyph unicode="3" d="M123 414h104q2-147 87.5-244.5T559 72q151 0 242.5 82T893 373q0 156-89.5 237.5T557 692h-76v99h76q141 0 223 73.5t82 212.5q0 123-86.5 200T565 1354q-148 0-236.5-88T238 1032H131q3 189 124.5 304.5T565 1452q169 0 286.5-104T969 1077q0-120-60-211.5T737 741q123-34 192.5-135.5T999 373q0-177-127.5-288.5T559-27Q360-27 243 96.5T123 414z"/><glyph unicode="4" d="M111 326v112l579 985h117L221 428h561v440h105V428h198V326H887V0H782v326H111z"/><glyph unicode="5" d="M158 412h104q6-154 97-248t243-94q164 0 249 101.5T936 446q0 79-19 146.5T860.5 712t-100 81.5T618 823q-95 0-176-39T313 668H186l33 755h774v-96H317l-28-565q50 80 138 119t191 39q137 0 234-63t142.5-168 45.5-243q0-136-46.5-241.5T846.5 35 602-29Q405-29 284 95.5T158 412z"/><glyph unicode="6" d="M145 715q0 125 10.5 223t46.5 204.5 99 174.5q124 135 303 135 171 0 285-102.5t123-268.5H905q-8 125-88 199t-213 74q-135 0-225-97-42-46-69.5-114t-39-151.5-15-146.5-3.5-145q44 99 139.5 161.5T604 924q208 0 325.5-129.5T1047 451q0-132-50.5-239T844 39 606-27q-111 0-197 49.5T270 147Q145 321 145 715zm136-260q0-102 35.5-187T428 127.5 608 72q84 0 150 31t105 85 59 120.5T942 451t-20 142.5-60 120T756 798t-150 31q-128 0-217-86-108-105-108-288z"/><glyph unicode="7" d="M113 1325v98h888v-108L389 0H279l618 1325H113z"/><glyph unicode="8" d="M133 375q0 122 69 225.5T385 743q-98 38-158.5 130.5T166 1073q0 176 119 277.5T584 1452q179 0 296-101.5T997 1073q0-107-60.5-199.5T778 743q114-39 183-142.5t69-225.5q0-94-36-171T896 77 752.5 0 580-27q-123 0-223 45.5T195 157t-62 218zm107 6q0-147 97-230t247-83 245 82.5T924 381t-97 232.5T580 698q-149 0-244.5-84.5T240 381zm32 696q0-135 87.5-212T584 788q136 0 221.5 76.5T891 1077q0 132-88.5 207.5T580 1360t-221-75.5-87-207.5z"/><glyph unicode="9" d="M119 975q0 132 50.5 239t152 172.5T559 1452q111 0 199.5-49T899 1280q70-98 93.5-239.5T1016 711q0-98-4-170t-17.5-159.5T950 223t-78-123Q756-27 569-27 397-27 282 75.5T158 344h106q8-124 89.5-198T569 72q145 0 226 88 40 44 65.5 108.5t35 151T907 560t2 145v20q-44-99-137.5-161T561 502q-207 0-324.5 129.5T119 975zm104 0q0-76 20-142.5T303 712t106-85 150-31q128 0 217 86 109 106 109 289 0 75-21 143t-61 122-103.5 86-142.5 32q-84 0-150-31t-105-85-59-120.5T223 975z"/><glyph unicode=":" horiz-adv-x="591" d="M225 0v176h170V0H225zm0 848v176h170V848H225z"/><glyph unicode=";" horiz-adv-x="591" d="M225-184q63 34 87 73.5T336 0H227v176h181V-2q0-166-150-238zm8 1032v176h170V848H233z"/><glyph unicode="<" horiz-adv-x="999" d="M113 623l669 669 62-63-606-606L846 14l-62-61z"/><glyph unicode="=" horiz-adv-x="1419" d="M231 279v94h957v-94H231zm0 485v94h957v-94H231z"/><glyph unicode=">" horiz-adv-x="999" d="M154 14l608 609-606 606 61 63 670-669L215-47z"/><glyph unicode="?" horiz-adv-x="999" d="M82 1055q0 195 122.5 312.5T526 1485q92 0 172-32t136-89q104-112 104-254 0-225-217-365-104-66-136-128.5T553 426H446q0 157 47.5 240T676 840q147 99 147 264 0 126-82.5 201T526 1380q-159 0-245-84.5T195 1055H82zM420 0v160h162V0H420z"/><glyph unicode="@" horiz-adv-x="1912" d="M172 627q0 187 60 345t168.5 269.5T666 1416t344 63q158 0 295.5-48.5T1545 1294t161-221 59-293q0-78-14.5-155t-46-150-76-128-110.5-88.5-144-33.5q-69 0-120.5 45.5T1190 387q-36-70-111.5-114T924 229q-150 0-235 104t-85 257q0 114 43 214t132 166 206 66q74 0 135.5-35t89.5-100l27 117h76l-41-541q-5-73 24.5-118.5T1384 313q90 0 156.5 69.5T1638 556t31 224q0 187-89 326t-237 208.5-333 69.5q-222 0-390.5-96.5t-258-268T272 627q0-147 50-278t138-227.5 216.5-153T954-88q288 0 519 100v-96q-126-55-250-76.5T948-182q-171 0-317 63T385 52.5t-156.5 257T172 627zm530-37q0-121 58-198t168-77q68 0 121 34t83 88.5 45 115.5 15 123q0 55-12 102t-37 86.5-69 61.5-103 22q-83 0-146-55.5T732 757t-30-167z"/><glyph unicode="A" horiz-adv-x="1245" d="M16 0l551 1452h105L1229 0h-109L973 383H270L127 0H16zm293 483h625l-316 822z"/><glyph unicode="B" horiz-adv-x="1351" d="M221 0v1452h514q198 0 316-78 69-46 109-121t40-157q0-127-56.5-217.5T969 756q130-31 197-127.5t67-227.5q0-90-33-168.5T1100 100Q976 0 735 0H221zm107 100h407q389 0 389 310 0 86-30 146t-86 92-122 45.5T735 707H328V100zm0 709h407q82 0 141.5 11.5t111 40.5 78 85.5T1092 1087q0 73-30.5 126.5t-83 82.5-113 42.5T735 1352H328V809z"/><glyph unicode="C" horiz-adv-x="1275" d="M119 727q0 92 5 160.5t21 152 52 154.5 92 127q75 75 176.5 116.5T672 1479q214 0 356-133.5t160-337.5h-111q-14 163-124.5 264.5T672 1374q-183 0-305-125-47-48-76.5-111t-42-139-16-133-3.5-139q0-80 4-139t16.5-134.5 42.5-139T369 203Q491 78 672 78q170 0 280.5 101.5T1077 444h111q-18-204-160-337.5T672-27q-105 0-206.5 41.5T289 131q-56 56-92 127.5t-52 155-21 152-5 161.5z"/><glyph unicode="D" horiz-adv-x="1363" d="M221 0v1452h481q111 0 205-38.5t162-104.5q57-55 94.5-124.5t54-151 22-149T1245 727t-5.5-158-22-149.5-54-151.5-94.5-125q-68-66-162-104.5T702 0H221zm107 104h374q82 0 158 28.5T991 213q48 47 79.5 108.5t45 135T1133 589t4 138-4 138-17.5 132-45 134.5T991 1239q-55 52-131 80.5T702 1348H328V104z"/><glyph unicode="E" horiz-adv-x="1261" d="M221 0v1452h930v-102H330V817h723V715H330V102h821V0H221z"/><glyph unicode="F" horiz-adv-x="1191" d="M221 0v1452h909v-102H328V788h723V686H328V0H221z"/><glyph unicode="G" horiz-adv-x="1388" d="M127 725q0 88 7 161.5t25.5 154.5 56.5 152.5 95 127.5q73 72 172 115t211 43q222 0 366-121t159-311h-109q-10 122-96 217-102 110-318 110-179 0-301-119-157-155-157-530 0-385 159-535Q515 78 694 78q87 0 164 31t127 84q42 44 69 98t39 117.5 15.5 115T1112 647H684v105h537V0h-80l-23 223q-56-115-173.5-182.5T694-27q-113 0-213 42T311 127Q205 232 166 385t-39 340z"/><glyph unicode="H" horiz-adv-x="1466" d="M221 0v1452h107V817h811v635h106V0h-106v713H328V0H221z"/><glyph unicode="I" horiz-adv-x="550" d="M221 0v1452h109V0H221z"/><glyph unicode="J" horiz-adv-x="1036" d="M31 440h108q0-196 103-293 72-69 198-69 143 0 217 80 78 84 78 248v1046h107V408q0-200-109-318Q622-27 440-27 283-27 168 76 34 198 31 440z"/><glyph unicode="K" horiz-adv-x="1341" d="M221 0v1452h109V557l798 895h132L778 909 1309 0h-121L707 829 330 403V0H221z"/><glyph unicode="L" horiz-adv-x="1118" d="M221 0v1452h107V100h753V0H221z"/><glyph unicode="M" horiz-adv-x="1806" d="M221 0v1452h150L907 162l527 1290h151V0h-104v1298L950 20h-94L326 1288V0H221z"/><glyph unicode="N" horiz-adv-x="1511" d="M221 0v1452h121l844-1284v1284h104V0h-121L328 1286V0H221z"/><glyph unicode="O" horiz-adv-x="1347" d="M119 727q0 72 3 129t14 127.5 30 127.5 53.5 115.5T301 1331q155 148 373 148t373-148q47-46 81.5-104.5T1182 1111t30-127.5 14-127.5 3-129-3-129-14-128-30-128.5-53.5-116T1047 121Q892-27 674-27T301 121q-47 46-81.5 104.5t-53.5 116T136 470t-14 128-3 129zm110 0q0-82 4-140.5T250 449t45.5-144.5T379 190Q494 78 674 78t295 112q41 39 70 93t44 104 23.5 117.5 10 112.5 1.5 110-1.5 110-10 112-23.5 116.5-44 103.5-70 93q-115 112-295 112t-295-112q-51-49-83.5-114T250 1004t-17-137-4-140z"/><glyph unicode="P" horiz-adv-x="1265" d="M221 0v1452h504q106 0 193.5-26t152.5-77.5 101-134.5 36-190-36-190-101-134.5T918.5 622 725 596H328V0H221zm107 698h397q169 0 271 81.5t102 244.5-102 244.5-271 81.5H328V698z"/><glyph unicode="Q" horiz-adv-x="1347" d="M119 727q0 72 3 129t14 127.5 30 127.5 53.5 115.5T301 1331q155 148 373 148t373-148q47-46 81.5-104.5T1182 1111t30-127.5 14-127.5 3-129q0-90-5.5-160.5T1201 413t-53.5-155.5T1055 129q34-44 137-176l-74-59L981 68Q844-27 674-27q-218 0-373 148-47 46-81.5 104.5t-53.5 116T136 470t-14 128-3 129zm110 0q0-82 4-140.5T250 449t45.5-144.5T379 190Q494 78 674 78q137 0 244 72L700 426l74 59 215-272q44 49 72 112t39 138 14.5 130.5T1118 727q0 65-1.5 110t-10 112-23.5 116.5-44 103.5-70 93q-115 112-295 112t-295-112q-51-49-83.5-114T250 1004t-17-137-4-140z"/><glyph unicode="R" horiz-adv-x="1343" d="M221 0v1452h531q234 0 361.5-112.5T1241 1034q0-142-82-247T940 645L1235 0h-117L834 618H328V0H221zm107 717h424q181 0 279.5 81.5T1130 1034t-98.5 236-279.5 82H328V717z"/><glyph unicode="S" horiz-adv-x="1273" d="M102 418h111q15-129 106-223 57-58 141.5-88.5T639 76q216 0 330 108 86 83 86 209 0 106-77.5 186T772 676l-270 35q-162 21-259.5 113.5T145 1077q0 158 127 275 67 61 161.5 94t197.5 33q117 0 224-44t169-116q101-119 111-252h-109q-15 107-80 184-47 58-131 91.5T631 1376q-173 0-277-88-98-87-98-211 0-62 21-109.5t58-76.5 80.5-45.5T512 823l274-35q169-22 274-131.5T1165 393q0-164-114-278Q906-27 639-27q-259 0-406 156-116 122-131 289z"/><glyph unicode="T" horiz-adv-x="1091" d="M31 1350v102h1030v-102H598V0H492v1350H31z"/><glyph unicode="U" horiz-adv-x="1419" d="M195 532v920h106V530q0-97 24-178t72.5-143.5 128-97.5T709 76t183.5 35 128 97.5 73 143.5 24.5 178v922h107V532q0-121-32-222t-95-177T935.5 15 709-27 482.5 15 321 133t-94 177-32 222z"/><glyph unicode="V" horiz-adv-x="1173" d="M16 1452h113L590 154l454 1298h113L637 0H537z"/><glyph unicode="W" horiz-adv-x="1765" d="M80 1452h100L453 154l383 1276h96l385-1276 268 1298h101L1380 0h-116L881 1272 498 0H385z"/><glyph unicode="X" horiz-adv-x="1171" d="M47 0l477 735-475 717h117l422-635 422 635h114L647 735 1124 0h-120L584 649 162 0H47z"/><glyph unicode="Y" horiz-adv-x="1116" d="M4 1452h115l442-772 443 772h108L610 575V0H506v575z"/><glyph unicode="Z" horiz-adv-x="1265" d="M102 0v115l924 1237H117v100h1032v-115L223 100h936V0H102z"/><glyph unicode="[" horiz-adv-x="657" d="M225-236v1797h361v-84H315V-152h271v-84H225z"/><glyph unicode="\" horiz-adv-x="813" d="M25 1479h96L762-27h-96z"/><glyph unicode="]" horiz-adv-x="657" d="M72-152h270v1629H72v84h360V-236H72v84z"/><glyph unicode="^" horiz-adv-x="1050" d="M143 829l328 650h113l323-650H795l-269 547-270-547H143z"/><glyph unicode="_" horiz-adv-x="1085" d="M68 0h950v-88H68V0z"/><glyph unicode="`" horiz-adv-x="497" d="M41 1350l55 90 324-238-35-55z"/><glyph unicode="a" horiz-adv-x="1148" d="M119 289q0 134 94 214t250 91l377 27v100q0 121-73 177t-198 56q-127 0-207.5-57.5T274 729H172q10 152 119 237t278 85q75 0 140-17t122.5-61T915 862q27-68 27-196V199q0-59 15.5-85t64.5-26q19 0 29 2V0q-37-6-50-6-161 0-161 201Q800 90 697.5 31.5T471-27q-153 0-252.5 85.5T119 289zm104 0q0-106 71.5-163.5T479 68q93 0 164.5 35t113 94T819 326t21 147v53l-367-22q-115-8-182.5-65T223 289z"/><glyph unicode="b" horiz-adv-x="1196" d="M203 0v1479h102V852q41 88 137 143.5t205 55.5q169 0 279-107 79-74 119-188.5t40-245.5q0-137-41.5-252T918 70Q806-27 645-27q-106 0-203 57T305 180L293 0h-90zm100 512q0-228 131-356 85-82 209-82 123 0 203 71 68 61 101.5 157T981 512q0 224-115 348-87 90-219 90t-215-80Q303 749 303 512z"/><glyph unicode="c" horiz-adv-x="1048" d="M115 512q0 136 33 238.5T258 930q121 121 301 121 159 0 267.5-95T954 705H848q-18 108-96 176.5T559 950q-142 0-227-88-64-67-88.5-152.5T219 512t24.5-198.5T332 160q83-86 227-86 115 0 193.5 71T850 324h108Q937 172 827 72.5T559-27Q379-27 258 94q-77 77-110 179.5T115 512z"/><glyph unicode="d" horiz-adv-x="1196" d="M111 510q0 131 40 245.5T270 944q110 107 279 107 109 0 205-55.5T891 852v627h102V0h-90l-12 180Q851 87 754 30T551-27q-160 0-272 97-84 73-126 188t-42 252zm104 2q0-114 33.5-210T350 145q80-71 203-71 124 0 209 82 131 128 131 356 0 237-129 358-83 80-215 80t-219-90Q215 736 215 512z"/><glyph unicode="e" horiz-adv-x="1103" d="M115 508q0 228 100 364 132 179 348 179 133 0 234.5-71T950 797.5t51-242.5q0-13-1-34t-1-34H217q3-184 107-307Q415 72 571 72q137 0 224 90 61 64 77 145h107Q959 184 864 92 745-27 571-27q-196 0-325 146-131 153-131 389zm104 74h678q-3 154-93.5 263T563 954q-154 0-249-107.5T219 582z"/><glyph unicode="f" horiz-adv-x="718" d="M66 930v94h204v180q0 124 75 205.5t214 81.5q83 0 156-12v-93q-89 13-148 13-194 0-194-199v-176h321v-94H373V0H270v930H66z"/><glyph unicode="g" horiz-adv-x="1091" d="M117-162q0 75 41 141t112 99q-54 15-91.5 64.5T141 246q0 123 123 194-102 99-102 252 0 162 109 260.5t274 98.5q133 0 239-70 20 64 78 101.5t129 37.5q6 0 19.5-2t19.5-2v-88q-6 0-19.5 2t-19.5 2q-56 0-93.5-29T850 922q82-95 82-230 0-162-110.5-258T545 338q-116 0-205 47-44-16-73-49.5T238 258q0-68 71-96 45-17 137-17h224q204 0 301-100 82-82 82-199 0-109-78-190-118-121-406-121-265 0-381 119-71 74-71 184zm96 0q0-77 55-129 87-82 303-82 236 0 326 90 53 53 53 129 0 75-49 127-73 76-248 76H383q-71-17-120.5-71.5T213-162zm49 854q0-120 80-191t203-71 203.5 71T829 692q0 121-80.5 193.5T545 958t-203-72.5T262 692z"/><glyph unicode="h" horiz-adv-x="1193" d="M203 0v1479h102V836q42 97 139.5 156t206.5 59q174 0 267.5-100t93.5-275V0H909v670q0 284-264 284-91 0-159-37.5T380 815t-56.5-140T305 512V0H203z"/><glyph unicode="i" horiz-adv-x="532" d="M195 1309v143h143v-143H195zM213 0v1024h109V0H213z"/><glyph unicode="j" horiz-adv-x="581" d="M-37-315q89-13 133-13 170 0 170 201v1151h103V-131q0-136-63.5-214.5T104-424q-55 0-141 14v95zm281 1624v143h141v-143H244z"/><glyph unicode="k" horiz-adv-x="1097" d="M203 0v1479h104V401l576 623h129L649 629 1061 0H936L575 547 307 254V0H203z"/><glyph unicode="l" horiz-adv-x="571" d="M197 205v1274h102V209q0-59 23.5-91T406 86q59 0 88 4V0q-46-12-93-12-204 0-204 217z"/><glyph unicode="m" horiz-adv-x="1792" d="M203 0v1024h90l12-176q41 91 122.5 147t188.5 56q129 0 210.5-59T940 829q42 101 126 161.5t204 60.5q173 0 256.5-101t83.5-274V0h-103v670q0 139-57 211.5T1264 954q-108 0-183-69-120-114-120-305V0H856v670q0 139-58.5 211.5T610 954q-110 0-182-69-123-115-123-373V0H203z"/><glyph unicode="n" horiz-adv-x="1193" d="M203 0v1024h90l12-186q42 95 139.5 154t206.5 59q174 0 267.5-100t93.5-275V0H909v670q0 280-264 280-73 0-132-24.5t-97-66-63.5-98.5T316 642.5 305 512V0H203z"/><glyph unicode="o" horiz-adv-x="1118" d="M115 512q0 271 145 416 123 123 299 123t299-123q146-146 146-416T858 96Q735-27 559-27T260 96Q115 241 115 512zm104 0q0-110 25-195.5T334 164q87-90 225-90t225 90q65 67 90 152.5T899 512t-25 195.5T784 860q-87 90-225 90t-225-90q-65-67-90-152.5T219 512z"/><glyph unicode="p" horiz-adv-x="1196" d="M203-410v1434h90l12-180q40 93 137 150t203 57q161 0 273-97 84-73 125.5-188t41.5-252q0-131-40-245.5T926 80Q816-27 647-27q-109 0-205 55.5T305 172v-582H203zm100 922q0-237 129-358 83-80 215-80t219 90q115 124 115 348 0 114-33.5 210T846 879q-80 71-203 71-124 0-209-82-131-128-131-356z"/><glyph unicode="q" horiz-adv-x="1196" d="M111 514q0 137 42 252t126 188q112 97 272 97 106 0 203-57t137-150l12 180h90V-410H891v582Q850 84 754 28.5T549-27Q380-27 270 80q-79 74-119 188.5T111 514zm104-2q0-224 115-348 87-90 219-90t215 80q129 121 129 358 0 228-131 356-85 82-209 82-123 0-203-71-68-61-101.5-157T215 512z"/><glyph unicode="r" horiz-adv-x="780" d="M203 0v1024h90l12-207q33 102 123.5 159.5T631 1034q67 0 100-6V926q-41 10-100 10-74 0-132-26t-94-68-59-101-32-120-9-129V0H203z"/><glyph unicode="s" horiz-adv-x="1048" d="M111 311h104q9-90 76-157 85-82 241-82 167 0 242 75 55 55 55 132 0 72-49.5 123T641 465l-199 27q-159 19-231 102-57 66-57 162 0 117 88 198 106 97 280 97 95 0 176.5-30.5T831 930q75-88 78-189H807q-9 73-51 123-77 90-234 90-120 0-184-47-80-58-80-141 0-70 44.5-114T457 594l194-27q137-19 210-100t73-182q0-110-70-189-54-60-141-91.5T532-27q-219 0-335 131-43 50-63 97.5T111 311z"/><glyph unicode="t" horiz-adv-x="757" d="M49 930v94h205v283l102 24v-307h318v-94H356V289q0-100 37-153.5T526 82q63 0 162 18V10Q574-14 518-14q-137 0-200.5 79T254 285v645H49z"/><glyph unicode="u" horiz-adv-x="1193" d="M182 350v676h103V356q0-280 264-280 73 0 132 24.5t97 66 63.5 98.5T878 383.5 889 514v512h102V2h-90l-12 186Q847 92 750 33.5T543-25Q369-25 275.5 75T182 350z"/><glyph unicode="v" horiz-adv-x="956" d="M29 1024h116l344-879 330 879h109L539 0H434z"/><glyph unicode="w" horiz-adv-x="1527" d="M88 1024h98l222-901 303 887h108l301-879 223 893h97L1186 0h-123L762 877 463 0H342z"/><glyph unicode="x" horiz-adv-x="966" d="M45 0l369 530-363 506h123l311-438 314 438h119L553 530 922 0H799L483 457 166 0H45z"/><glyph unicode="y" horiz-adv-x="980" d="M33 1024h110l359-909 344 909h110L481-219q-80-209-276-209-36 0-68.5 4.5T90-414l-14 4v86q72-12 125-12 126 0 186 152l66 168z"/><glyph unicode="z" horiz-adv-x="1007" d="M125 0v115l655 813H125v96h766V911L236 98h661V0H125z"/><glyph unicode="{" horiz-adv-x="718" d="M123 614v97q89 10 150 59.5T334 901v367q0 140 76 216.5t215 76.5h53v-86h-53q-104 0-150.5-51T428 1268V901q0-86-54-150.5T236 664q83-22 137.5-89T428 422V55q0-105 46.5-156T625-152h53v-86h-53q-139 0-215 76.5T334 55v367q0 82-61.5 133T123 614z"/><glyph unicode="|" horiz-adv-x="528" d="M221-236v1795h86V-236h-86z"/><glyph unicode="}" horiz-adv-x="718" d="M41-152h53q104 0 150.5 51T291 55v367q0 86 54.5 153T483 664q-84 22-138 86.5T291 901v367q0 105-46.5 156T94 1475H41v86h53q139 0 215-76.5t76-216.5V901q0-81 61-130.5T596 711v-97q-88-8-149.5-59T385 422V55q0-140-76-216.5T94-238H41v86z"/><glyph unicode="~" horiz-adv-x="1269" d="M170 614q63 61 125.5 93T436 739q35 0 73.5-9.5t63.5-19 68-28.5q124-59 195-59 58 0 103.5 22t94.5 66l66-74q-64-62-125.5-94.5T836 510q-35 0-73.5 10T699 540.5 631 571q-45 21-65.5 30.5t-60 20.5-71.5 11q-57 0-103-24t-95-70z"/><glyph unicode="¡" horiz-adv-x="628" d="M207 879v155h155V879H207zm12-899l29 589h69l29-589v-398H219v398z"/><glyph unicode="¢" d="M176 715q0 137 31.5 239.5T315 1133q104 104 254 118v201h84v-201q150-12 247-113t108-255H901q-11 108-77.5 182T653 1151V281q106 12 173.5 88T905 553h107q-11-152-109-257T653 178V0h-84v180q-149 14-254 119-76 76-107.5 177.5T176 715zm105 0q0-115 22.5-201T389 362q66-69 180-81v870q-109-11-180-86-64-66-86-150.5T281 715z"/><glyph unicode="£" horiz-adv-x="1183" d="M104 713v92h170v237q0 205 106.5 308.5T657 1454q88 0 159.5-31.5t116-84 68-118T1024 1085h-98q0 116-71 195.5T651 1360q-274 0-274-322V805h373v-92H377V291q0-149-96-187v-4h497q111 0 167 61.5t59 157.5h96q-3-152-90.5-235.5T778 0H109v113q165 13 165 188v412H104z"/><glyph unicode="¤" d="M195 63l163 144Q246 338 246 518q0 177 106 305L195 961l81 81 138-159q121 100 284 100 160 0 285-100l135 159 82-81-158-138q109-131 109-305 0-179-113-311l162-144-82-79-141 163Q853 51 698 51q-160 0-280 96L276-16zm147 455q0-155 101.5-265T698 143t255 110 102 265-102 264-255 109-254.5-109T342 518z"/><glyph unicode="¥" d="M31 1423h112l435-757 432 757h106L674 649h338v-82H627l-2-4V356h387v-84H625V0H522v272H178v84h344v207l-2 4H178v82h295z"/><glyph unicode="¦" horiz-adv-x="540" d="M221-102v651h98v-651h-98zm0 999v657h98V897h-98z"/><glyph unicode="§" horiz-adv-x="1116" d="M150 643q0 77 45 152.5T324 920q-97 106-97 223 0 125 92 217 101 96 246 96 154 0 250-96 100-103 100-262H809q0 123-72 198-64 64-172 64-101 0-164-57-69-59-69-154 0-110 100-197l422-368q64-57 93.5-122.5T977 311q0-77-45-152T803 35q96-105 96-223 0-126-92-218-101-96-246-96-154 0-250 96-100 103-100 267h106q0-128 72-203 64-64 172-64 100 0 164 58 70 60 70 153Q795-86 694 2L272 371q-64 57-93 122t-29 150zm96 10q0-66 20.5-112.5T338 449L737 98q66 35 105 90t39 113q0 66-21 113t-72 92L389 856q-66-35-104.5-90T246 653z"/><glyph unicode="¨" horiz-adv-x="595" d="M47 1276v129h123v-129H47zm377 0v129h125v-129H424z"/><glyph unicode="©" horiz-adv-x="1802" d="M150 725q0 123 37.5 239t107 209T456 1336t207 108.5 238 38.5 238-38.5 207.5-108.5 162-163 107-209 37.5-239-37.5-239-107-209-162-163T1139 5.5 901-33 663 5.5 456 114 294.5 277t-107 209T150 725zm98 0q0-182 86-335t236.5-242T901 59t330.5 89T1468 390t86 335-86 335.5-236.5 243T901 1393t-330.5-89.5-236.5-243T248 725zm299-4q0 114 39.5 205.5t124 149T913 1133q132 0 225-81.5T1241 831h-104q-7 93-69 148t-155 55q-132 0-196-86.5T653 721t64-225.5T913 410q93 0 155 54.5t69 147.5h104q-10-139-103-220t-225-81q-118 0-202.5 56.5t-124 148T547 721z"/><glyph unicode="ª" horiz-adv-x="1003" d="M147 870q0 102 70.5 164t188.5 70l286 20v74q0 91-55 133.5T487 1374q-94 0-152.5-44T270 1202h-82q7 118 89 184t210 66q57 0 107-13t95-46.5 65-85.5q20-54 20-150V803q0-44 12-64t48-20q12 0 22 2v-72q-20-4-39-4-121 0-125 143-30-68-104.5-113.5T420 629q-119 0-196 64t-77 177zm84 0q0-81 53-123t142-42q68 0 121 27t83.5 72.5 46 98.5 15.5 111v35l-280-17q-86-4-133.5-47.5T231 870z"/><glyph unicode="«" horiz-adv-x="1073" d="M113 596l331 448 68-51-279-397 279-395-68-54zm426 0l331 448 70-51-281-397 281-395-70-54z"/><glyph unicode="¬" horiz-adv-x="1269" d="M129 571v95h950V244h-96v327H129z"/><glyph unicode="­" horiz-adv-x="886" d="M154 571v95h579v-95H154z"/><glyph unicode="®" horiz-adv-x="1802" d="M150 725q0 123 37.5 239t107 209T456 1336t207 108.5 238 38.5 238-38.5 207.5-108.5 162-163 107-209 37.5-239-37.5-239-107-209-162-163T1139 5.5 901-33 663 5.5 456 114 294.5 277t-107 209T150 725zm98 0q0-182 86-335t236.5-242T901 59t330.5 89T1468 390t86 335-86 335.5-236.5 243T901 1393t-330.5-89.5-236.5-243T248 725zm405-397v805h281q127 0 197.5-74t70.5-180q0-77-40-139.5T1047 649l147-321h-111L948 629H750V328h-97zm97 399h182q86 0 129 45t43 109-42 108.5-128 44.5H750V727z"/><glyph unicode="¯" horiz-adv-x="606" d="M35 1262v96h536v-96H35z"/><glyph unicode="°" horiz-adv-x="976" d="M150 1141q0 140 100 240t239 100 238.5-100 99.5-240-99.5-240T489 801 250 901t-100 240zm94 0q0-105 70.5-177.5T489 891t174 72.5 70 177.5-70 177.5-174 72.5-174.5-72.5T244 1141z"/><glyph unicode="±" horiz-adv-x="1167" d="M150 0v90h868V0H150zm0 721v90h387v391h96V811h385v-90H633V317h-96v404H150z"/><glyph unicode="²" horiz-adv-x="841" d="M150 1206q0 109 72.5 184.5T414 1466q106 0 180-59t74-164q0-38-12-72t-38-67-45.5-53-56.5-54L307 807h385v-88H160l-2 76 321 292q43 39 66.5 76t23.5 80q0 63-44.5 98T414 1376q-80 0-122-47t-42-123H150z"/><glyph unicode="³" horiz-adv-x="860" d="M150 948h94q6-82 55.5-127T432 776q112 0 156 55 28 36 28 89 0 56-40.5 90T459 1044h-62v86h62q69 0 104 31t35 86q0 48-35 88-44 47-127 47t-130.5-41-51.5-122h-96q9 116 85 181.5t193 65.5q136 0 209-82 51-58 51-131 0-54-30-101.5t-80-64.5q62-21 93.5-67T711 913q0-74-39-125-68-98-240-98-110 0-191.5 68.5T150 948z"/><glyph unicode="´" horiz-adv-x="497" d="M72 1212l323 238 58-90-347-203z"/><glyph unicode="¶" horiz-adv-x="1380" d="M154 1083q0 151 106 259t256 108h690v-98h-205V-256H901v1608H616V-256H516v977q-151 0-256.5 105.5T154 1083z"/><glyph unicode="·" horiz-adv-x="581" d="M184 522v185h181V522H184z"/><glyph unicode="¸" horiz-adv-x="356" d="M55-395l148 276h96L164-446z"/><glyph unicode="¹" horiz-adv-x="636" d="M129 1186v110l205 156h92V707h-96v630z"/><glyph unicode="º" horiz-adv-x="1003" d="M166 1038q0 105 24 183.5t82 136.5q92 92 232 92 137 0 229-92 107-107 107-320 0-212-107-319-92-92-229-92-140 0-232 92-58 58-82 136t-24 183zm84 0q0-88 16-151.5T330 774q62-65 174-65 108 0 170 65 48 50 65 113.5t17 150.5-17 151-65 114q-64 67-170 67-110 0-174-67-48-49-64-113t-16-152z"/><glyph unicode="»" horiz-adv-x="1073" d="M133 201l281 395-281 397 70 51 329-448-329-449zm426 0l281 395-281 397 70 51 332-448-332-449z"/><glyph unicode="¼" horiz-adv-x="1738" d="M211 1186v110l205 156h92V707h-96v630zM315 31l1059 1442 74-52L387-25zm666 135v100l322 494h110l-334-504h283v170h96V256h131v-90h-131V0h-96v166H981z"/><glyph unicode="½" horiz-adv-x="1882" d="M201 1186v110l205 156h92V707h-97v630zM309 31l1059 1442 74-52L381-25zm801 456q0 110 72.5 186.5T1374 750q106 0 180-59.5t74-164.5q0-50-24.5-97.5t-51.5-76-75-71.5L1266 90h385V0h-533v76l320 295q29 28 46 47t31.5 48.5T1530 526q0 63-44.5 97T1374 657q-80 0-123-47.5T1208 487h-98z"/><glyph unicode="¾" horiz-adv-x="1824" d="M156 948h94q6-82 55.5-127T438 776q112 0 156 55 29 37 29 89 0 56-41 90t-117 34h-62v86h62q69 0 104 31t35 86q0 48-35 88-44 47-127 47t-130.5-41-51.5-122h-96q9 116 85 181.5t193 65.5q136 0 209-82 51-58 51-131 0-54-30-101.5t-80-64.5q62-21 93.5-67T717 913q0-74-39-125-68-98-240-98-110 0-191.5 68.5T156 948zM408 31l1058 1442 74-52L479-25zm659 135v100l322 494h110l-334-504h283v170h96V256h131v-90h-131V0h-96v166h-381z"/><glyph unicode="¿" horiz-adv-x="999" d="M61-78q0 224 218 365 104 66 135.5 128.5T446 606h107q0-157-47-239.5T324 193Q176 93 176-72q0-126 82.5-201T473-348q159 0 245.5 84.5T805-23h113q0-194-123-312T473-453q-190 0-307 123Q61-220 61-78zm357 950v160h162V872H418z"/><glyph unicode="À" horiz-adv-x="1245" d="M16 0l551 1452h105L1229 0h-109L973 383H270L127 0H16zm293 483h625l-316 822zm101 1346l59 96 338-252-37-59z"/><glyph unicode="Á" horiz-adv-x="1245" d="M16 0l551 1452h105L1229 0h-109L973 383H270L127 0H16zm293 483h625l-316 822zm105 1145l323 238 58-90-346-203z"/><glyph unicode="Â" horiz-adv-x="1245" d="M16 0l551 1452h105L1229 0h-109L973 383H270L127 0H16zm293 483h625l-316 822zm15 1135l256 293h67l256-293-63-55-228 268-225-268z"/><glyph unicode="Ã" horiz-adv-x="1245" d="M16 0l551 1452h105L1229 0h-109L973 383H270L127 0H16zm281 1720q47 43 86.5 65.5T473 1808q54 0 139-44t127-44q58 0 117 52l49-56q-90-86-174-86-53 0-141 44t-131 44q-55 0-113-51zm12-1237h625l-316 822z"/><glyph unicode="Ä" horiz-adv-x="1245" d="M16 0l551 1452h105L1229 0h-109L973 383H270L127 0H16zm293 483h625l-316 822zm56 1141v129h122v-129H365zm376 0v129h125v-129H741z"/><glyph unicode="Å" horiz-adv-x="1245" d="M16 0l527 1389q-68 24-109 81.5T393 1604q0 97 62.5 160t167.5 63 167-63 62-160q0-78-43.5-137T696 1386L1229 0h-109L973 383H270L127 0H16zm293 483h625l-316 822zm166 1119q0-63 41-106.5t107-43.5 106.5 43.5T770 1602t-40.5 107-106.5 44-107-44-41-107z"/><glyph unicode="Æ" horiz-adv-x="1816" d="M0 0l643 1452h1063v-98H993V825h611V725H993V100h713V0H889v406H291L115 0H0zm336 504h553v850H707z"/><glyph unicode="Ç" horiz-adv-x="1275" d="M119 727q0 92 5 160.5t21 152 52 154.5 92 127q75 75 176.5 116.5T672 1479q214 0 356-133.5t160-337.5h-111q-14 163-124.5 264.5T672 1374q-183 0-305-125-47-48-76.5-111t-42-139-16-133-3.5-139q0-80 4-139t16.5-134.5 42.5-139T369 203Q491 78 672 78q170 0 280.5 101.5T1077 444h111q-18-204-160-337.5T672-27q-105 0-206.5 41.5T289 131q-56 56-92 127.5t-52 155-21 152-5 161.5zM500-375L647-98h96L608-426z"/><glyph unicode="È" horiz-adv-x="1261" d="M221 0v1452h930v-102H330V817h723V715H330V102h821V0H221zm256 1778l55 90 324-238-35-55z"/><glyph unicode="É" horiz-adv-x="1261" d="M221 0v1452h930v-102H330V817h723V715H330V102h821V0H221zm264 1628l324 238 57-90-346-203z"/><glyph unicode="Ê" horiz-adv-x="1261" d="M221 0v1452h930v-102H330V817h723V715H330V102h821V0H221zm162 1628l256 293h68l256-293-64-55-227 268-226-268z"/><glyph unicode="Ë" horiz-adv-x="1261" d="M221 0v1452h930v-102H330V817h723V715H330V102h821V0H221zm201 1665v129h123v-129H422zm377 0v129h125v-129H799z"/><glyph unicode="Ì" horiz-adv-x="550" d="M68 1767l55 91 323-238-34-55zM221 0v1452h109V0H221z"/><glyph unicode="Í" horiz-adv-x="550" d="M82 1628l324 238 57-90-346-203zM221 0v1452h109V0H221z"/><glyph unicode="Î" horiz-adv-x="550" d="M-10 1618l256 293h67l256-293-63-55-227 268-226-268zM221 0v1452h109V0H221z"/><glyph unicode="Ï" horiz-adv-x="550" d="M70 1669v129h123v-129H70zM221 0v1452h109V0H221zm131 1669v129h125v-129H352z"/><glyph unicode="Ð" horiz-adv-x="1394" d="M96 711v86h156v655h481q111 0 205-38.5t162-104.5q57-55 94.5-124.5t54-151 22-149T1276 727t-5.5-158-22-149.5-54-151.5-94.5-125q-68-66-162-104.5T733 0H252v711H96zm262-607h375q82 0 158 28.5t131 80.5q48 47 79 108.5t44.5 135 17.5 132 4 138.5-4 138-17.5 132-44.5 135-79 107q-55 52-131 80.5T733 1348H358V797h349v-86H358V104z"/><glyph unicode="Ñ" horiz-adv-x="1511" d="M221 0v1452h121l844-1284v1284h104V0h-121L328 1286V0H221zm236 1663q45 41 82.5 62.5T625 1747q52 0 133-42t121-42q57 0 110 47l49-51q-46-40-83.5-61t-84.5-21q-49 0-133 42t-127 42q-52 0-106-47z"/><glyph unicode="Ò" horiz-adv-x="1347" d="M119 727q0 72 3 129t14 127.5 30 127.5 53.5 115.5T301 1331q155 148 373 148t373-148q47-46 81.5-104.5T1182 1111t30-127.5 14-127.5 3-129-3-129-14-128-30-128.5-53.5-116T1047 121Q892-27 674-27T301 121q-47 46-81.5 104.5t-53.5 116T136 470t-14 128-3 129zm110 0q0-82 4-140.5T250 449t45.5-144.5T379 190Q494 78 674 78t295 112q41 39 70 93t44 104 23.5 117.5 10 112.5 1.5 110-1.5 110-10 112-23.5 116.5-44 103.5-70 93q-115 112-295 112t-295-112q-51-49-83.5-114T250 1004t-17-137-4-140zm244 1051l55 90 324-238-35-55z"/><glyph unicode="Ó" horiz-adv-x="1347" d="M119 727q0 72 3 129t14 127.5 30 127.5 53.5 115.5T301 1331q155 148 373 148t373-148q47-46 81.5-104.5T1182 1111t30-127.5 14-127.5 3-129-3-129-14-128-30-128.5-53.5-116T1047 121Q892-27 674-27T301 121q-47 46-81.5 104.5t-53.5 116T136 470t-14 128-3 129zm110 0q0-82 4-140.5T250 449t45.5-144.5T379 190Q494 78 674 78t295 112q41 39 70 93t44 104 23.5 117.5 10 112.5 1.5 110-1.5 110-10 112-23.5 116.5-44 103.5-70 93q-115 112-295 112t-295-112q-51-49-83.5-114T250 1004t-17-137-4-140zm242 911l324 238 57-90-346-203z"/><glyph unicode="Ô" horiz-adv-x="1347" d="M119 727q0 72 3 129t14 127.5 30 127.5 53.5 115.5T301 1331q155 148 373 148t373-148q47-46 81.5-104.5T1182 1111t30-127.5 14-127.5 3-129-3-129-14-128-30-128.5-53.5-116T1047 121Q892-27 674-27T301 121q-47 46-81.5 104.5t-53.5 116T136 470t-14 128-3 129zm110 0q0-82 4-140.5T250 449t45.5-144.5T379 190Q494 78 674 78t295 112q41 39 70 93t44 104 23.5 117.5 10 112.5 1.5 110-1.5 110-10 112-23.5 116.5-44 103.5-70 93q-115 112-295 112t-295-112q-51-49-83.5-114T250 1004t-17-137-4-140zm142 891l256 293h67l256-293-63-55-228 268-225-268z"/><glyph unicode="Õ" horiz-adv-x="1347" d="M119 727q0 72 3 129t14 127.5 30 127.5 53.5 115.5T301 1331q155 148 373 148t373-148q47-46 81.5-104.5T1182 1111t30-127.5 14-127.5 3-129-3-129-14-128-30-128.5-53.5-116T1047 121Q892-27 674-27T301 121q-47 46-81.5 104.5t-53.5 116T136 470t-14 128-3 129zm110 0q0-82 4-140.5T250 449t45.5-144.5T379 190Q494 78 674 78t295 112q41 39 70 93t44 104 23.5 117.5 10 112.5 1.5 110-1.5 110-10 112-23.5 116.5-44 103.5-70 93q-115 112-295 112t-295-112q-51-49-83.5-114T250 1004t-17-137-4-140zm123 991q47 44 85.5 66t88.5 22q54 0 140-44t127-44q60 0 116 49l52-53q-93-86-177-86-51 0-139 44t-133 44q-55 0-113-51z"/><glyph unicode="Ö" horiz-adv-x="1347" d="M119 727q0 72 3 129t14 127.5 30 127.5 53.5 115.5T301 1331q155 148 373 148t373-148q47-46 81.5-104.5T1182 1111t30-127.5 14-127.5 3-129-3-129-14-128-30-128.5-53.5-116T1047 121Q892-27 674-27T301 121q-47 46-81.5 104.5t-53.5 116T136 470t-14 128-3 129zm110 0q0-82 4-140.5T250 449t45.5-144.5T379 190Q494 78 674 78t295 112q41 39 70 93t44 104 23.5 117.5 10 112.5 1.5 110-1.5 110-10 112-23.5 116.5-44 103.5-70 93q-115 112-295 112t-295-112q-51-49-83.5-114T250 1004t-17-137-4-140zm183 901v129h123v-129H412zm376 0v129h125v-129H788z"/><glyph unicode="×" horiz-adv-x="1382" d="M150 129l479 479-479 477 63 64 477-477 479 477 64-64-479-477 479-479-64-63-479 479L213 66z"/><glyph unicode="Ø" horiz-adv-x="1347" d="M119 727q0 72 3 129t14 127.5 30 127.5 53.5 115.5T301 1331q155 148 373 148 144 0 260-66l72 160 79-37-77-172q21-15 39-33 47-46 81.5-104.5T1182 1111t30-127.5 14-127.5 3-129-3-129-14-128-30-128.5-53.5-116T1047 121Q892-27 674-27q-139 0-260 64l-80-178-80 35 86 192q-28 24-39 35-47 46-81.5 104.5t-53.5 116T136 470t-14 128-3 129zm110 0q0-66 1.5-110.5T240 504t23-117.5T307.5 283t71.5-93l6-6 506 1135q-94 55-217 55-180 0-295-112-51-49-83.5-114T250 1004t-17-137-4-140zm228-594q94-55 217-55 180 0 295 112 41 39 70 93t44 104 23.5 117.5 10 112.5 1.5 110-1.5 110-10 112-23.5 116.5-44 103.5-70 93l-4 4z"/><glyph unicode="Ù" horiz-adv-x="1419" d="M195 532v920h106V530q0-97 24-178t72.5-143.5 128-97.5T709 76t183.5 35 128 97.5 73 143.5 24.5 178v922h107V532q0-121-32-222t-95-177T935.5 15 709-27 482.5 15 321 133t-94 177-32 222zm282 1235l55 91 324-238-35-55z"/><glyph unicode="Ú" horiz-adv-x="1419" d="M195 532v920h106V530q0-97 24-178t72.5-143.5 128-97.5T709 76t183.5 35 128 97.5 73 143.5 24.5 178v922h107V532q0-121-32-222t-95-177T935.5 15 709-27 482.5 15 321 133t-94 177-32 222zm325 1096l324 238 57-90-346-203z"/><glyph unicode="Û" horiz-adv-x="1419" d="M195 532v920h106V530q0-97 24-178t72.5-143.5 128-97.5T709 76t183.5 35 128 97.5 73 143.5 24.5 178v922h107V532q0-121-32-222t-95-177T935.5 15 709-27 482.5 15 321 133t-94 177-32 222zm217 1086l256 293h67l256-293-63-55-228 268-225-268z"/><glyph unicode="Ü" horiz-adv-x="1419" d="M195 532v920h106V530q0-97 24-178t72.5-143.5 128-97.5T709 76t183.5 35 128 97.5 73 143.5 24.5 178v922h107V532q0-121-32-222t-95-177T935.5 15 709-27 482.5 15 321 133t-94 177-32 222zm264 1094v129h123v-129H459zm377 0v129h125v-129H836z"/><glyph unicode="Ý" horiz-adv-x="1116" d="M4 1452h115l442-772 443 772h108L610 575V0H506v575zm371 156l323 237 58-90-346-203z"/><glyph unicode="Þ" horiz-adv-x="1224" d="M221 0v1452h107v-285h360q219 0 349-108t130-320-130.5-321T688 309H328V0H221zm107 414h360q169 0 269 80.5T1057 739q0 163-100 243.5T688 1063H328V414z"/><glyph unicode="ß" horiz-adv-x="1214" d="M57 926v98h183v35q0 189 103.5 306.5T633 1483q165 0 277-101.5t112-263.5q0-97-48.5-185.5T838 815q134-34 210-141.5t76-247.5q0-196-131-317T664-12q-76 0-152 12v98q82-10 143-10 159 0 260 88.5T1016 420q0 162-99.5 247T651 752h-82v100h82q132 0 198 72t66 196q0 119-83.5 191.5T633 1384q-144 0-217.5-89.5T342 1059V0H240v926H57z"/><glyph unicode="à" horiz-adv-x="1148" d="M119 289q0 134 94 214t250 91l377 27v100q0 121-73 177t-198 56q-127 0-207.5-57.5T274 729H172q10 152 119 237t278 85q75 0 140-17t122.5-61T915 862q27-68 27-196V199q0-59 15.5-85t64.5-26q19 0 29 2V0q-37-6-50-6-161 0-161 201Q800 90 697.5 31.5T471-27q-153 0-252.5 85.5T119 289zm104 0q0-106 71.5-163.5T479 68q93 0 164.5 35t113 94T819 326t21 147v53l-367-22q-115-8-182.5-65T223 289zm152 1079l57 90 324-239-35-56z"/><glyph unicode="á" horiz-adv-x="1148" d="M119 289q0 134 94 214t250 91l377 27v100q0 121-73 177t-198 56q-127 0-207.5-57.5T274 729H172q10 152 119 237t278 85q75 0 140-17t122.5-61T915 862q27-68 27-196V199q0-59 15.5-85t64.5-26q19 0 29 2V0q-37-6-50-6-161 0-161 201Q800 90 697.5 31.5T471-27q-153 0-252.5 85.5T119 289zm104 0q0-106 71.5-163.5T479 68q93 0 164.5 35t113 94T819 326t21 147v53l-367-22q-115-8-182.5-65T223 289zm146 932l323 237 58-90-347-203z"/><glyph unicode="â" horiz-adv-x="1148" d="M119 289q0 134 94 214t250 91l377 27v100q0 121-73 177t-198 56q-127 0-207.5-57.5T274 729H172q10 152 119 237t278 85q75 0 140-17t122.5-61T915 862q27-68 27-196V199q0-59 15.5-85t64.5-26q19 0 29 2V0q-37-6-50-6-161 0-161 201Q800 90 697.5 31.5T471-27q-153 0-252.5 85.5T119 289zm104 0q0-106 71.5-163.5T479 68q93 0 164.5 35t113 94T819 326t21 147v53l-367-22q-115-8-182.5-65T223 289zm60 917l256 293h67l256-293-63-55-228 268-225-268z"/><glyph unicode="ã" horiz-adv-x="1148" d="M119 289q0 134 94 214t250 91l377 27v100q0 121-73 177t-198 56q-127 0-207.5-57.5T274 729H172q10 152 119 237t278 85q75 0 140-17t122.5-61T915 862q27-68 27-196V199q0-59 15.5-85t64.5-26q19 0 29 2V0q-37-6-50-6-161 0-161 201Q800 90 697.5 31.5T471-27q-153 0-252.5 85.5T119 289zm104 0q0-106 71.5-163.5T479 68q93 0 164.5 35t113 94T819 326t21 147v53l-367-22q-115-8-182.5-65T223 289zm39 1040q45 41 82.5 62.5T430 1413q52 0 133-42t121-42q58 0 111 47l49-51q-46-40-83.5-61t-84.5-21q-49 0-133 42t-127 42q-53 0-107-47z"/><glyph unicode="ä" horiz-adv-x="1148" d="M119 289q0 134 94 214t250 91l377 27v100q0 121-73 177t-198 56q-127 0-207.5-57.5T274 729H172q10 152 119 237t278 85q75 0 140-17t122.5-61T915 862q27-68 27-196V199q0-59 15.5-85t64.5-26q19 0 29 2V0q-37-6-50-6-161 0-161 201Q800 90 697.5 31.5T471-27q-153 0-252.5 85.5T119 289zm104 0q0-106 71.5-163.5T479 68q93 0 164.5 35t113 94T819 326t21 147v53l-367-22q-115-8-182.5-65T223 289zm101 987v129h122v-129H324zm376 0v129h125v-129H700z"/><glyph unicode="å" horiz-adv-x="1148" d="M119 289q0 134 94 214t250 91l377 27v100q0 121-73 177t-198 56q-127 0-207.5-57.5T274 729H172q10 152 119 237t278 85q75 0 140-17t122.5-61T915 862q27-68 27-196V199q0-59 15.5-85t64.5-26q19 0 29 2V0q-37-6-50-6-161 0-161 201Q800 90 697.5 31.5T471-27q-153 0-252.5 85.5T119 289zm104 0q0-106 71.5-163.5T479 68q93 0 164.5 35t113 94T819 326t21 147v53l-367-22q-115-8-182.5-65T223 289zm121 1083q0 94 59 154.5t160 60.5 160-60.5 59-154.5-63.5-154.5T563 1157t-155.5 60.5T344 1372zm78 0q0-60 39-101.5t102-41.5 101 41.5 38 101.5q0 61-38 102.5T563 1516t-102-42-39-102z"/><glyph unicode="æ" horiz-adv-x="1744" d="M119 287q0 129 98.5 215T465 588h344v133q0 110-69.5 171.5T545 954q-121 0-196.5-59.5T266 723H164q11 152 112.5 240t268.5 88q109 0 206-48t136-139q107 187 342 187 164 0 270-103 143-137 143-420v-34H913v-48q0-105 34-188.5T1056 121t181-53q114 0 186.5 62t94.5 177h104q-26-155-128.5-244.5T1237-27q-140 0-234.5 69T860 233Q814 112 710.5 46T465-20q-150 0-248 83.5T119 287zm102 0q0-102 70-156.5T469 76q160 0 250 104t90 258v56H471q-110 0-180-58t-70-149zm697 301h620q-3 192-106 289-84 77-203 77-152 0-230.5-100.5T918 588z"/><glyph unicode="ç" horiz-adv-x="1048" d="M115 512q0 136 33 238.5T258 930q121 121 301 121 159 0 267.5-95T954 705H848q-18 108-96 176.5T559 950q-142 0-227-88-64-67-88.5-152.5T219 512t24.5-198.5T332 160q83-86 227-86 115 0 193.5 71T850 324h108Q937 172 827 72.5T559-27Q379-27 258 94q-77 77-110 179.5T115 512zm286-897L555-98h98L514-438z"/><glyph unicode="è" horiz-adv-x="1103" d="M115 508q0 228 100 364 132 179 348 179 133 0 234.5-71T950 797.5t51-242.5q0-13-1-34t-1-34H217q3-184 107-307Q415 72 571 72q137 0 224 90 61 64 77 145h107Q959 184 864 92 745-27 571-27q-196 0-325 146-131 153-131 389zm104 74h678q-3 154-93.5 263T563 954q-154 0-249-107.5T219 582zm156 788l57 90 324-237-35-56z"/><glyph unicode="é" horiz-adv-x="1103" d="M115 508q0 228 100 364 132 179 348 179 133 0 234.5-71T950 797.5t51-242.5q0-13-1-34t-1-34H217q3-184 107-307Q415 72 571 72q137 0 224 90 61 64 77 145h107Q959 184 864 92 745-27 571-27q-196 0-325 146-131 153-131 389zm104 74h678q-3 154-93.5 263T563 954q-154 0-249-107.5T219 582zm158 635l323 237 58-90-346-203z"/><glyph unicode="ê" horiz-adv-x="1103" d="M115 508q0 228 100 364 132 179 348 179 133 0 234.5-71T950 797.5t51-242.5q0-13-1-34t-1-34H217q3-184 107-307Q415 72 571 72q137 0 224 90 61 64 77 145h107Q959 184 864 92 745-27 571-27q-196 0-325 146-131 153-131 389zm104 74h678q-3 154-93.5 263T563 954q-154 0-249-107.5T219 582zm60 624l256 293h67l256-293-63-55-228 268-225-268z"/><glyph unicode="ë" horiz-adv-x="1103" d="M115 508q0 228 100 364 132 179 348 179 133 0 234.5-71T950 797.5t51-242.5q0-13-1-34t-1-34H217q3-184 107-307Q415 72 571 72q137 0 224 90 61 64 77 145h107Q959 184 864 92 745-27 571-27q-196 0-325 146-131 153-131 389zm104 74h678q-3 154-93.5 263T563 954q-154 0-249-107.5T219 582zm98 694v129h123v-129H317zm377 0v129h125v-129H694z"/><glyph unicode="ì" horiz-adv-x="532" d="M49 1427l57 91 324-238-35-55zM213 0v1024h106V0H213z"/><glyph unicode="í" horiz-adv-x="532" d="M88 1280l324 238 57-91-346-202zM213 0v1024h106V0H213z"/><glyph unicode="î" horiz-adv-x="532" d="M-25 1255l256 293h68l258-293-63-55-228 268-225-268zM213 0v1024h106V0H213z"/><glyph unicode="ï" horiz-adv-x="532" d="M53 1325v129h123v-129H53zM213 0v1024h106V0H213zm135 1325v129h127v-129H348z"/><glyph unicode="ð" horiz-adv-x="1110" d="M115 512q0 138 31.5 240T254 930q121 121 301 121 78 0 154-27l-115 201H338v82h209l-98 172h116l97-172h206v-82H709l227-404v-2q59-118 59-307 0-138-31.5-240T856 94Q735-27 555-27T254 94q-76 76-107.5 178T115 512zm104 0q0-114 22.5-200T328 160q83-86 227-86t227 86q64 66 86.5 152T891 512t-22.5 199T782 862q-85 88-227 88t-227-88q-64-66-86.5-151T219 512z"/><glyph unicode="ñ" horiz-adv-x="1193" d="M203 0v1024h90l12-186q42 95 139.5 154t206.5 59q174 0 267.5-100t93.5-275V0H909v670q0 280-264 280-73 0-132-24.5t-97-66-63.5-98.5T316 642.5 305 512V0H203zm102 1335q45 41 82.5 62.5T473 1419q52 0 133-42t121-42q58 0 111 47l49-51q-46-40-83.5-61t-84.5-21q-49 0-133 42t-127 42q-53 0-107-47z"/><glyph unicode="ò" horiz-adv-x="1118" d="M115 512q0 271 145 416 123 123 299 123t299-123q146-146 146-416T858 96Q735-27 559-27T260 96Q115 241 115 512zm104 0q0-110 25-195.5T334 164q87-90 225-90t225 90q65 67 90 152.5T899 512t-25 195.5T784 860q-87 90-225 90t-225-90q-65-67-90-152.5T219 512zm141 852l56 90 323-237-34-56z"/><glyph unicode="ó" horiz-adv-x="1118" d="M115 512q0 271 145 416 123 123 299 123t299-123q146-146 146-416T858 96Q735-27 559-27T260 96Q115 241 115 512zm104 0q0-110 25-195.5T334 164q87-90 225-90t225 90q65 67 90 152.5T899 512t-25 195.5T784 860q-87 90-225 90t-225-90q-65-67-90-152.5T219 512zm164 707l324 237 57-90-346-203z"/><glyph unicode="ô" horiz-adv-x="1118" d="M115 512q0 271 145 416 123 123 299 123t299-123q146-146 146-416T858 96Q735-27 559-27T260 96Q115 241 115 512zm104 0q0-110 25-195.5T334 164q87-90 225-90t225 90q65 67 90 152.5T899 512t-25 195.5T784 860q-87 90-225 90t-225-90q-65-67-90-152.5T219 512zm53 694l256 293h68l256-293-64-55-227 268-225-268z"/><glyph unicode="õ" horiz-adv-x="1118" d="M115 512q0 271 145 416 123 123 299 123t299-123q146-146 146-416T858 96Q735-27 559-27T260 96Q115 241 115 512zm104 0q0-110 25-195.5T334 164q87-90 225-90t225 90q65 67 90 152.5T899 512t-25 195.5T784 860q-87 90-225 90t-225-90q-65-67-90-152.5T219 512zm51 836q45 41 82.5 62.5T438 1432q52 0 133-42t121-42q55 0 111 49l49-54q-90-79-168-79-49 0-133 41t-127 41q-52 0-107-48z"/><glyph unicode="ö" horiz-adv-x="1118" d="M115 512q0 271 145 416 123 123 299 123t299-123q146-146 146-416T858 96Q735-27 559-27T260 96Q115 241 115 512zm104 0q0-110 25-195.5T334 164q87-90 225-90t225 90q65 67 90 152.5T899 512t-25 195.5T784 860q-87 90-225 90t-225-90q-65-67-90-152.5T219 512zm90 764v129h123v-129H309zm377 0v129h125v-129H686z"/><glyph unicode="÷" horiz-adv-x="1337" d="M170 567v95h997v-95H170zm412-467v170h161V100H582zm0 867v172h161V967H582z"/><glyph unicode="ø" horiz-adv-x="1118" d="M115 512q0 271 145 416 123 123 299 123 108 0 193-45l75 170 76-33-82-182q24-20 37-33 146-146 146-416T858 96Q735-27 559-27q-92 0-170 35l-74-166-73 33 77 172q-26 16-59 49-145 145-145 416zm104 0q0-110 25-195.5T334 164q21-21 26-25l351 776q-65 35-152 35-138 0-225-90-65-67-90-152.5T219 512zM430 98q56-24 129-24 138 0 225 90 65 67 90 152.5T899 512q0 112-24.5 197T784 860l-6 6z"/><glyph unicode="ù" horiz-adv-x="1193" d="M182 350v676h103V356q0-280 264-280 73 0 132 24.5t97 66 63.5 98.5T878 383.5 889 514v512h102V2h-90l-12 186Q847 92 750 33.5T543-25Q369-25 275.5 75T182 350zm199 1014l57 90 324-237-35-56z"/><glyph unicode="ú" horiz-adv-x="1193" d="M182 350v676h103V356q0-280 264-280 73 0 132 24.5t97 66 63.5 98.5T878 383.5 889 514v512h102V2h-90l-12 186Q847 92 750 33.5T543-25Q369-25 275.5 75T182 350zm234 867l323 237 58-90-346-203z"/><glyph unicode="û" horiz-adv-x="1193" d="M182 350v676h103V356q0-280 264-280 73 0 132 24.5t97 66 63.5 98.5T878 383.5 889 514v512h102V2h-90l-12 186Q847 92 750 33.5T543-25Q369-25 275.5 75T182 350zm101 856l256 293h67l256-293-63-55-228 268-225-268z"/><glyph unicode="ü" horiz-adv-x="1193" d="M182 350v676h103V356q0-280 264-280 73 0 132 24.5t97 66 63.5 98.5T878 383.5 889 514v512h102V2h-90l-12 186Q847 92 750 33.5T543-25Q369-25 275.5 75T182 350zm150 926v129h123v-129H332zm377 0v129h125v-129H709z"/><glyph unicode="ý" horiz-adv-x="980" d="M33 1024h110l359-909 344 909h110L481-219q-80-209-276-209-36 0-68.5 4.5T90-414l-14 4v86q72-12 125-12 126 0 186 152l66 168zm291 172l323 238 58-91-347-202z"/><glyph unicode="þ" horiz-adv-x="1189" d="M203-412v1889h104V852q45 94 136.5 146.5T643 1051q169 0 285-113 76-74 113.5-184.5T1079 514q0-130-38-242T928 86Q812-27 643-27q-108 0-199.5 52.5T307 172v-584H203zm104 926q0-70 10-131t34.5-119 61.5-99 96-66 134-25q125 0 209 84 62 62 93.5 157T977 514q0 103-31.5 196.5T852 866q-84 84-209 84-93 0-160.5-36T378 814t-54-138-17-162z"/><glyph unicode="ÿ" horiz-adv-x="980" d="M33 1024h110l359-909 344 909h110L481-219q-80-209-276-209-36 0-68.5 4.5T90-414l-14 4v86q72-12 125-12 126 0 186 152l66 168zm213 252v129h123v-129H246zm377 0v129h125v-129H623z"/><glyph unicode="Œ" horiz-adv-x="2150" d="M119 727q0 97 4.5 164t20.5 153.5 53 158.5 96 128q155 148 377 148t377-148q46-46 63-84v205h930v-102h-821V817h723V715h-723V102h821V0h-930v205q-22-43-63-84Q892-27 670-27T293 121q-58 56-95.5 128T144 408t-20.5 154.5T119 727zm110 0q0-72 1-111t8-110.5 21-119T301.5 284t69.5-94q56-55 134.5-83.5T670 78t164.5 28.5T969 190q34 33 59.5 73.5T1069 354t24 89.5 12.5 100.5 4 91 .5 92q0 74-1 111t-8 109.5-20.5 119-42 101.5-69.5 94q-56 55-134.5 83.5T670 1374t-164.5-28.5T371 1262q-34-33-60-73.5t-40.5-90-24-89-13-99.5-4-91.5-.5-91.5z"/><glyph unicode="œ" horiz-adv-x="1867" d="M115 512q0 138 31.5 240T254 930q121 121 301 121t301-121q60-60 90-131 17 36 43 73 132 179 344 179 224 0 346-185 86-128 86-311 0-13-1-34t-1-34H995q0-4-1-13t-1-13q9-171 103-281 91-108 245-108 137 0 218 84 62 66 79 151h107q-20-128-117-221-113-113-287-113-190 0-319 146-44 50-74 112-29-74-92-137Q735-27 555-27T254 94q-76 76-107.5 178T115 512zm104 0q0-114 22.5-200T328 160q83-86 227-86t227 86q64 66 86.5 152T891 512t-22.5 199T782 862q-85 88-227 88t-227-88q-64-66-86.5-151T219 512zm776 70h666q-3 157-86 262-88 110-242 110-157 0-246-110-38-45-65-121t-27-141z"/><glyph unicode="Ÿ" horiz-adv-x="1116" d="M4 1452h115l442-772 443 772h108L610 575V0H506v575zm303 184v129h123v-129H307zm377 0v129h125v-129H684z"/><glyph unicode="ˆ" horiz-adv-x="727" d="M74 1206l256 293h67l256-293-63-55-228 268-225-268z"/><glyph unicode="˜" horiz-adv-x="737" d="M78 1335q45 41 82.5 62.5T246 1419q52 0 133-42t121-42q57 0 110 47l49-51q-30-27-50.5-41.5t-52-27.5-64.5-13q-49 0-133.5 42T231 1333q-52 0-106-47z"/><glyph horiz-adv-x="962"/><glyph horiz-adv-x="1925"/><glyph horiz-adv-x="962"/><glyph horiz-adv-x="1925"/><glyph horiz-adv-x="641"/><glyph horiz-adv-x="481"/><glyph horiz-adv-x="320"/><glyph horiz-adv-x="320"/><glyph horiz-adv-x="240"/><glyph horiz-adv-x="385"/><glyph horiz-adv-x="106"/><glyph unicode="‐" horiz-adv-x="886" d="M154 571v95h579v-95H154z"/><glyph unicode="‑" horiz-adv-x="886" d="M154 571v95h579v-95H154z"/><glyph unicode="‒" horiz-adv-x="886" d="M154 571v95h579v-95H154z"/><glyph unicode="–" horiz-adv-x="1257" d="M154 571v95h950v-95H154z"/><glyph unicode="—" horiz-adv-x="2246" d="M154 571v95h1939v-95H154z"/><glyph unicode="‘" horiz-adv-x="477" d="M143 1036v187q0 177 156 250l35-58q-66-35-90.5-77T219 1221h113v-185H143z"/><glyph unicode="’" horiz-adv-x="436" d="M133 1073q66 35 90.5 77.5T248 1268H135v184h189v-186q0-177-156-250z"/><glyph unicode="‚" horiz-adv-x="497" d="M154-195q65 35 89.5 77T268 0H156v184h188V-2q0-177-156-250z"/><glyph unicode="“" horiz-adv-x="790" d="M143 1053v186q0 177 156 250l35-57q-66-35-90.5-77.5T219 1237h113v-184H143zm334 0v186q0 177 156 250l35-57q-66-35-90.5-77.5T553 1237h113v-184H477z"/><glyph unicode="”" horiz-adv-x="770" d="M133 1073q66 35 90.5 77.5T248 1268H135v184h189v-186q0-177-156-250zm334 0q66 35 90.5 77.5T582 1268H469v184h188v-186q0-177-155-250z"/><glyph unicode="„" horiz-adv-x="821" d="M143-195q66 35 90.5 77.5T258 0H145v184h189V-2q0-177-156-250zm334 0q66 35 90.5 77.5T592 0H479v184h189V-2q0-177-156-250z"/><glyph unicode="•" horiz-adv-x="872" d="M201 598q0 98 68.5 167T436 834t167-69 69-167-69-167-167-69-166.5 69T201 598z"/><glyph unicode="…" horiz-adv-x="1757" d="M205 0v182h176V0H205zm586 0v182h176V0H791zm585 0v182h176V0h-176z"/><glyph horiz-adv-x="385"/><glyph unicode="‹" horiz-adv-x="645" d="M113 596l331 448 68-51-279-397 279-395-68-54z"/><glyph unicode="›" horiz-adv-x="645" d="M133 201l281 395-281 397 70 51 329-448-329-449z"/><glyph horiz-adv-x="481"/><glyph unicode="€" horiz-adv-x="1214" d="M80 526v86h164q-2 33-2 101 0 67 2 100H80v86h172q27 244 172 391 159 162 395 162 205 0 344-98l-39-86q-130 86-305 86-202 0-330-140-106-117-127-315h592l-39-86H356q-2-35-2-102 0-66 2-99h482l-39-86H362q21-198 127-315Q616 72 819 72q175 0 305 86l39-86q-140-99-344-99-238 0-395 160-137 140-172 393H80z"/><glyph unicode="™" horiz-adv-x="1691" d="M55 1370v84h557v-84H377V629h-86v741H55zm733-741v825h130l237-668 236 668h131V629h-86v723l-252-705h-60l-252 705V629h-84z"/><glyph unicode="" horiz-adv-x="1034" d="M0 0v1034h1034V0H0z"/></font>
</defs>
</svg>
