<svg xmlns="http://www.w3.org/2000/svg"><defs><font horiz-adv-x="1159"><font-face units-per-em="2048" ascent="1556" descent="-492"/><glyph unicode="ﬁ" horiz-adv-x="1189" d="M94 930l17 94h204l33 188q21 119 100 191t197 72q76 0 191-35l-17-92q-108 34-176 34-165 0-197-182l-30-176h323l-16-94H399L240 0H135l164 930H94zM768 0l182 1024h109L877 0H768zm213 1309l25 143h143l-25-143H981z"/><glyph unicode="ﬂ" horiz-adv-x="1290" d="M94 930l17 94h204l33 188q21 119 100 191t197 72q76 0 191-35l-17-92q-108 34-176 34-165 0-197-182l-30-176h323l-16-94H399L240 0H135l164 930H94zm764-780q0 37 4 55l223 1274h103L965 209q-4-28-4-41 0-82 94-82 33 0 100 23l-16-97q-58-24-105-24-80 0-128 42.5T858 150z"/><glyph horiz-adv-x="2048"/><glyph horiz-adv-x="2048"/><glyph horiz-adv-x="682"/><glyph horiz-adv-x="436"/><glyph horiz-adv-x="436"/><glyph horiz-adv-x="436"/><glyph horiz-adv-x="436"/><glyph horiz-adv-x="436"/><glyph unicode="!" horiz-adv-x="624" d="M135 0l29 156h155L291 0H135zm123 465l74 590 71 397h132l-72-397-135-590h-70z"/><glyph unicode="&quot;" horiz-adv-x="892" d="M285 887l26 311 45 254h125l-45-254-86-311h-65zm309 0l27 311 45 254h125l-46-254-86-311h-65z"/><glyph unicode="#" horiz-adv-x="1562" d="M115 406l16 92h270l134 428H272l17 92h276l129 405h92l-129-405h443l129 405h94l-129-405h264l-16-92h-279l-133-428h270l-16-92H999L870 0h-92l129 406H465L336 0h-94l129 406H115zm379 92h442l135 428H629z"/><glyph unicode="$" d="M68 438q0 6 1 18.5t1 18.5h100v-29q0-142 80-227t211-108l104 594-94 30q-117 39-189.5 116T209 1047q0 149 96 253 75 80 164 114t201 34h26l33 190h84l-35-202q144-31 238-134t94-255q0-21-2-35h-98v20q0 123-69 201t-181 104l-98-557 88-28q125-40 206.5-127.5T1038 414q0-162-106-271-68-69-168-104T553 4h-27l-32-184h-84l34 192Q239 43 139 190 68 297 68 438zm243 619q0-166 189-226l84-26 94 545h-23q-166 0-266-103-78-81-78-190zm232-955h12q68-1 133.5 17T810 172t90 94.5T934 401q0 92-61.5 156.5T719 653l-74 25z"/><glyph unicode="%" horiz-adv-x="1890" d="M199 1020q0 82 21.5 161t62.5 147 110.5 109.5T551 1479q131 0 207-89t76-221q0-81-22.5-159.5T747 865 635 758t-156-41q-128 0-204 86.5T199 1020zm55-985l1309 1438 61-56L311-25zm37 993q0-101 49.5-160T489 809q64 0 114.5 34t78.5 88.5 42.5 115T739 1167q0 101-49.5 160T541 1386q-64 0-114.5-34t-78.5-88.5-42.5-115T291 1028zm749-752q0 82 21.5 161t63 147 111 109.5T1393 735q131 0 206.5-88.5T1675 426q0-64-13.5-127.5T1619 176t-69.5-104-100-72T1321-27q-129 0-205 86.5T1040 276zm93 9q0-101 49.5-160T1331 66q64 0 114.5 34t78.5 88.5 42.5 115T1581 424q0 101-50 160t-149 59q-64 0-114-34t-78.5-88.5-42.5-115-14-120.5z"/><glyph unicode="&" horiz-adv-x="1468" d="M131 307q0 265 262 412l127 72-82 112q-32 44-51.5 102.5T367 1118q0 154 105.5 258.5T756 1481q124 0 215.5-80.5T1063 1196q0-100-47.5-173.5T877 889q-63-41-215-121l307-436q31 41 55.5 91.5T1063 511t29.5 103 21 94 19.5 105h253l-14-92h-155q-58-313-193-467L1206 0h-123L963 172Q755-29 496-29q-151 0-258 98.5T131 307zm107 12q0-117 75-181t193-64q229 0 399 176L571 717l-127-72q-95-55-150.5-140.5T238 319zm231 816q0-44 16-95t41-86q55-77 82-116l185 104q168 95 168 238 0 91-63.5 148.5T745 1386q-119 0-197.5-69.5T469 1135z"/><glyph unicode="'" horiz-adv-x="489" d="M248 887l26 311 45 254h125l-45-254-86-311h-65z"/><glyph unicode="(" horiz-adv-x="591" d="M133 487q0 127 21 244 42 243 172.5 472.5T647 1583l55-59q-371-335-452-809-23-127-23-256 0-338 170-658l-69-39Q232-82 182.5 106.5T133 487z"/><glyph unicode=")" horiz-adv-x="591" d="M-111-176Q74-8 187 190.5T342 633q23 127 23 256 0 337-170 657l69 37q96-157 145.5-344T459 860q0-127-21-244-42-243-172.5-472.5T-55-236z"/><glyph unicode="*" horiz-adv-x="1089" d="M197 1094l41 88 321-123 39 366h104l-59-366 361 121 18-93-369-104 176-293-90-57-155 305-267-303-69 61 274 293z"/><glyph unicode="+" horiz-adv-x="1394" d="M147 573v93h502v526h96V666h502v-93H745V10h-96v563H147z"/><glyph unicode="," horiz-adv-x="546" d="M2-188q76 25 107 66.5T154 0H47l33 184h182L229 0q-20-108-63-166T25-250z"/><glyph unicode="-" horiz-adv-x="882" d="M125 571l16 95h580l-16-95H125z"/><glyph unicode="." horiz-adv-x="536" d="M49 0l31 184h182L229 0H49z"/><glyph unicode="/" horiz-adv-x="806" d="M-84-27l899 1506h103L18-27H-84z"/><glyph unicode="0" d="M96 438q0 127 33 314 17 96 34.5 167.5t48.5 162 78.5 162T401 1362q119 90 267 90 192 0 305-143 90-115 90-322 0-126-33-313-17-96-34.5-167.5t-48.5-162T868.5 182 758 63Q639-27 492-27q-192 0-304 142-92 118-92 323zm101-2q0-217 114-305 75-59 193-59 126 0 223 94 37 36 68 87.5t50 99T882 466t26.5 109T928 682q35 198 35 307 0 198-99 291-77 74-209 74-110 0-202-78-41-35-75-86.5T322 1088t-41-118.5T252.5 855 231 743q-34-193-34-307z"/><glyph unicode="1" d="M299 1028l23 123 411 272h92L575 0H473l225 1288z"/><glyph unicode="2" d="M53 0l19 113 719 694q71 69 119 152t48 165q0 110-74 170t-186 60q-128 0-217-87.5T371 1055H264q30 170 151.5 283.5T707 1452q148 0 251-88t103-234q0-197-205-389L182 98h709L874 0H53z"/><glyph unicode="3" d="M66 362q0 20 4 60h100q-2-18-2-53 0-141 87-219t230-78q158 0 253.5 97.5T834 424q0 124-79 196t-206 72h-74l17 99h75q101 0 179.5 32.5t128 103.5 49.5 173q0 115-83.5 183.5T639 1352q-130 0-225.5-79.5T295 1065H184q32 173 158 279t301 106q160 0 273.5-92t113.5-248q0-134-81.5-239.5T735 735q98-42 150.5-126.5T938 416q0-133-64-235.5t-169-155T473-27Q299-27 182.5 78.5T66 362z"/><glyph unicode="4" d="M39 326l18 112 754 985h121L170 428h557l78 440h104l-78-440h199l-16-102H815L756 0H651l60 326H39z"/><glyph unicode="5" d="M109 362q0 22 4 62h104q-2-14-2-45 0-144 87.5-226.5T535 70q138 0 237 102 63 63 96 155t33 187q0 143-77 226t-220 83q-85 0-162.5-34T311 692l-116 47 159 684h752l-16-96H434L305 788q55 65 136.5 98.5T614 920q183 0 287.5-106.5T1006 524q0-133-46.5-248T825 84Q695-29 530-29q-214 0-329 133-92 105-92 258z"/><glyph unicode="6" d="M119 459q0 105 31 295 15 88 33 160t47.5 154 74.5 151.5T408 1339q127 111 284 111 162 0 271.5-98t109.5-258H967q0 122-79.5 190T684 1352q-128 0-225-97-46-46-82-110.5T317 1004t-38-136.5T252 731q57 89 152 141t200 52q182 0 291-108.5T1004 526q0-143-57-267.5t-169.5-205T520-27q-153 0-260 97-141 127-141 389zm110-53q0-71 22-135t62-107q85-92 217-92 87 0 158.5 38.5T805 212t69.5 141T899 514q0 143-80.5 229T594 829q-111 0-196-62.5T271 609t-42-203z"/><glyph unicode="7" d="M119 0l878 1325H219l17 98h888l-18-108L236 0H119z"/><glyph unicode="8" d="M72 348q0 146 91.5 261.5T397 760q-78 41-125 122.5T225 1055q0 115 63 207.5t163 141 213 48.5q104 0 193-40.5t145.5-121T1059 1104q0-133-80.5-240.5T770 729q94-42 146.5-132T969 401q0-128-67.5-227t-175-150T494-27Q320-27 196 75T72 348zm106 10q0-132 94.5-211T502 68q151 0 257.5 97.5T866 412q0 135-96.5 211.5T535 700q-152 0-254.5-95.5T178 358zm154 689q0-79 44-139.5t112-91T633 786q139 0 230 88.5t91 227.5q0 117-90.5 187.5T653 1360q-138 0-229.5-88T332 1047z"/><glyph unicode="9" d="M94 338v16h107v-14q0-110 78-188 80-80 213-80 130 0 223 96 44 46 77 108t56 147.5T881 556t26 140q-49-86-147-140t-203-54q-174 0-285 108-53 51-82.5 127.5T160 899q0 120 41 230t118 188q132 135 322 135 132 0 236-72 71-50 112-133 53-109 53-256 0-123-34-319-13-75-23.5-127.5t-32-128T907 286t-62-112.5T760 76Q642-27 483-27 311-27 197 90q-47 51-75 116.5T94 338zm168 573q0-143 80.5-229T567 596q110 0 195.5 65T890 824t42 206q0 145-78.5 234.5T631 1354q-137 0-236-99-63-63-98-155t-35-189z"/><glyph unicode=":" horiz-adv-x="598" d="M94 0l33 176h170L264 0H94zm148 848l32 176h170l-32-176H242z"/><glyph unicode=";" horiz-adv-x="598" d="M51-178q72 24 101.5 63.5T195 0H94l31 174h170L264 0q-19-102-59-156.5T72-236zM242 848l32 176h170l-32-176H242z"/><glyph unicode="<" horiz-adv-x="995" d="M102 623l670 669 62-63-607-606L836 14l-62-61z"/><glyph unicode="=" horiz-adv-x="1415" d="M215 279v94h956v-94H215zm0 485v94h956v-94H215z"/><glyph unicode=">" horiz-adv-x="995" d="M166 14l608 609-606 606 61 63 670-669L227-47z"/><glyph unicode="?" horiz-adv-x="995" d="M109 1083q31 179 156 286.5T571 1477q101 0 189.5-37T903 1327q68-93 68-199 0-253-289-403-105-55-151-123.5T465 418l-109-2q20 111 53 180.5t88.5 120T653 821q201 110 201 303 0 120-83.5 184T563 1372q-135 0-228-78t-116-211H109zM258 0l27 160h159L418 0H258z"/><glyph unicode="@" horiz-adv-x="1908" d="M174 545q0 186 67.5 356.5t185.5 298T715.5 1403t365.5 76q138 0 263-47.5t217.5-131.5 147-205 54.5-261q0-128-47-264t-137-226q-115-115-264-115-69 0-119 45.5T1143 389q-38-74-116-116t-163-42-146.5 44T628 383t-28 137q0 131 51 247.5T804 961t232 77q69 0 128-38.5t79-96.5l47 117h76l-135-541q-8-36-8-57 0-47 24-77t76-30q99 0 184 78 77 72 118.5 192.5T1667 825q0 124-47.5 229.5t-128.5 177-189.5 112T1071 1384q-141 0-267.5-46T582 1211.5t-164.5-186-105.5-229T276 545q0-185 82.5-329.5T587-8.5 918-88q256 0 495 121l-16-96q-96-55-223.5-86T918-180q-161 0-299 52.5t-236 146T229.5 248 174 545zm526-21q0-86 45-146.5T879 317q70 0 130.5 43t97.5 108 59 132.5 26 126.5v25q0 86-43 142t-127 56q-73 0-136-42T783.5 801.5 722 664t-22-140z"/><glyph unicode="A" horiz-adv-x="1245" d="M-113 0l809 1452h105L1100 0H997l-79 383H215L4 0h-117zm385 483h625l-170 822z"/><glyph unicode="B" horiz-adv-x="1351" d="M92 0l258 1452h514q77 0 146.5-20t126-58.5 90-101.5 33.5-142q0-137-80-246T973 752q101-35 156-115t55-186q0-111-42-198.5t-115-142T860 28 657 0H92zm125 100h408q94 0 172 18.5t142 58 100 109 36 163.5q0 71-29.5 123.5t-81 80.5-109 41T731 707H324zm125 709h408q399 0 399 311 0 62-26.5 108.5t-71 72.5-96.5 38.5-109 12.5H438z"/><glyph unicode="C" horiz-adv-x="1255" d="M92 506q0 219 64.5 442.5T348 1303q168 176 400 176 205 0 337-138 63-66 99.5-153.5T1221 1004h-111q0 76-27.5 145.5T1008 1270q-96 104-267 104-172 0-309-137-77-77-130.5-209.5t-76-265T203 504q0-212 125-330 104-96 266-96 160 0 278 112 100 94 136 228h110q-15-71-58-150.5T965 135Q806-27 586-27q-216 0-353 140Q92 257 92 506z"/><glyph unicode="D" horiz-adv-x="1368" d="M92 0l258 1452h465q216 0 334.5-133.5T1268 965q0-107-16.5-221T1201 515.5t-93-216T973 135Q806 0 578 0H92zm125 104h379q175 0 303 107 86 71 147 206.5t86 271.5 25 261q0 182-87.5 290T803 1348H438z"/><glyph unicode="E" horiz-adv-x="1263" d="M92 0l258 1452h920l-19-102H438l-94-533h721l-18-104H326L217 102h823L1022 0H92z"/><glyph unicode="F" horiz-adv-x="1183" d="M92 0l258 1452h903l-18-102H438L338 788h723l-17-102H322L199 0H92z"/><glyph unicode="G" horiz-adv-x="1366" d="M92 506q0 219 64.5 442.5T348 1303q168 176 404 176 219 0 346-133 131-137 131-326h-111q0 148-98 254-89 96-275 96-180 0-313-133-77-77-130.5-209.5t-76-265T203 504q0-210 125-328 106-98 266-98 150 0 266 96 92 77 141 199t76 274H649l19 103h530L1067 0h-82l19 197Q937 92 823.5 32.5T584-27q-212 0-351 142Q92 259 92 506z"/><glyph unicode="H" horiz-adv-x="1466" d="M92 0l258 1452h107L344 817h811l113 635h106L1116 0h-106l127 713H326L199 0H92z"/><glyph unicode="I" horiz-adv-x="550" d="M92 0l258 1452h109L201 0H92z"/><glyph unicode="J" horiz-adv-x="1034" d="M-23 342q0 19 9 80H94q-8-50-8-72 0-128 72-200t202-72q125 0 210 94.5T680 406l184 1046h107L780 381Q749 207 634 90T346-27Q179-27 78 76T-23 342z"/><glyph unicode="K" horiz-adv-x="1333" d="M92 0l258 1452h107L297 557l956 895h136L811 909 1180 0h-115L729 834 270 401 199 0H92z"/><glyph unicode="L" horiz-adv-x="1105" d="M92 0l258 1452h107L217 100h754L952 0H92z"/><glyph unicode="M" horiz-adv-x="1806" d="M92 0l258 1452h139L797 160l757 1292h160L1456 0h-106l233 1298L825 20h-94L422 1288 199 0H92z"/><glyph unicode="N" horiz-adv-x="1511" d="M92 0l258 1452h111l624-1284 228 1284h106L1161 0h-110L426 1288 199 0H92z"/><glyph unicode="O" horiz-adv-x="1343" d="M92 506q0 211 69.5 443.5T356 1311q160 168 392 168 213 0 354-144t141-397q0-212-67.5-440T983 141Q823-27 592-27q-107 0-199 38.5T236 117Q92 264 92 506zm111-2q0-210 125-326Q436 78 596 78q174 0 303 129 111 111 172.5 326.5T1133 940q0 220-123 334-108 100-267 100-174 0-303-129-111-111-174-331t-63-410z"/><glyph unicode="P" horiz-adv-x="1259" d="M92 0l258 1452h498q179 0 297.5-101t118.5-278q0-121-43.5-214T1100 709.5t-176-85T709 596H305L199 0H92zm232 698h403q191 0 307.5 94t116.5 281q0 136-91.5 206.5T829 1350H438z"/><glyph unicode="Q" horiz-adv-x="1343" d="M94 506q0 211 69.5 443.5T358 1311q160 168 392 168 213 0 354-144t141-397q0-212-67.5-440T985 141q-6-6-19.5-18.5T946 104l103-153-78-55L870 49Q743-27 594-27q-107 0-199 38.5T238 117Q94 264 94 506zm111-2q0-210 125-326Q438 78 598 78q118 0 213 59L627 416l80 55 182-276 12 12q111 111 172.5 326.5T1135 940q0 220-123 334-108 100-267 100-174 0-303-129-111-111-174-331t-63-410z"/><glyph unicode="R" horiz-adv-x="1343" d="M92 0l258 1452h506q115 0 210.5-37.5t158.5-121 63-201.5q0-184-98.5-302.5T918 637L1120 0h-114L805 618H309L199 0H92zm234 717h424q68 0 129.5 12.5t116 40.5 94.5 68.5 63 101 23 133.5q0 94-46.5 158.5T1011 1324t-165 28H438z"/><glyph unicode="S" horiz-adv-x="1261" d="M55 426v39h111v-31q0-90 32.5-159.5t90-112 131-64.5T578 76q73 0 143.5 20t130 58.5T947 256t36 141q0 39-10.5 75T938 544.5 867 611t-113 48l-262 72q-127 35-207 117t-80 207q0 161 106 270 80 83 174 118.5t215 35.5q103 0 197.5-37.5T1059 1335q115-115 115-311h-109q0 138-82 233-107 119-299 119-179 0-285-106-84-87-84-203 0-93 57-152t150-84l264-71q151-41 230.5-135t79.5-213q0-177-117-291-73-72-180-110T575-27q-304 0-440 193-80 115-80 260z"/><glyph unicode="T" horiz-adv-x="1091" d="M141 1350l19 102h1030l-19-102H709L469 0H362l240 1350H141z"/><glyph unicode="U" horiz-adv-x="1419" d="M152 416q0 48 10 116l164 920h106L270 530q-10-62-10-110 0-170 96-256 98-88 258-88 189 0 312 123 120 118 159 331l164 922h107l-164-920q-46-250-180-393Q853-27 606-27 417-27 281 92 152 209 152 416z"/><glyph unicode="V" horiz-adv-x="1157" d="M131 1452h107L469 154l684 1298h117L492 0h-99z"/><glyph unicode="W" horiz-adv-x="1763" d="M209 1452h98l53-1298 594 1276h97l163-1276 496 1298h102L1251 0h-112L977 1272 383 0H266z"/><glyph unicode="X" horiz-adv-x="1171" d="M-82 0l608 735-348 717h109l309-635 534 635h123L649 735 995 0H883L578 649 41 0H-82z"/><glyph unicode="Y" horiz-adv-x="1083" d="M100 1452h109l305-772 576 772h118L553 575 451 0H344l102 575z"/><glyph unicode="Z" horiz-adv-x="1222" d="M-27 0l21 115 1098 1237H223l19 100h995l-20-115L117 100h907L1006 0H-27z"/><glyph unicode="[" horiz-adv-x="653" d="M70-236l315 1797h360l-14-84H461L174-152h270l-14-84H70z"/><glyph unicode="\" horiz-adv-x="808" d="M156 1479h88L627-27h-88z"/><glyph unicode="]" horiz-adv-x="653" d="M-115-236l15 84h270l287 1629H186l15 84h360L246-236h-361z"/><glyph unicode="^" horiz-adv-x="1046" d="M158 829l327 650h113l324-650H809l-268 547-271-547H158z"/><glyph unicode="_" horiz-adv-x="1081" d="M-53 0h950v-88H-53V0z"/><glyph unicode="`" horiz-adv-x="493" d="M154 1354l65 86 283-238-43-53z"/><glyph unicode="a" horiz-adv-x="1148" d="M57 406q0 142 47 278t138 229q138 138 325 138 112 0 193.5-64T868 850l50 174h90L825 0h-84l19 176Q721 91 627.5 32T430-27q-91 0-170 42T133 127Q57 236 57 406zm103 10q0-133 51-219Q282 74 440 74q117 0 215 98 81 81 124.5 203.5T823 614q0 79-12 134.5T766 850q-74 100-213 100-65 0-129.5-27T315 850q-74-74-114.5-192.5T160 416z"/><glyph unicode="b" horiz-adv-x="1165" d="M72 0l262 1479h102q-84-479-106-596 39 76 133 122t186 46q119 0 207.5-66t131-166.5T1030 602q0-92-17-180t-55.5-170-94-143.5-138-98.5T543-27q-90 0-170.5 45T244 139q-22 37-31 66-7-39-27.5-116T162 0H72zm182 412q0-143 81.5-240.5T557 74q78 0 142 32.5t105.5 85 70 121.5 41 139T928 592q0 95-31 174.5T797 899t-166 53q-103 0-189-67-98-76-143-203t-45-270z"/><glyph unicode="c" horiz-adv-x="1024" d="M57 395q0 152 50 293t147 234q132 129 309 129 158 0 264-101 107-104 107-258v-14H825v6q0 112-75 190-76 76-199 76-129 0-229-100-80-79-120-201.5T162 399q0-165 100-254 77-71 199-71 103 0 185 63t118 162h108Q832 156 716.5 64.5T455-27Q287-27 178 82 57 200 57 395z"/><glyph unicode="d" horiz-adv-x="1165" d="M57 406v8q0 82 9 133 23 131 80.5 239.5T295 963q121 88 254 88 126 0 218.5-68.5T883 817l116 662h105L838 0h-88l18 176-4-12Q720 75 629.5 24T440-27q-118 0-207 62T100.5 194 57 406zm103 10q0-147 77-244.5T459 74q98 0 186 67 99 74 145 201t46 270q0 150-76.5 244T535 950q-102 0-195-76-131-108-170-333-10-54-10-125z"/><glyph unicode="e" horiz-adv-x="1077" d="M57 422q0 143 44 270.5T236 913q138 138 329 138 164 0 275-111 118-118 118-317 0-42-16-136H160q-2-20-2-59 0-170 92-270 81-84 221-84 98 0 184.5 59T776 281h109q-8-43-42-96.5T772 96Q643-27 461-27 286-27 176 90 57 215 57 422zm117 160h680q2 14 2 43 0 143-80.5 235T553 952q-153 0-268-131-82-94-111-239z"/><glyph unicode="f" horiz-adv-x="704" d="M94 930l17 94h206l33 188q21 119 99 191t196 72q76 0 191-35l-17-92q-108 34-176 34-86 0-131-46.5T451 1200l-31-176h319l-16-94H401L238 0H135l164 930H94z"/><glyph unicode="g" horiz-adv-x="1005" d="M-57-160q0 111 82 193 49 49 110 65-80 53-80 140 0 65 46 116t116 84q-88 88-88 215 0 172 117 286t289 114q132 0 235-70 32 60 86.5 97.5T983 1118q31 0 59-8l-14-90q-32 8-53 8-46 0-85.5-29T831 926q72-85 72-201 0-171-118-281T496 334q-116 0-207 51-53-16-94-52.5T154 248q0-42 30-64.5t70-27.5l336-41q72-9 129.5-36t97-84.5T856-143q0-106-72-181-66-70-171.5-104.5T399-463q-249 0-370 111-86 79-86 192zm94 15q0-77 57-134 92-90 309-90 83 0 162 23.5T696-272q58 58 58 125 0 77-54 118.5T557 23L242 59q-29 0-49-8-71-26-113.5-76T37-145zm192 807q0-115 80-179 68-57 193-57 128 0 213.5 81.5T801 717q0 111-80 177.5T528 961q-126 0-212.5-86T229 662z"/><glyph unicode="h" horiz-adv-x="1187" d="M72 0l262 1479h102L326 850q72 94 163 143 107 58 218 58 140 0 220.5-82.5T1008 754q0-31-7-78L881 0H778l119 674q6 35 6 65 0 94-53.5 152.5T688 950q-86 0-161-38.5t-126.5-102-86-139.5T266 512L174 0H72z"/><glyph unicode="i" horiz-adv-x="493" d="M72 0l182 1024h108L178 0H72zm213 1309l24 143h144l-25-143H285z"/><glyph unicode="j" horiz-adv-x="495" d="M-299-377l18 101q94-52 168-52 127 0 158 172l211 1180h104L145-176Q99-426-100-426q-111 0-199 49zm586 1686l24 143h144l-25-143H287z"/><glyph unicode="k" horiz-adv-x="1091" d="M72 0l262 1479h104L250 414l674 610h139L631 629 930 0H811L547 551 221 254 176 0H72z"/><glyph unicode="l" horiz-adv-x="550" d="M98 150q0 37 4 55l228 1274h102L205 209q-4-28-4-41 0-82 94-82 33 0 100 23l-16-97q-58-24-105-24-77 0-126.5 43.5T98 150z"/><glyph unicode="m" horiz-adv-x="1783" d="M72 0l182 1024h90l-20-176q55 85 147.5 144t192.5 59q141 0 217-76 27-27 44-67t19-79q55 93 155.5 157.5T1315 1051q139 0 214-73t75-198q0-36-11-104L1475 0h-103l117 670q10 55 10 92 0 192-201 192-98 0-194-75-142-114-180-328L825 0H723l117 670q8 44 8 92 0 90-49 141t-152 51q-102 0-192-73-142-115-189-369L174 0H72z"/><glyph unicode="n" horiz-adv-x="1187" d="M72 0l182 1024h90l-20-186q59 95 166.5 154t216.5 59q140 0 220.5-82.5T1008 754q0-31-7-78L881 0H778l119 674q6 35 6 65 0 94-53.5 152.5T688 950q-86 0-161-38.5t-126.5-102-86-139.5T266 512L174 0H72z"/><glyph unicode="o" horiz-adv-x="1093" d="M57 401q0 164 57.5 312.5T289 954q127 97 278 97 183 0 295-136 96-120 96-292 0-164-57-312.5T727 70Q600-27 449-27q-183 0-295 136-97 121-97 292zm105 7q0-140 69-230Q315 74 459 74q113 0 211 80 90 75 137 202.5T854 616q0 139-68 228-85 106-229 106-113 0-211-80-90-75-137-202.5T162 408z"/><glyph unicode="p" horiz-adv-x="1167" d="M-2-410l254 1434h90l-14-135q49 74 141.5 118t181.5 44 162.5-38.5 120.5-102 72.5-143T1032 602q0-92-17-180t-55.5-170-94-143.5-138-98.5T545-27q-90 0-171.5 45.5T244 139q-32 63-33 68l-6-35-105-582H-2zm258 822q0-143 81.5-240.5T559 74q78 0 142 32.5t105.5 85 70 121.5 41 139T930 592q0 95-31 174.5T799 899t-166 53q-103 0-189-67-98-76-143-203t-45-270z"/><glyph unicode="q" d="M57 406q0 169 57.5 317.5T295 963q121 88 254 88 125 0 217-68.5T881 817l47 207h90L764-410H662l94 533Q706 52 622 12.5T444-27q-118 0-208 62T101.5 194 57 406zm103 10q0-147 79-245.5T463 72q100 0 188 67 98 74 141.5 200.5T836 612q0 150-76.5 244T535 950q-102 0-195-76-90-73-135-199t-45-259z"/><glyph unicode="r" horiz-adv-x="778" d="M72 0l184 1024h90l-24-199q50 100 149 154.5t215 54.5q32 0 98-12l-18-102q-66 16-98 16-85 0-156.5-37.5t-120-101T312 661t-46-153L172 0H72z"/><glyph unicode="s" horiz-adv-x="1021" d="M35 303q0 5 1 14.5t1 14.5h104v-19q0-92 62-151 51-49 112-69.5T459 72q136 0 223 84 53 50 53 131 0 119-153 166l-191 55q-111 32-168 84-67 61-67 153 0 118 86 201 48 47 123 76t163 29q157 0 261-83t104-233H788q0 74-40 125t-99.5 73.5T516 956q-60 0-115.5-20T309 879q-49-49-49-117 0-52 31-88 31-35 131-66l188-55q116-34 173-102.5T840 295q0-63-26-121.5T741 74Q622-27 449-27 241-27 119 98q-84 87-84 205z"/><glyph unicode="t" horiz-adv-x="753" d="M84 930l16 94h205l51 283 107 28-55-311h317l-16-94H391L279 289q-9-56-9-76 0-131 146-131 73 0 188 49l-18-98q-34-19-89-33t-98-14q-103 0-168 54.5T166 197q0 49 8 88l115 645H84z"/><glyph unicode="u" horiz-adv-x="1171" d="M109 268q0 26 8 80l119 676h104L221 354q-6-38-6-69 0-94 51-152.5T424 74q70 0 131.5 25.5t107.5 68 82 99.5 59 118.5T838 512l90 512h102L850 0h-90l18 186Q718 90 616 31.5T406-27q-140 0-218.5 81.5T109 268z"/><glyph unicode="v" horiz-adv-x="958" d="M74 1024h108l189-879 485 879h115L401 0H297z"/><glyph unicode="w" horiz-adv-x="1519" d="M135 1024h98l62-901 459 887h108l148-879 381 893h96L1051 0H934L788 877 334 0H207z"/><glyph unicode="x" horiz-adv-x="964" d="M-88 0l463 524-273 500h115l234-432 391 432h127L514 524 788 0H674L440 451 41 0H-88z"/><glyph unicode="y" horiz-adv-x="980" d="M-156-365l17 93q88-62 157-62 60 0 99 30.5t73 90.5L309-4 74 1024h108l201-909 504 909h110L274-264Q183-428 27-428q-43 0-95 17.5t-88 45.5z"/><glyph unicode="z" horiz-adv-x="991" d="M-12 0L8 115l785 813H152l18 96h760l-21-113L125 98h653L760 0H-12z"/><glyph unicode="{" horiz-adv-x="714" d="M113 614l16 97q91 10 161.5 59.5T375 901l63 367q23 126 115.5 209.5T780 1561h54l-15-86h-53q-97 0-157.5-58T532 1268l-63-367q-17-96-78.5-158T233 662q68-19 111-73.5T387 463q0-13-4-41L319 55q-4-32-4-49 0-73 42-115.5T479-152h53l-14-86h-53q-114 0-180 60.5T219-10q0 30 6 65l64 367q2 10 2 31 0 69-50.5 111T113 614z"/><glyph unicode="|" horiz-adv-x="524" d="M219-236v1795h86V-236h-86z"/><glyph unicode="}" horiz-adv-x="714" d="M-119-238l15 86h53q101 0 159 56.5T182 55l64 367q15 92 79.5 158.5T481 664q-64 18-107.5 74.5T330 866q0 23 2 35l63 367q6 30 6 59 0 148-165 148h-54l15 86h53q112 0 179-57.5t67-166.5q0-25-7-69l-63-367q-2-10-2-31 0-67 51-109t127-50l-16-97q-89-8-160.5-59T340 422L276 55Q224-238-66-238h-53z"/><glyph unicode="~" horiz-adv-x="1265" d="M147 614q150 125 289 125 50 0 103.5-18t92.5-40 89-40 94-18q58 0 107.5 22.5T1030 711l51-74q-73-61-140.5-94T795 510q-48 0-100.5 19t-92 42.5T512 614t-96 19q-99 0-215-94z"/><glyph unicode="¡" horiz-adv-x="624" d="M57-418l72 398 135 589h70L260-20l-72-398H57zM274 879l29 155h156l-29-155H274z"/><glyph unicode="¢" d="M164 600q0 152 49.5 292.5T360 1126q124 121 287 129l35 197h84l-35-201q118-14 203-96 106-103 106-258v-14H932v6q0 114-76 190-57 57-143 72L557 279h10q103-1 185 62t118 163h109q-40-143-156-234.5T561 178h-20L508 0h-84l35 190q-95 22-174 97-121 118-121 313zm104 4q0-164 101-254 48-42 106-59l154 862q-114-11-201-98-80-79-120-201.5T268 604z"/><glyph unicode="£" horiz-adv-x="1179" d="M31 0l20 113q166 13 199 188l74 412H154l16 92h170l41 237q35 202 149.5 307T817 1454q98 0 171-44.5t107.5-113.5 34.5-151q0-17-4-49h-100q2 12 2 39 0 100-58.5 162.5T803 1360q-76 0-134.5-28t-95-76.5-58-101.5-32.5-116l-41-233h373l-16-92H426l-76-422q-26-149-129-187v-4h494q111 0 177.5 61T979 319h96q-31-157-132-238T696 0H31z"/><glyph unicode="¤" d="M78 63l164 144Q129 339 129 518q0 176 107 305L78 961l82 81 137-159q121 100 285 100 159 0 284-100l135 159 82-81-157-138q108-130 108-305 0-180-112-311l161-144-82-79-141 163Q736 51 582 51q-161 0-281 96L160-16zm147 455q0-155 102-265t255-110 254.5 110T938 518 836.5 782 582 891 327 782 225 518z"/><glyph unicode="¥" d="M96 272l15 84h344l37 207-3 4H147l15 82h295l-305 774h104l301-757 565 757h115L657 649h338l-14-82H596l-2-4-37-207h387l-14-84H543L494 0H391l49 272H96z"/><glyph unicode="¦" horiz-adv-x="536" d="M219-102v651h98v-651h-98zm0 999v657h98V897h-98z"/><glyph unicode="§" horiz-adv-x="1112" d="M63-188q0 4 11 73h102q-6-35-6-69 0-103 60.5-161T395-403q103 0 174.5 66T641-168q0 86-68 164L221 403q-82 95-82 201 0 112 62 197.5T369 934q-64 92-64 186 0 141 107 237.5t254 96.5q140 0 231.5-85t91.5-224q0-35-6-72H877q6 34 6 68 0 101-61.5 159T657 1358q-98 0-171.5-69T412 1122q0-89 67-166l352-405q82-95 82-201 0-113-61-200T686 16q62-89 62-182 0-144-108-239t-253-95q-142 0-233 85.5T63-188zm175 806q0-79 61-149L633 84q86 35 134 98.5T815 336q0 79-61 149L422 870q-86-35-135-99t-49-153z"/><glyph unicode="¨" horiz-adv-x="591" d="M141 1276l23 129h123l-23-129H141zm377 0l23 129h125l-23-129H518z"/><glyph unicode="©" horiz-adv-x="1798" d="M154 725q0 206 98.5 379.5t270 274T899 1479q154 0 292.5-59.5t238-160.5 157.5-240.5 58-293.5q0-123-37-238t-105.5-207.5-160-162-206-107T899-27 661.5 10.5 456 117.5t-159.5 162T191 487t-37 238zm98 0q0-182 84.5-333T570 153.5 899 66t329 87.5T1461.5 392t84.5 333-84.5 334.5-233.5 241-329 88.5-329-88.5-233.5-241T252 725zm303 2q0 107 43.5 199.5T726 1078t192 59q132 0 226.5-81.5T1249 836h-104q-7 92-70 147t-157 55q-81 0-141-47t-87.5-116T662 727q0-150 73-238 64-73 176-73 94 0 160.5 55t73.5 147h104q-10-138-107.5-219.5T911 317q-158 0-256 113-100 114-100 297z"/><glyph unicode="ª" horiz-adv-x="999" d="M195 870q0 103 70 164.5t188 69.5l286 20v74q0 91-54.5 133.5T535 1374q-94 0-153-44t-65-128h-81q7 118 89 184t210 66q90 0 163-34.5T801 1307q20-54 20-150V803q0-44 12-64t48-20q12 0 22 2v-72q-20-4-39-4-121 0-125 143-30-68-104.5-113.5T467 629q-118 0-195 64t-77 177zm84 0q0-81 52.5-123T473 705q68 0 121 27t83.5 72.5 46 98.5 15.5 111v35l-280-17q-86-4-133-47.5T279 870z"/><glyph unicode="«" horiz-adv-x="1069" d="M102 604l406 438 57-49-348-397 209-395-72-49zm424 0l406 438 57-49-348-397 209-395-72-49z"/><glyph unicode="¬" horiz-adv-x="1265" d="M127 571v95h950V244h-96v327H127z"/><glyph unicode="­" horiz-adv-x="882" d="M125 571l16 95h580l-16-95H125z"/><glyph unicode="®" horiz-adv-x="1792" d="M147 725q0 123 37 238t105.5 207.5 160 162 206 107T893 1477t237.5-37.5 205.5-107 159.5-162T1601 963t37-238-37-238-105.5-207.5-159.5-162-205.5-107T893-27 655.5 10.5t-206 107-160 162T184 487t-37 238zm99 0q0-182 84.5-333T564 153.5 893 66t329 87.5T1455.5 392t84.5 333-84.5 333.5T1222 1298t-329 88-329-88-233.5-239.5T246 725zm399-397v805h281q127 0 197.5-74t70.5-180q0-77-40.5-139T1038 649l148-321h-111L940 629H741V328h-96zm96 399h183q86 0 129 45t43 109-42 108.5-128 44.5H741V727z"/><glyph unicode="¯" horiz-adv-x="602" d="M143 1262l17 96h536l-16-96H143z"/><glyph unicode="°" horiz-adv-x="972" d="M215 1141q0 139 100.5 239.5T555 1481t238.5-100 99.5-240-99.5-240T555 801 315.5 901.5 215 1141zm94 0q0-105 71-177.5T555 891t174 72.5 70 177.5-70 177.5-174 72.5-175-72.5-71-177.5z"/><glyph unicode="±" horiz-adv-x="1163" d="M123 0v90h868V0H123zm0 721v90h387v391h96V811h385v-90H606V317h-96v404H123z"/><glyph unicode="²" horiz-adv-x="843" d="M154 719l12 76 373 295q114 88 114 170 0 47-33.5 81.5T524 1376q-80 0-130.5-47.5T330 1206h-99q21 114 103 188t207 74q87 0 149-58.5t62-135.5q0-45-13.5-83t-42-70.5-54-55T577 1011q-11-8-16-12L315 809h385l-14-90H154z"/><glyph unicode="³" horiz-adv-x="921" d="M205 920q0 5 1 14t1 14h94q0-4-1-12t-1-12q0-68 49.5-108T469 776q92 0 149 51 52 45 52 109 0 56-42.5 82T526 1044h-55l16 86h62q67 0 113.5 34t46.5 98q0 54-40.5 87T567 1382q-72 0-123.5-33t-72.5-96H268q29 101 113.5 157t200.5 56q97 0 162-55t65-137q0-63-39.5-115.5T668 1087q43-12 70.5-54.5T766 938q0-116-104-188-86-60-203-60-109 0-181.5 64.5T205 920z"/><glyph unicode="´" horiz-adv-x="493" d="M156 1212l364 238 43-90-383-203z"/><glyph unicode="¶" horiz-adv-x="1376" d="M240 1053q0 113 58.5 204.5t157.5 142 216 50.5h690l-16-98h-205L856-256H756l284 1608H756L471-256H371l174 977q-127 9-216 107t-89 225z"/><glyph unicode="·" horiz-adv-x="577" d="M145 522l33 185h180l-32-185H145z"/><glyph unicode="¸" horiz-adv-x="352" d="M-82-369L111-94h100L18-422z"/><glyph unicode="¹" horiz-adv-x="657" d="M201 1186l20 110 232 156h92L414 707h-97l111 630z"/><glyph unicode="º" horiz-adv-x="999" d="M197 1038q0 105 24 183.5t82 136.5q92 92 232 92 137 0 229-92 58-58 82-136.5t24-183.5-24-183-82-136q-92-92-229-92-140 0-232 92-58 58-82 136t-24 183zm84 0q0-89 15.5-152T360 774q62-65 175-65 108 0 170 65 48 50 64.5 113.5T786 1038q0 88-16.5 152T705 1303q-64 67-170 67-111 0-175-67-48-49-63.5-112.5T281 1038z"/><glyph unicode="»" horiz-adv-x="1032" d="M49 201l346 397-207 395 72 49 252-452-408-438zm424 0l348 397-209 395 70 49 254-452-408-438z"/><glyph unicode="¼" horiz-adv-x="1714" d="M184 31l1313 1442 64-54L248-25zm97 1155l18 110 233 156h93L492 707h-97l113 630zM870 166l19 100 407 494h113L993 256h275l30 170h97l-31-170h131l-16-90h-131L1319 0h-94l26 166H870z"/><glyph unicode="½" horiz-adv-x="1843" d="M184 31l1313 1442 64-54L248-25zm97 1155l18 110 233 156h93L492 707h-97l113 630zM989 0l12 76 373 295q52 40 83.5 80t31.5 90q0 47-33.5 81.5T1360 657q-80 0-131-47.5T1165 487h-98q21 115 102.5 189t206.5 74q87 0 149-58.5t62-136.5q0-59-29-111t-56.5-77.5T1413 294q-11-9-16-13L1151 90h385l-14-90H989z"/><glyph unicode="¾" horiz-adv-x="1824" d="M205 920q0 5 1 14t1 14h94q0-4-1-12t-1-12q0-68 49.5-108T469 776q92 0 149 51 52 45 52 109 0 56-42.5 82T526 1044h-55l16 86h62q67 0 113.5 34t46.5 98q0 54-40.5 87T567 1382q-72 0-123.5-33t-72.5-96H268q29 101 113.5 157t200.5 56q97 0 162-55t65-137q0-63-39.5-115.5T668 1087q43-12 70.5-54.5T766 938q0-116-104-188-86-60-203-60-109 0-181.5 64.5T205 920zm90-889l1313 1442 63-54L358-25zm684 135l18 100 410 494h113l-418-504h274l31 170h96l-30-170h131l-17-90h-131L1427 0h-96l29 166H979z"/><glyph unicode="¿" horiz-adv-x="995" d="M-43-104q0 253 289 403 105 55 151 123.5T463 606l108 2q-20-111-53-180.5t-88.5-120T274 203Q74 94 74-100q0-120 83.5-184T365-348q135 0 228 78T709-59h110q-31-179-156.5-286.5T356-453q-101 0-189 37T25-303q-68 93-68 199zm526 968l27 160h160l-27-160H483z"/><glyph unicode="À" horiz-adv-x="1245" d="M-113 0l809 1452h105L1100 0H997l-79 383H215L4 0h-117zm385 483h625l-170 822zm320 1338l65 86 283-238-43-53z"/><glyph unicode="Á" horiz-adv-x="1245" d="M-113 0l809 1452h105L1100 0H997l-79 383H215L4 0h-117zm385 483h625l-170 822zm267 1145l364 238 43-90-383-203z"/><glyph unicode="Â" horiz-adv-x="1245" d="M-113 0l809 1452h105L1100 0H997l-79 383H215L4 0h-117zm385 483h625l-170 822zm199 1135l303 293h64l206-299-65-49-180 268-273-268z"/><glyph unicode="Ã" horiz-adv-x="1245" d="M-113 0l809 1452h105L1100 0H997l-79 383H215L4 0h-117zm385 483h625l-170 822zm215 1239q85 78 168 78 52 0 133-42t121-42q52 0 105 47l43-55q-89-78-166-78-49 0-133 42t-127 42q-49 0-103-47z"/><glyph unicode="Ä" horiz-adv-x="1245" d="M-113 0l809 1452h105L1100 0H997l-79 383H215L4 0h-117zm385 483h625l-170 822zm232 1141l22 129h123l-22-129H504zm377 0l22 129h125l-22-129H881z"/><glyph unicode="Å" horiz-adv-x="1245" d="M-113 0l779 1397q-64 25-100 80t-36 127q0 97 62.5 160t167.5 63 167-63 62-160q0-85-46-145t-128-75L1100 0H997l-79 383H215L4 0h-117zm385 483h625l-170 822zm340 1119q0-63 41-105.5t107-42.5 106.5 44.5T907 1606t-40.5 105-106.5 42-107-44-41-107z"/><glyph unicode="Æ" horiz-adv-x="1798" d="M-137 0l901 1452h1063l-19-98h-712l-92-529h610l-19-100H985L874 100h713L1569 0H752l71 406H229L-18 0h-119zm430 504h549l149 850H813z"/><glyph unicode="Ç" horiz-adv-x="1255" d="M92 506q0 219 64.5 442.5T348 1303q168 176 400 176 205 0 337-138 63-66 99.5-153.5T1221 1004h-111q0 76-27.5 145.5T1008 1270q-96 104-267 104-172 0-309-137-77-77-130.5-209.5t-76-265T203 504q0-212 125-330 104-96 266-96 160 0 278 112 100 94 136 228h110q-15-71-58-150.5T965 135Q806-27 586-27q-216 0-353 140Q92 257 92 506zm205-875L489-94h101L397-422z"/><glyph unicode="È" horiz-adv-x="1263" d="M92 0l258 1452h920l-19-102H438l-94-533h721l-18-104H326L217 102h823L1022 0H92zm535 1782l65 86 283-238-43-53z"/><glyph unicode="É" horiz-adv-x="1263" d="M92 0l258 1452h920l-19-102H438l-94-533h721l-18-104H326L217 102h823L1022 0H92zm582 1628l364 238 43-90-383-203z"/><glyph unicode="Ê" horiz-adv-x="1263" d="M92 0l258 1452h920l-19-102H438l-94-533h721l-18-104H326L217 102h823L1022 0H92zm447 1628l303 293h63l207-299-65-49-181 268-272-268z"/><glyph unicode="Ë" horiz-adv-x="1263" d="M92 0l258 1452h920l-19-102H438l-94-533h721l-18-104H326L217 102h823L1022 0H92zm490 1665l22 129h123l-22-129H582zm376 0l23 129h125l-23-129H958z"/><glyph unicode="Ì" horiz-adv-x="550" d="M92 0l258 1452h109L201 0H92zm170 1821l66 86 282-238-43-53z"/><glyph unicode="Í" horiz-adv-x="550" d="M92 0l258 1452h109L201 0H92zm170 1636l328 215 39-82-344-182z"/><glyph unicode="Î" horiz-adv-x="550" d="M92 0l258 1452h109L201 0H92zm86 1630l273 262h57l186-268-59-43-162 240-246-240z"/><glyph unicode="Ï" horiz-adv-x="550" d="M92 0l258 1452h109L201 0H92zm148 1665l22 129h123l-23-129H240zm274 0l23 129h125l-23-129H514z"/><glyph unicode="Ð" horiz-adv-x="1368" d="M66 711l14 86h156l116 655h465q216 0 334.5-133.5T1270 965q0-107-16.5-221T1203 515.5t-93-216T975 135Q893 69 790.5 34.5T580 0H94l127 711H66zm153-607h379q175 0 303 107 86 71 147 206.5t86 271.5 25 261q0 182-87.5 290T805 1348H440l-98-551h348l-14-86H328z"/><glyph unicode="Ñ" horiz-adv-x="1511" d="M92 0l258 1452h111l624-1284 228 1284h106L1161 0h-110L426 1288 199 0H92zm526 1669q85 78 168 78 52 0 133-42t121-42q52 0 105 47l43-55q-89-78-166-78-49 0-133 42t-127 42q-49 0-103-47z"/><glyph unicode="Ò" horiz-adv-x="1343" d="M92 506q0 211 69.5 443.5T356 1311q160 168 392 168 213 0 354-144t141-397q0-212-67.5-440T983 141Q823-27 592-27q-107 0-199 38.5T236 117Q92 264 92 506zm111-2q0-210 125-326Q436 78 596 78q174 0 303 129 111 111 172.5 326.5T1133 940q0 220-123 334-108 100-267 100-174 0-303-129-111-111-174-331t-63-410zm467 1294l65 86 283-237-43-54z"/><glyph unicode="Ó" horiz-adv-x="1343" d="M92 506q0 211 69.5 443.5T356 1311q160 168 392 168 213 0 354-144t141-397q0-212-67.5-440T983 141Q823-27 592-27q-107 0-199 38.5T236 117Q92 264 92 506zm111-2q0-210 125-326Q436 78 596 78q174 0 303 129 111 111 172.5 326.5T1133 940q0 220-123 334-108 100-267 100-174 0-303-129-111-111-174-331t-63-410zm432 1124l364 238 43-90-383-203z"/><glyph unicode="Ô" horiz-adv-x="1343" d="M92 506q0 211 69.5 443.5T356 1311q160 168 392 168 213 0 354-144t141-397q0-212-67.5-440T983 141Q823-27 592-27q-107 0-199 38.5T236 117Q92 264 92 506zm111-2q0-210 125-326Q436 78 596 78q174 0 303 129 111 111 172.5 326.5T1133 940q0 220-123 334-108 100-267 100-174 0-303-129-111-111-174-331t-63-410zm325 1114l303 293h64l207-299-66-49-180 268-272-268z"/><glyph unicode="Õ" horiz-adv-x="1343" d="M92 506q0 211 69.5 443.5T356 1311q160 168 392 168 213 0 354-144t141-397q0-212-67.5-440T983 141Q823-27 592-27q-107 0-199 38.5T236 117Q92 264 92 506zm111-2q0-210 125-326Q436 78 596 78q174 0 303 129 111 111 172.5 326.5T1133 940q0 220-123 334-108 100-267 100-174 0-303-129-111-111-174-331t-63-410zm346 1218q85 78 168 78 52 0 133-42t121-42q51 0 104 47l43-55q-89-78-166-78-49 0-133 42t-127 42q-48 0-102-47z"/><glyph unicode="Ö" horiz-adv-x="1343" d="M92 506q0 211 69.5 443.5T356 1311q160 168 392 168 213 0 354-144t141-397q0-212-67.5-440T983 141Q823-27 592-27q-107 0-199 38.5T236 117Q92 264 92 506zm111-2q0-210 125-326Q436 78 596 78q174 0 303 129 111 111 172.5 326.5T1133 940q0 220-123 334-108 100-267 100-174 0-303-129-111-111-174-331t-63-410zm379 1120l22 129h123l-22-129H582zm376 0l23 129h125l-23-129H958z"/><glyph unicode="×" horiz-adv-x="1378" d="M147 129l480 479-480 477 64 64 477-477 479 477 64-64-479-477 479-479-64-63-479 479L211 66z"/><glyph unicode="Ø" horiz-adv-x="1347" d="M92 506q0 211 69.5 443.5T356 1311q160 168 392 168 161 0 288-86l115 182 70-41-121-195 4-4q143-143 143-389 0-211-69.5-443.5T983 141Q823-27 592-27q-166 0-291 88L172-143l-70 39 136 217-2 4Q92 261 92 506zm111-2q0-179 96-295l680 1091q-100 74-236 74-174 0-303-129-111-111-174-331t-63-410zm153-350q99-76 240-76 174 0 303 129 111 111 174.5 331t63.5 410q0 183-97 297z"/><glyph unicode="Ù" horiz-adv-x="1419" d="M152 416q0 48 10 116l164 920h106L270 530q-10-62-10-110 0-170 96-256 98-88 258-88 189 0 312 123 120 118 159 331l164 922h107l-164-920q-46-250-180-393Q853-27 606-27 417-27 281 92 152 209 152 416zm501 1380l66 86 282-237-43-54z"/><glyph unicode="Ú" horiz-adv-x="1419" d="M152 416q0 48 10 116l164 920h106L270 530q-10-62-10-110 0-170 96-256 98-88 258-88 189 0 312 123 120 118 159 331l164 922h107l-164-920q-46-250-180-393Q853-27 606-27 417-27 281 92 152 209 152 416zm524 1212l364 238 43-90-383-203z"/><glyph unicode="Û" horiz-adv-x="1419" d="M152 416q0 48 10 116l164 920h106L270 530q-10-62-10-110 0-170 96-256 98-88 258-88 189 0 312 123 120 118 159 331l164 922h107l-164-920q-46-250-180-393Q853-27 606-27 417-27 281 92 152 209 152 416zm415 1202l303 293h64l207-299-66-49-180 268-272-268z"/><glyph unicode="Ü" horiz-adv-x="1419" d="M152 416q0 51 10 116l164 920h106L270 530q-10-62-10-110 0-170 96-256 98-88 258-88 189 0 312 123 120 118 159 331l164 922h107l-164-920q-46-250-180-393Q853-27 606-27 417-27 281 92 152 209 152 416zm452 1210l23 129h123l-23-129H604zm377 0l23 129h124l-22-129H981z"/><glyph unicode="Ý" horiz-adv-x="1083" d="M100 1452h109l305-772 576 772h118L553 575 451 0H344l102 575zm359 156l364 237 43-90-383-203z"/><glyph unicode="Þ" horiz-adv-x="1193" d="M90 0l256 1452h107l-50-285h355q179 0 297.5-101T1174 788q0-121-44-214t-121-149.5-176-85T618 311H252L197 0H90zm180 414h367q93 0 169 22.5t133.5 67 89.5 117 32 167.5q0 136-91.5 206.5T739 1065H385z"/><glyph unicode="ß" horiz-adv-x="1208" d="M88 926l16 98h185l10 63q31 179 146 285.5T735 1479q147 0 251-92.5t104-237.5q0-114-70.5-225T842 788q107-39 168-129.5t61-205.5q0-135-65.5-243.5t-177-168T582-18q-87 0-197 28l16 99q123-25 185-25 166 0 271.5 104T963 459q0 130-92 208t-218 78h-82l19 99h117q124 0 200 85t76 210q0 111-77 176t-189 65q-125 0-209-85.5T401 1079L207 0H106l164 926H88z"/><glyph unicode="à" horiz-adv-x="1148" d="M57 406q0 142 47 278t138 229q138 138 325 138 112 0 193.5-64T868 850l50 174h90L825 0h-84l19 176Q721 91 627.5 32T430-27q-91 0-170 42T133 127Q57 236 57 406zm103 10q0-133 51-219Q282 74 440 74q117 0 215 98 81 81 124.5 203.5T823 614q0 79-12 134.5T766 850q-74 100-213 100-65 0-129.5-27T315 850q-74-74-114.5-192.5T160 416zm286 938l66 86 283-238-43-53z"/><glyph unicode="á" horiz-adv-x="1148" d="M57 406q0 142 47 278t138 229q138 138 325 138 112 0 193.5-64T868 850l50 174h90L825 0h-84l19 176Q721 91 627.5 32T430-27q-91 0-170 42T133 127Q57 236 57 406zm103 10q0-133 51-219Q282 74 440 74q117 0 215 98 81 81 124.5 203.5T823 614q0 79-12 134.5T766 850q-74 100-213 100-65 0-129.5-27T315 850q-74-74-114.5-192.5T160 416zm289 805l364 237 43-90-383-203z"/><glyph unicode="â" horiz-adv-x="1148" d="M57 406q0 142 47 278t138 229q138 138 325 138 112 0 193.5-64T868 850l50 174h90L825 0h-84l19 176Q721 91 627.5 32T430-27q-91 0-170 42T133 127Q57 236 57 406zm103 10q0-133 51-219Q282 74 440 74q117 0 215 98 81 81 124.5 203.5T823 614q0 79-12 134.5T766 850q-74 100-213 100-65 0-129.5-27T315 850q-74-74-114.5-192.5T160 416zm184 790l303 293h64l207-299-66-49-180 268-273-268z"/><glyph unicode="ã" horiz-adv-x="1148" d="M57 406q0 142 47 278t138 229q138 138 325 138 112 0 193.5-64T868 850l50 174h90L825 0h-84l19 176Q721 91 627.5 32T430-27q-91 0-170 42T133 127Q57 236 57 406zm103 10q0-133 51-219Q282 74 440 74q117 0 215 98 81 81 124.5 203.5T823 614q0 79-12 134.5T766 850q-74 100-213 100-65 0-129.5-27T315 850q-74-74-114.5-192.5T160 416zm207 919q85 78 168 78 52 0 132.5-42t120.5-42q52 0 105 47l43-55q-89-78-166-78-49 0-133 42t-127 42q-48 0-102-47z"/><glyph unicode="ä" horiz-adv-x="1148" d="M57 406q0 142 47 278t138 229q138 138 325 138 112 0 193.5-64T868 850l50 174h90L825 0h-84l19 176Q721 91 627.5 32T430-27q-91 0-170 42T133 127Q57 236 57 406zm103 10q0-133 51-219Q282 74 440 74q117 0 215 98 81 81 124.5 203.5T823 614q0 79-12 134.5T766 850q-74 100-213 100-65 0-129.5-27T315 850q-74-74-114.5-192.5T160 416zm250 860l22 129h123l-23-129H410zm376 0l23 129h125l-23-129H786z"/><glyph unicode="å" horiz-adv-x="1148" d="M57 406q0 142 47 278t138 229q138 138 325 138 112 0 193.5-64T868 850l50 174h90L825 0h-84l19 176Q721 91 627.5 32T430-27q-91 0-170 42T133 127Q57 236 57 406zm103 10q0-133 51-219Q282 74 440 74q117 0 215 98 81 81 124.5 203.5T823 614q0 79-12 134.5T766 850q-74 100-213 100-65 0-129.5-27T315 850q-74-74-114.5-192.5T160 416zm268 956q0 94 59 154.5t160 60.5 160-60.5 59-154.5-63.5-154.5T647 1157t-155.5 60.5T428 1372zm78 0q0-60 39-101.5t102-41.5 101 41.5 38 101.5q0 61-38 102.5T647 1516t-102-42-39-102z"/><glyph unicode="æ" horiz-adv-x="1759" d="M37 242q0 147 110 243.5T430 582h348l19 102q6 30 6 59 0 96-59 153.5T578 954q-112 0-195.5-55T268 741H166q41 147 154.5 228.5T590 1051q101 0 187.5-55.5T883 844q138 207 374 207 158 0 263-105 57-57 86.5-142.5T1636 623q0-44-10-136H862q-2-20-2-59 0-151 77-253.5T1163 72q97 0 179 59t116 150h109q-8-43-42-96.5T1454 96Q1325-27 1153-27 996-27 893 76q-86 86-109 200-22-53-58-101.5T662 100Q590 33 512 3T332-27q-73 0-139 31T82 98 37 242zm102 8q0-81 60-131 60-49 153-49 147 0 253.5 107.5T750 438l12 49H420q-122 0-201.5-65T139 250zm735 332h658q2 14 2 43 0 146-74 237.5T1245 954q-143 0-240.5-106.5T874 582z"/><glyph unicode="ç" horiz-adv-x="1024" d="M57 395q0 152 50 293t147 234q132 129 309 129 158 0 264-101 107-104 107-258v-14H825v6q0 115-75 190-76 76-199 76-129 0-229-100-80-79-120-201.5T162 399q0-165 100-254 77-71 199-71 103 0 185 63t118 162h108Q832 156 716.5 64.5T455-27Q287-27 178 82 57 200 57 395zm111-768L358-98h101L266-426z"/><glyph unicode="è" horiz-adv-x="1077" d="M57 422q0 143 44 270.5T236 913q138 138 329 138 164 0 275-111 118-118 118-317 0-42-16-136H160q-2-20-2-59 0-170 92-270 81-84 221-84 98 0 184.5 59T776 281h109q-8-43-42-96.5T772 96Q643-27 461-27 286-27 176 90 57 215 57 422zm117 160h680q2 14 2 43 0 143-80.5 235T553 952q-153 0-268-131-82-94-111-239zm293 772l65 86 283-238-43-53z"/><glyph unicode="é" horiz-adv-x="1077" d="M57 422q0 143 44 270.5T236 913q138 138 329 138 164 0 275-111 118-118 118-317 0-42-16-136H160q-2-20-2-59 0-170 92-270 81-84 221-84 98 0 184.5 59T776 281h109q-8-43-42-96.5T772 96Q643-27 461-27 286-27 176 90 57 215 57 422zm117 160h680q2 14 2 43 0 143-80.5 235T553 952q-153 0-268-131-82-94-111-239zm254 639l365 237 43-90-383-203z"/><glyph unicode="ê" horiz-adv-x="1077" d="M57 422q0 143 44 270.5T236 913q138 138 329 138 164 0 275-111 118-118 118-317 0-42-16-136H160q-2-20-2-59 0-170 92-270 81-84 221-84 98 0 184.5 59T776 281h109q-8-43-42-96.5T772 96Q643-27 461-27 286-27 176 90 57 215 57 422zm117 160h680q2 14 2 43 0 143-80.5 235T553 952q-153 0-268-131-82-94-111-239zm125 624l303 293h64l206-299-65-49-180 268-273-268z"/><glyph unicode="ë" horiz-adv-x="1077" d="M57 422q0 143 44 270.5T236 913q138 138 329 138 164 0 275-111 118-118 118-317 0-42-16-136H160q-2-20-2-59 0-170 92-270 81-84 221-84 98 0 184.5 59T776 281h109q-8-43-42-96.5T772 96Q643-27 461-27 286-27 176 90 57 215 57 422zm117 160h680q2 14 2 43 0 143-80.5 235T553 952q-153 0-268-131-82-94-111-239zm211 694l23 129h122l-22-129H385zm377 0l22 129h125l-22-129H762z"/><glyph unicode="ì" horiz-adv-x="493" d="M72 0l182 1024h108L178 0H72zm114 1436l58 77 254-213-37-49z"/><glyph unicode="í" horiz-adv-x="493" d="M72 0l182 1024h108L178 0H72zm94 1309l328 215 38-82-344-182z"/><glyph unicode="î" horiz-adv-x="493" d="M72 0l182 1024h108L178 0H72zm4 1219l272 262h58l186-269-60-43-161 240-246-240z"/><glyph unicode="ï" horiz-adv-x="493" d="M72 0l182 1024h108L178 0H72zm82 1323l22 129h123l-23-129H154zm274 0l23 129h124l-22-129H428z"/><glyph unicode="ð" horiz-adv-x="1105" d="M66 401q0 164 57 312.5T297 954q127 97 278 97 115 0 181-56l-90 230H401l15 82h219l-68 172h105l65-172h209l-14-82H770l156-400q41-100 41-202 0-164-57.5-312.5T735 70Q608-27 457-27q-181 0-295 138-96 120-96 290zm104 7q0-138 70-230Q324 74 467 74q113 0 211 80 90 75 137 202.5T862 616q0 142-67 230-84 104-230 104-113 0-211-80-90-75-137-202.5T170 408z"/><glyph unicode="ñ" horiz-adv-x="1187" d="M72 0l180 1024h92l-20-186q59 95 166.5 154t216.5 59q140 0 220.5-82.5T1008 754q0-31-7-78L881 0H778l119 674q6 35 6 65 0 94-53.5 152.5T688 950q-86 0-161-38.5t-126.5-102-86-139.5T266 512L174 0H72zm338 1341q85 78 168 78 52 0 132.5-42t120.5-42q52 0 105 47l43-55q-89-78-166-78-49 0-133 42t-127 42q-48 0-102-47z"/><glyph unicode="ò" horiz-adv-x="1093" d="M57 401q0 164 57.5 312.5T289 954q127 97 278 97 183 0 295-136 96-120 96-292 0-164-57-312.5T727 70Q600-27 449-27q-183 0-295 136-97 121-97 292zm105 7q0-140 69-230Q315 74 459 74q113 0 211 80 90 75 137 202.5T854 616q0 139-68 228-85 106-229 106-113 0-211-80-90-75-137-202.5T162 408zm284 946l66 86 283-238-43-53z"/><glyph unicode="ó" horiz-adv-x="1093" d="M57 401q0 164 57.5 312.5T289 954q127 97 278 97 183 0 295-136 96-120 96-292 0-164-57-312.5T727 70Q600-27 449-27q-183 0-295 136-97 121-97 292zm105 7q0-140 69-230Q315 74 459 74q113 0 211 80 90 75 137 202.5T854 616q0 139-68 228-85 106-229 106-113 0-211-80-90-75-137-202.5T162 408zm287 813l364 237 43-90-383-203z"/><glyph unicode="ô" horiz-adv-x="1093" d="M57 401q0 164 57.5 312.5T289 954q127 97 278 97 183 0 295-136 96-120 96-292 0-164-57-312.5T727 70Q600-27 449-27q-183 0-295 136-97 121-97 292zm105 7q0-140 69-230Q315 74 459 74q113 0 211 80 90 75 137 202.5T854 616q0 139-68 228-85 106-229 106-113 0-211-80-90-75-137-202.5T162 408zm174 798l303 293h63l207-299-65-49-180 268-273-268z"/><glyph unicode="õ" horiz-adv-x="1093" d="M57 401q0 164 57.5 312.5T289 954q127 97 278 97 183 0 295-136 96-120 96-292 0-164-57-312.5T727 70Q600-27 449-27q-183 0-295 136-97 121-97 292zm105 7q0-140 69-230Q315 74 459 74q113 0 211 80 90 75 137 202.5T854 616q0 139-68 228-85 106-229 106-113 0-211-80-90-75-137-202.5T162 408zm205 927q85 78 168 78 52 0 132.5-42t120.5-42q52 0 105 47l43-55q-89-78-166-78-49 0-133 42t-127 42q-48 0-102-47z"/><glyph unicode="ö" horiz-adv-x="1093" d="M57 401q0 164 57.5 312.5T289 954q127 97 278 97 183 0 295-136 96-120 96-292 0-164-57-312.5T727 70Q600-27 449-27q-183 0-295 136-97 121-97 292zm105 7q0-140 69-230Q315 74 459 74q113 0 211 80 90 75 137 202.5T854 616q0 139-68 228-85 106-229 106-113 0-211-80-90-75-137-202.5T162 408zm248 868l22 129h123l-23-129H410zm376 0l23 129h125l-23-129H786z"/><glyph unicode="÷" horiz-adv-x="1333" d="M168 567v95h997v-95H168zm412-467v170h161V100H580zm0 867v172h161V967H580z"/><glyph unicode="ø" horiz-adv-x="1093" d="M57 401q0 164 57.5 312.5T289 954q127 97 278 97 109 0 199-54l113 181 67-37-119-189q25-25 35-37 96-120 96-292 0-164-57-312.5T727 70Q600-27 449-27q-115 0-203 56L127-160l-68 35L184 74q-5 5-30 35-97 121-97 292zm105 7q0-140 69-230 2-2 5.5-6t5.5-6l469 745q-64 39-154 39-113 0-211-80-90-75-137-202.5T162 408zm139-293q62-41 158-41 113 0 211 80 90 75 137 202.5T854 616q0 139-68 228-4 6-16 18z"/><glyph unicode="ù" horiz-adv-x="1171" d="M109 268q0 26 8 80l119 676h104L221 354q-6-38-6-69 0-94 51-152.5T424 74q70 0 131.5 25.5t107.5 68 82 99.5 59 118.5T838 512l90 512h102L850 0h-90l18 186Q718 90 616 31.5T406-27q-140 0-218.5 81.5T109 268zm378 1086l66 86 283-238-43-53z"/><glyph unicode="ú" horiz-adv-x="1171" d="M109 268q0 26 8 80l119 676h104L221 354q-6-38-6-69 0-94 51-152.5T424 74q70 0 131.5 25.5t107.5 68 82 99.5 59 118.5T838 512l90 512h102L850 0h-90l18 186Q718 90 616 31.5T406-27q-140 0-218.5 81.5T109 268zm370 949l365 237 43-90-383-203z"/><glyph unicode="û" horiz-adv-x="1171" d="M109 268q0 26 8 80l119 676h104L221 354q-6-38-6-69 0-94 51-152.5T424 74q70 0 131.5 25.5t107.5 68 82 99.5 59 118.5T838 512l90 512h102L850 0h-90l18 186Q718 90 616 31.5T406-27q-140 0-218.5 81.5T109 268zm251 938l304 293h63l207-299-66-49-180 268-272-268z"/><glyph unicode="ü" horiz-adv-x="1171" d="M109 268q0 26 8 80l119 676h104L221 354q-6-38-6-69 0-94 51-152.5T424 74q70 0 131.5 25.5t107.5 68 82 99.5 59 118.5T838 512l90 512h102L850 0h-90l18 186Q718 90 616 31.5T406-27q-140 0-218.5 81.5T109 268zm303 1008l22 129h123l-22-129H412zm376 0l23 129h125l-23-129H788z"/><glyph unicode="ý" horiz-adv-x="980" d="M-156-365l17 93q88-62 157-62 60 0 99 30.5t73 90.5L309-4 74 1024h108l201-909 504 909h110L274-264Q183-428 27-428q-43 0-95 17.5t-88 45.5zm541 1561l365 238 43-91-383-202z"/><glyph unicode="þ" horiz-adv-x="1165" d="M-2-410l336 1889h102L330 883q39 76 133 122t186 46q119 0 207.5-66t131-166.5T1030 602q0-92-17-180t-55.5-170-94-143.5-138-98.5T543-27q-90 0-170.5 45T244 139q-22 37-31 66-70-379-113-615H-2zm256 822q0-143 81.5-240.5T557 74q78 0 142 32.5t105.5 85 70 121.5 41 139T928 592q0 95-31 174.5T797 899t-166 53q-103 0-189-67-131-101-163-269l-15-71q-10-56-10-133z"/><glyph unicode="ÿ" horiz-adv-x="980" d="M-156-365l17 93q88-62 157-62 60 0 99 30.5t73 90.5L309-4 74 1024h108l201-909 504 909h110L274-264Q183-428 27-428q-43 0-95 17.5t-88 45.5zm451 1641l22 129h123l-22-129H295zm377 0l22 129h125l-22-129H672z"/><glyph unicode="Œ" horiz-adv-x="2105" d="M92 518q0 210 67.5 436.5T350 1311q157 168 385 168 150 0 276-85t163-225l51 283h909l-18-102h-803l-94-533h706l-18-104h-707l-108-611h813L1886 0H967l37 201Q939 98 830 35.5T584-27q-158 0-271 73T146 240.5 92 518zm109-2q0-94 23-172t69-138 121.5-94T588 78q168 0 297 129 68 69 118 183.5t76 246.5l25 129q12 63 12 182 0 211-121 326-103 100-264 100-168 0-297-129-109-112-171-326.5T201 516z"/><glyph unicode="œ" horiz-adv-x="1826" d="M57 401q0 164 56.5 312.5T285 954q124 97 272 97 155 0 262-107 71-71 90-164 38 87 105 148 132 123 309 123 157 0 268-111 117-120 117-317 0-42-16-136H926q-2-20-2-59 0-173 90-270 81-84 217-84 97 0 181 58t116 147h106q-15-50-45-100.5T1526 96Q1400-27 1221-27q-133 0-236 77T850 256Q792 124 685 48.5T440-27q-181 0-288 136-95 118-95 292zm105 7q0-142 67-230Q309 74 451 74q112 0 206 80 89 75 135 202.5T838 616q0 141-66 228-82 106-225 106-113 0-207-80-88-75-133-202t-45-260zm778 174h664q2 14 2 43 0 144-78 235.5T1311 952q-91 0-150-33t-112-96q-79-91-109-241z"/><glyph unicode="Ÿ" horiz-adv-x="1083" d="M100 1452h109l305-772 576 772h118L553 575 451 0H344l102 575zm299 184l23 129h123l-23-129H399zm377 0l23 129h125l-23-129H776z"/><glyph unicode="ˆ" horiz-adv-x="722" d="M152 1206l303 293h63l207-299-66-49-180 268-272-268z"/><glyph unicode="˜" horiz-adv-x="733" d="M182 1341q85 78 168 78 52 0 133-42t121-42q52 0 105 47l43-55q-89-78-166-78-49 0-133 42t-127 42q-49 0-103-47z"/><glyph horiz-adv-x="960"/><glyph horiz-adv-x="1921"/><glyph horiz-adv-x="960"/><glyph horiz-adv-x="1921"/><glyph horiz-adv-x="640"/><glyph horiz-adv-x="480"/><glyph horiz-adv-x="320"/><glyph horiz-adv-x="320"/><glyph horiz-adv-x="240"/><glyph horiz-adv-x="384"/><glyph horiz-adv-x="106"/><glyph unicode="‐" horiz-adv-x="882" d="M125 571l16 95h580l-16-95H125z"/><glyph unicode="‑" horiz-adv-x="882" d="M125 571l16 95h580l-16-95H125z"/><glyph unicode="‒" horiz-adv-x="882" d="M125 571l16 95h580l-16-95H125z"/><glyph unicode="–" horiz-adv-x="1253" d="M113 571l16 95h950l-16-95H113z"/><glyph unicode="—" horiz-adv-x="2242" d="M117 571l16 95h1940l-17-95H117z"/><glyph unicode="‘" horiz-adv-x="473" d="M195 1044l32 185q20 108 63.5 166t141.5 84l23-62q-76-25-107-66.5T303 1229h107l-33-185H195z"/><glyph unicode="’" horiz-adv-x="432" d="M188 1079q76 25 107 67t45 122H233l33 184h183l-33-184q-20-108-63.5-166T211 1018z"/><glyph unicode="‚" horiz-adv-x="493" d="M-8-188q75 25 106 66.5T143 0H37l33 184h182L219 0q-20-108-63.5-166T14-250z"/><glyph unicode="“" horiz-adv-x="786" d="M188 1044l33 185q20 108 63.5 166t141.5 84l23-62q-76-25-107-66.5T297 1229h106l-32-185H188zm338 0l33 185q20 108 63.5 166t141.5 84l22-62q-75-25-106-66.5T635 1229h106l-32-185H526z"/><glyph unicode="”" horiz-adv-x="765" d="M162 1079q75 25 105.5 66.5T313 1268H207l33 184h182l-33-184q-20-108-63.5-166T184 1018zm338 0q75 25 105.5 66.5T651 1268H545l33 184h182l-33-184q-20-108-63.5-166T522 1018z"/><glyph unicode="„" horiz-adv-x="817" d="M-33-188q76 25 107 66.5T119 0H12l33 184h182L195 0q-20-108-63.5-166T-10-250zm338 0q76 25 107 66.5T457 0H350l33 184h182L532 0q-20-108-63-166t-141-84z"/><glyph unicode="•" horiz-adv-x="868" d="M170 598q0 98 69 167t167 69 166.5-69T641 598t-68.5-167T406 362t-167 69-69 167z"/><glyph unicode="…" horiz-adv-x="1753" d="M74 0l32 182h177L250 0H74zm585 0l33 182h176L836 0H659zm586 0l33 182h176L1421 0h-176z"/><glyph horiz-adv-x="384"/><glyph unicode="‹" horiz-adv-x="645" d="M102 604l406 438 57-49-348-397 209-395-72-49z"/><glyph unicode="›" horiz-adv-x="624" d="M49 201l348 397-209 395 70 49 254-452-408-438z"/><glyph horiz-adv-x="480"/><glyph unicode="€" horiz-adv-x="1210" d="M45 526l16 86h152q6 99 27 201H94l17 86h149q76 286 252 426 160 129 362 129 107 0 206.5-32.5T1253 1323l-53-82q-133 115-332 115-168 0-299-113-132-112-198-344h610l-53-86H350q-22-107-28-201h497l-53-86H319q0-209 113-331Q547 74 750 74q139 0 258 61l22-88Q901-25 743-25q-230 0-374 134-155 146-158 417H45z"/><glyph unicode="™" horiz-adv-x="1687" d="M166 1370l16 84h557l-16-84H487L358 629h-86l129 741H166zm604-741l145 825h127l119-668 355 668h133l-146-825h-86l127 723-377-705h-59l-127 705-127-723h-84z"/><glyph unicode="" horiz-adv-x="1024" d="M0 0v1024h1024V0H0z"/></font>
</defs>
</svg>
