<svg xmlns="http://www.w3.org/2000/svg" viewBox="22.2 43.9 149.2 65.8" enable-background="new 22.2 43.9 149.2 65.8"><path fill="#fff" d="M-118.8-58.7h11.1l12 32.3 12-32.3h10.9l-18.5 46.1h-8.9l-18.6-46.1zM-39.3-21.8c-3.5 0-6.8-.6-9.8-1.9-3-1.2-5.5-2.9-7.7-5s-3.8-4.6-5-7.5c-1.2-2.9-1.8-5.9-1.8-9.2v-.1c0-3.3.6-6.3 1.8-9.2 1.2-2.9 2.9-5.4 5.1-7.5 2.2-2.2 4.7-3.9 7.7-5.1 3-1.2 6.2-1.9 9.8-1.9 3.5 0 6.8.6 9.8 1.9 3 1.2 5.5 2.9 7.7 5s3.8 4.6 5 7.5c1.2 2.9 1.8 5.9 1.8 9.2v.1c0 3.3-.6 6.3-1.8 9.2-1.2 2.9-2.9 5.4-5.1 7.5-2.2 2.2-4.7 3.9-7.7 5.1-3 1.3-6.3 1.9-9.8 1.9zm.1-9.3c2 0 3.9-.4 5.6-1.1 1.7-.7 3.2-1.8 4.4-3.1 1.2-1.3 2.1-2.8 2.8-4.5.7-1.7 1-3.6 1-5.5v-.1c0-2-.3-3.8-1-5.6-.7-1.7-1.6-3.3-2.9-4.6-1.2-1.3-2.7-2.3-4.4-3.1-1.7-.8-3.6-1.1-5.6-1.1-2.1 0-3.9.4-5.6 1.1-1.7.7-3.1 1.8-4.3 3.1-1.2 1.3-2.1 2.8-2.8 4.5-.7 1.7-1 3.6-1 5.5v.1c0 2 .3 3.8 1 5.6.7 1.7 1.6 3.3 2.9 4.6 1.2 1.3 2.7 2.3 4.4 3.1 1.6.7 3.5 1.1 5.5 1.1zM2.7-50.7l-17.6-27.7h11.8L7.8-60l11.1-18.4h11.5L12.8-50.9v18.3H2.7v-18.1zM157.2-4c3-15 0-18 0-18-49.6 36.6-71.5-35.3-135.1 7.8 0 0 4 4.6 13 8.5-1.3 13.7.4 17.4.4 17.4 53.3-33.7 63 33.1 133.4-4.9 0-.1-2.7-6.3-11.7-10.8zm-29.4 19.8c-13 0-23.4-4.5-33.4-8.8-9.6-4.2-18.7-8.2-29.6-8.2-8.7 0-17.6 2.7-27.1 8-.2-2.5-.2-6.3.4-12.2l.2-2.1-1.9-.8c-4.3-1.9-7.3-4-9.4-5.5 12.5-7.8 24.2-11.6 35.6-11.6 12.6 0 23.5 4.5 34.1 8.9 10.5 4.3 20.3 8.4 31.4 8.4 9.3 0 18.3-2.9 27.4-8.9.2 2.3.1 6.2-1.2 12.7l-.5 2.2 2 1c4.6 2.2 7.3 5 8.8 6.9-13.4 6.7-25.5 10-36.8 10z"/><text transform="translate(59.957 -6.554)" fill="#fff" font-family="'Interstate-Bold'" font-size="19.085">V</text><text transform="translate(86.365 .581)" fill="#fff" font-family="'Interstate-Bold'" font-size="19.085">O</text><text transform="translate(113.874 10.666)" fill="#fff" font-family="'Interstate-Bold'" font-size="19.085">Y</text><path fill="#fff" d="M157.3-4.1c3-15 0-18 0-18-49.6 36.5-71.5-35.4-135.1 7.8 0 0 4 4.6 13 8.5-1.3 13.6.4 17.3.4 17.3 53.3-33.7 63 33.1 133.4-4.9 0-.1-2.7-6.3-11.7-10.7zM128 15.7c-13 0-23.4-4.5-33.4-8.8C84.9 2.7 75.9-1.3 65-1.3c-8.7 0-17.6 2.7-27.1 8-.2-2.5-.2-6.3.4-12.2l.2-2.1-1.9-.8c-4.3-1.9-7.3-4-9.4-5.5 12.5-7.9 24.2-11.7 35.6-11.7 12.6 0 23.5 4.5 34.1 8.9 10.5 4.3 20.3 8.4 31.4 8.4 9.3 0 18.3-2.9 27.4-8.9.2 2.3.1 6.2-1.2 12.7l-.5 2.1 2 1c4.6 2.2 7.3 5 8.8 6.9-13.5 6.8-25.5 10.2-36.8 10.2z"/><path fill="#fff" d="M68.2-6.7h-2.6l-4.8-13.4h3l2.5 7.7c.1.2.1.4.2.6.1.2.1.4.2.6.1.2.1.4.2.6 0 .2.1.3.1.4.1-.3.1-.6.3-1 .1-.4.2-.8.4-1.2l2.5-7.7H73L68.2-6.7zM99.1-6.3c0 1-.1 1.9-.4 2.8-.3.8-.6 1.6-1.1 2.2-.5.6-1.1 1.1-1.8 1.4-.7.3-1.5.5-2.5.5-.9 0-1.7-.2-2.5-.5-.7-.3-1.3-.8-1.8-1.4-.5-.6-.9-1.3-1.1-2.2-.3-.8-.4-1.8-.4-2.8s.1-1.9.4-2.8c.3-.8.6-1.6 1.1-2.2.5-.6 1.1-1.1 1.8-1.4.7-.3 1.5-.5 2.5-.5.9 0 1.7.2 2.5.5.7.3 1.3.8 1.8 1.4.5.6.9 1.3 1.1 2.2.3.9.4 1.8.4 2.8zm-2.7 0c0-.6-.1-1.2-.2-1.7s-.3-1-.5-1.3c-.2-.4-.6-.7-1-.9-.4-.2-.8-.3-1.4-.3-.5 0-1 .1-1.4.3-.4.2-.7.5-1 .9-.2.4-.4.8-.5 1.3-.1.5-.2 1.1-.2 1.7s.1 1.2.2 1.7.3 1 .5 1.3c.2.4.6.7 1 .9.4.3.9.4 1.4.4.5 0 1-.1 1.4-.3.4-.2.7-.5 1-.9.2-.4.4-.8.5-1.3.1-.6.2-1.2.2-1.8zM122.2 5.2v5.3h-2.7V5.3l-5.1-8.1h3.1l1.9 3.2c.1.2.2.4.4.7.1.2.3.5.4.7.1.2.3.5.4.7.1.2.2.4.3.5.1-.1.2-.3.3-.5.1-.2.2-.4.4-.7.1-.2.3-.5.4-.7.1-.2.3-.5.4-.7l1.9-3.2h3l-5.1 8z" enable-background="new"/><g fill="#A7C3C6"><path d="M366.4 4.7c3.1-15.2 0-18.3 0-18.3-50.3 37.1-72.4-35.8-136.9 7.9 0 0 4.1 4.7 13.1 8.7-1.3 13.8.4 17.5.4 17.5 54-34.2 63.9 33.5 135.2-4.9.1-.1-2.6-6.5-11.8-10.9zM276 2h-2.6l-4.8-13.5h3l2.6 7.8c.1.2.1.4.2.6.1.2.1.4.2.6.1.2.1.4.2.6 0 .2.1.3.1.4.1-.3.2-.6.3-1 .1-.4.2-.8.4-1.2l2.5-7.8h3L276 2zm31 3.3c-.3.9-.6 1.6-1.2 2.2-.5.6-1.1 1.1-1.8 1.4-.7.3-1.6.5-2.5.5-.9 0-1.8-.2-2.5-.5s-1.3-.8-1.8-1.4c-.5-.6-.9-1.3-1.2-2.2-.3-.9-.4-1.8-.4-2.8s.1-2 .4-2.8c.3-.9.6-1.6 1.2-2.2.5-.6 1.1-1.1 1.8-1.4.7-.3 1.6-.5 2.5-.5.9 0 1.8.2 2.5.5s1.3.8 1.8 1.4c.5.6.9 1.3 1.2 2.2.3.9.4 1.8.4 2.8s-.2 2-.4 2.8zm23.7 8.8v5.4H328v-5.3L322.9 6h3.1l1.9 3.2c.1.2.2.4.4.7.1.3.3.5.4.8.1.3.3.5.4.7.1.2.2.4.3.5.1-.1.2-.3.3-.5.1-.2.2-.4.4-.7.1-.2.3-.5.4-.7.1-.3.3-.5.4-.7l1.9-3.2h3.1l-5.2 8zM303.9-.6c-.3-.4-.6-.7-1-.9-.4-.2-.9-.3-1.4-.3-.5 0-1 .1-1.4.3-.4.2-.7.5-1 .9-.3.4-.4.8-.6 1.4-.1.5-.2 1.1-.2 1.7 0 .6.1 1.2.2 1.7s.3 1 .6 1.4c.3.4.6.7 1 .9.4.2.9.3 1.4.3.5 0 1-.1 1.4-.3.4-.2.7-.5 1-.9.3-.4.4-.8.6-1.4.1-.5.2-1.1.2-1.7 0-.6-.1-1.2-.2-1.7-.2-.5-.4-1-.6-1.4z"/></g><g fill="#333"><path d="M925.9 84.6c.4-1 .9-1.4 1.7-1.4h9.2c1.5 0 2.1 1.2 1.7 2.1L923 127.9c-.4.9-.9 1.4-1.7 1.4h-9.8c-.8 0-1.4-.5-1.7-1.4L894 85.4c-.4-.9.3-2.1 1.7-2.1h9.2c.8 0 1.4.4 1.7 1.4l9 26.2c.2.6.9.6 1.1 0l9.2-26.3zM987.1 99.4c.5 3.7.5 10.1 0 13.8-1.2 9.7-7.8 17.1-19.1 17.1s-18-7.5-19.1-17.1c-.5-3.7-.5-10.1 0-13.8 1.2-9.7 7.8-17.1 19.1-17.1 11.2-.1 17.9 7.4 19.1 17.1zm-12 13.8c.6-3.7.6-10.1 0-13.8-.5-3-2.5-5.2-7.2-5.2-4.6 0-6.5 1.7-7.1 5.2-.6 3.7-.6 10.1 0 13.8.5 3.2 2.5 5.2 7.1 5.2 4.7-.1 6.7-2.2 7.2-5.2zM1019.6 110.8c.3.7.9.7 1.1 0l7.5-26.1c.3-1 .9-1.4 1.7-1.4h9.3c1.5 0 2.1 1.2 1.7 2.1l-21.6 60.9c-.4 1-.9 1.4-1.7 1.4h-8.5c-1.5 0-2.1-1.2-1.7-2.1l6.4-17.2c.3-.8.4-1.1 0-2l-15.3-41c-.4-.9.3-2.1 1.7-2.1h9.5c.8 0 1.4.4 1.7 1.4l8.2 26.1z"/></g><g fill="#333"><path d="M751 17.2c.1-.8.7-1.1 1.3-1.1h7.8c1.1 0 1.6 1 1.3 1.7l-12.2 46.7c-.2.7-.7 1.1-1.3 1.1h-10.7c-.6 0-1.1-.4-1.3-1.1l-12.2-46.7c-.2-.7.2-1.7 1.3-1.7h7.8c.6 0 1.2.3 1.3 1.1l7.8 33.1c.1.3.2.5.5.5h.4c.3 0 .4-.2.5-.5l7.7-33.1zM796.1 42.6c.4 2.8.4 7.8 0 10.6-.9 7.4-6 13.1-14.6 13.1-8.7 0-13.8-5.7-14.7-13.1-.4-2.8-.4-7.8 0-10.6.9-7.4 6-13.1 14.6-13.1 8.7 0 13.8 5.7 14.7 13.1zm-9.2 10.6c.4-2.8.4-7.8 0-10.6-.4-2.3-1.9-4-5.5-4-3.5 0-5 1.3-5.4 4-.4 2.8-.4 7.8 0 10.6.4 2.5 1.9 4 5.4 4 3.6 0 5.1-1.7 5.5-4zM820.1 51.4c.2.6.7.6.8 0l5.7-20.1c.2-.8.7-1.1 1.3-1.1h7.1c1.1 0 1.6.9 1.3 1.6l-16.6 46.7c-.3.8-.7 1.1-1.3 1.1h-6.5c-1.1 0-1.6-.9-1.3-1.6l4.9-13.2c.2-.6.3-.8 0-1.6L804 31.9c-.3-.7.2-1.6 1.3-1.6h7.3c.6 0 1.1.3 1.3 1.1l6.2 20z"/></g><g fill="#333"><path d="M601.3 11.6c.4-1 .9-1.3 1.7-1.3h8.9c1.4 0 2.1 1.2 1.7 2.1l-15.2 41.3c-.4.9-.9 1.3-1.7 1.3h-9.5c-.8 0-1.3-.4-1.7-1.3l-15.4-41.3c-.4-.9.3-2.1 1.7-2.1h8.9c.8 0 1.3.4 1.7 1.3l8.8 25.5c.2.6.9.6 1.1 0l9-25.5zM659.5 25.9c.4 3.6.4 9.8 0 13.4-1.2 9.4-7.6 16.6-18.5 16.6-11 0-17.4-7.2-18.6-16.6-.4-3.6-.4-9.8 0-13.4 1.2-9.4 7.6-16.6 18.5-16.6 11 0 17.5 7.2 18.6 16.6zm-11.6 13.4c.5-3.6.5-9.8 0-13.4-.4-2.9-2.4-5-7-5-4.5 0-6.3 1.6-6.9 5-.5 3.6-.5 9.8 0 13.4.4 3.1 2.4 5 6.9 5 4.6 0 6.6-2 7-5zM690 37c.3.7.9.7 1.1 0l7.2-25.4c.3-1 .9-1.3 1.7-1.3h9c1.4 0 2.1 1.2 1.7 2.1l-21 59.2c-.4 1-.9 1.3-1.7 1.3h-8.2c-1.4 0-2.1-1.2-1.7-2.1l6.3-16.7c.3-.8.4-1.1 0-2l-14.8-39.8c-.4-.9.3-2.1 1.7-2.1h9.2c.8 0 1.3.4 1.7 1.3L690 37z"/></g><g fill="#333"><path d="M560-188.5c.4-1 .9-1.3 1.7-1.3h8.9c1.4 0 2.1 1.2 1.7 2.1l-15.2 41.3c-.4.9-.9 1.3-1.7 1.3H546c-.8 0-1.3-.4-1.7-1.3l-15.4-41.3c-.4-.9.3-2.1 1.7-2.1h8.9c.8 0 1.3.4 1.7 1.3L550-163c.2.6.9.6 1.1 0l8.9-25.5zM618.3-174.2c.4 3.6.4 9.8 0 13.4-1.2 9.4-7.6 16.6-18.5 16.6-11 0-17.4-7.2-18.6-16.6-.4-3.6-.4-9.8 0-13.4 1.2-9.4 7.6-16.6 18.5-16.6 11 0 17.4 7.2 18.6 16.6zm-11.7 13.4c.5-3.6.5-9.8 0-13.4-.4-2.9-2.4-5-7-5-4.5 0-6.3 1.6-6.9 5-.5 3.6-.5 9.8 0 13.4.4 3.1 2.4 5 6.9 5 4.6 0 6.6-2 7-5zM648.7-163.1c.3.7.9.7 1.1 0l7.2-25.4c.3-1 .9-1.3 1.7-1.3h9c1.4 0 2.1 1.2 1.7 2.1l-21 59.2c-.4 1-.9 1.3-1.7 1.3h-8.2c-1.4 0-2.1-1.2-1.7-2.1l6.3-16.7c.3-.8.4-1.1 0-2l-14.8-39.8c-.4-.9.3-2.1 1.7-2.1h9.2c.8 0 1.3.4 1.7 1.3l7.8 25.5z"/></g><g fill="#fff"><path d="M73 64.6c.2-.5.5-.7.9-.7h4.7c.8 0 1.1.6.9 1.1l-8 21.9c-.2.5-.5.7-.9.7h-5c-.4 0-.7-.2-.9-.7L56.6 65c-.2-.5.1-1.1.9-1.1h4.7c.4 0 .7.2.9.7L67.7 78c.1.3.5.3.6 0L73 64.6zM103.8 72.1c.2 1.9.2 5.2 0 7.1-.6 5-4 8.8-9.8 8.8-5.8 0-9.2-3.8-9.8-8.8-.2-1.9-.2-5.2 0-7.1.6-5 4-8.8 9.8-8.8 5.8 0 9.2 3.9 9.8 8.8zm-6.1 7.1c.3-1.9.3-5.2 0-7.1-.2-1.6-1.3-2.6-3.7-2.6-2.4 0-3.4.9-3.6 2.6-.3 1.9-.3 5.2 0 7.1.2 1.7 1.3 2.6 3.6 2.6 2.4.1 3.4-1 3.7-2.6zM119.9 78c.1.4.5.4.6 0l3.8-13.4c.1-.5.5-.7.9-.7h4.8c.8 0 1.1.6.9 1.1l-11.1 31.3c-.2.5-.5.7-.9.7h-4.4c-.8 0-1.1-.6-.9-1.1L117 87c.1-.4.2-.6 0-1l-7.9-21.1c-.2-.5.1-1.1.9-1.1h4.9c.4 0 .7.2.9.7l4.1 13.5zM144.6 107H42.8c-2.2 0-4-1.8-4-4V51c0-2.2 1.8-4 4-4h101.8c2.2 0 4 1.8 4 4v52c0 2.2-1.8 4-4 4zm-99.8-6h97.8V53H44.8v48z"/></g><g fill="#EF7052"><path d="M239.5 177.6c.2-.5.5-.7.9-.7h4.7c.8 0 1.1.6.9 1.1l-8 21.9c-.2.5-.5.7-.9.7h-5c-.4 0-.7-.2-.9-.7l-8.1-21.9c-.2-.5.1-1.1.9-1.1h4.7c.4 0 .7.2.9.7l4.6 13.5c.1.3.5.3.6 0l4.7-13.5zM270.3 185.1c.2 1.9.2 5.2 0 7.1-.6 5-4 8.8-9.8 8.8-5.8 0-9.2-3.8-9.8-8.8-.2-1.9-.2-5.2 0-7.1.6-5 4-8.8 9.8-8.8 5.8 0 9.2 3.9 9.8 8.8zm-6.1 7.1c.3-1.9.3-5.2 0-7.1-.2-1.6-1.3-2.6-3.7-2.6-2.4 0-3.4.9-3.6 2.6-.3 1.9-.3 5.2 0 7.1.2 1.7 1.3 2.6 3.6 2.6 2.4.1 3.4-1 3.7-2.6zM286.4 191c.1.4.5.4.6 0l3.8-13.4c.1-.5.5-.7.9-.7h4.8c.8 0 1.1.6.9 1.1l-11.1 31.3c-.2.5-.5.7-.9.7H281c-.8 0-1.1-.6-.9-1.1l3.3-8.8c.1-.4.2-.6 0-1l-7.9-21.1c-.2-.5.1-1.1.9-1.1h4.9c.4 0 .7.2.9.7l4.2 13.4zM311.1 220H209.3c-2.2 0-4-1.8-4-4v-52c0-2.2 1.8-4 4-4h101.8c2.2 0 4 1.8 4 4v52c0 2.2-1.8 4-4 4zm-99.8-6h97.8v-48h-97.8v48z"/></g><g fill="#333"><path d="M79.6 212.3c.2-.5.5-.7.9-.7h4.7c.8 0 1.1.6.9 1.1l-8 21.9c-.2.5-.5.7-.9.7h-5c-.4 0-.7-.2-.9-.7l-8.1-21.9c-.2-.5.1-1.1.9-1.1h4.7c.4 0 .7.2.9.7l4.6 13.5c.1.3.5.3.6 0l4.7-13.5zM110.5 219.9c.2 1.9.2 5.2 0 7.1-.6 5-4 8.8-9.8 8.8-5.8 0-9.2-3.8-9.8-8.8-.2-1.9-.2-5.2 0-7.1.6-5 4-8.8 9.8-8.8 5.8 0 9.2 3.8 9.8 8.8zm-6.2 7.1c.3-1.9.3-5.2 0-7.1-.2-1.6-1.3-2.6-3.7-2.6-2.4 0-3.4.9-3.6 2.6-.3 1.9-.3 5.2 0 7.1.2 1.7 1.3 2.6 3.6 2.6 2.5 0 3.5-1 3.7-2.6zM126.6 225.8c.1.4.5.4.6 0l3.8-13.4c.1-.5.5-.7.9-.7h4.8c.8 0 1.1.6.9 1.1L126.5 244c-.2.5-.5.7-.9.7h-4.4c-.8 0-1.1-.6-.9-1.1l3.3-8.8c.1-.4.2-.6 0-1l-7.9-21.1c-.2-.5.1-1.1.9-1.1h4.9c.4 0 .7.2.9.7l4.2 13.5z"/></g><path fill="#333" d="M151.3 254.8H49.5c-2.2 0-4-1.8-4-4v-52c0-2.2 1.8-4 4-4h101.8c2.2 0 4 1.8 4 4v52c0 2.2-1.8 4-4 4zm-99.8-6h97.8v-48H51.5v48z"/><g fill="#333"><path d="M249.8 63c.2-.5.5-.7.9-.7h4.7c.8 0 1.1.6.9 1.1l-8 21.9c-.2.5-.5.7-.9.7h-5c-.4 0-.7-.2-.9-.7l-8.1-21.9c-.2-.5.1-1.1.9-1.1h4.7c.4 0 .7.2.9.7l4.6 13.5c.1.3.5.3.6 0l4.7-13.5zM280.6 70.6c.2 1.9.2 5.2 0 7.1-.6 5-4 8.8-9.8 8.8-5.8 0-9.2-3.8-9.8-8.8-.2-1.9-.2-5.2 0-7.1.6-5 4-8.8 9.8-8.8 5.8 0 9.2 3.8 9.8 8.8zm-6.1 7.1c.3-1.9.3-5.2 0-7.1-.2-1.6-1.3-2.6-3.7-2.6-2.4 0-3.4.9-3.6 2.6-.3 1.9-.3 5.2 0 7.1.2 1.7 1.3 2.6 3.6 2.6 2.4 0 3.5-1.1 3.7-2.6zM296.8 76.4c.1.4.5.4.6 0l3.8-13.4c.1-.5.5-.7.9-.7h4.8c.8 0 1.1.6.9 1.1l-11.1 31.3c-.2.5-.5.7-.9.7h-4.4c-.8 0-1.1-.6-.9-1.1l3.3-8.8c.1-.4.2-.6 0-1l-7.9-21.1c-.2-.5.1-1.1.9-1.1h4.9c.4 0 .7.2.9.7l4.2 13.4z"/></g><path stroke="#333" stroke-width="6" stroke-miterlimit="10" d="M327.6 102.1c-.4.3-1.3.6-1.8.6h-103c-.6 0-1-.5-1-1V49.2c0-.5.4-1 1-1h103c.6 0 1.4.3 1.8.6l35.9 25.8c.4.3.4.9 0 1.2l-35.9 26.3zM326.8 47.2l-5.4 7.3c-.3.4-.3 1.2 0 1.6l4.8 6.5c.3.4.3 1.2 0 1.6l-4.8 6.5c-.3.4-.3 1.2 0 1.6l4.8 6.5c.3.4.3 1.2 0 1.6l-4.8 6.5c-.3.4-.3 1.2 0 1.6l4.8 6.5c.3.4.3 1.2 0 1.6l-5.4 7.3" fill="none"/><path fill="#333" d="M358.5 81H357c-2.8 0-5-2.2-5-5v-1.5c0-2.8 2.2-5 5-5h1.5c2.8 0 5 2.2 5 5V76c0 2.8-2.3 5-5 5z"/></svg>