<?xml version="1.0" encoding="utf-8"?>
<!-- Generator: Adobe Illustrator 18.1.1, SVG Export Plug-In . SVG Version: 6.00 Build 0)  -->
<!DOCTYPE svg PUBLIC "-//W3C//DTD SVG 1.1//EN" "http://www.w3.org/Graphics/SVG/1.1/DTD/svg11.dtd">
<svg version="1.1" id="Layer_1" xmlns="http://www.w3.org/2000/svg" xmlns:xlink="http://www.w3.org/1999/xlink" x="0px" y="0px"
	 viewBox="0 0 201 65" enable-background="new 0 0 201 65" xml:space="preserve">
<g>
	<path fill="#5D5D5D" d="M184.5,33.9c4.1-20.4,0-24.5,0-24.5C116.9,59.2,87.1-38.7,0.5,20c0,0,5.5,6.3,17.6,11.6
		c-1.8,18.5,0.5,23.5,0.5,23.5c72.6-45.9,85.9,45.1,181.7-6.6C200.4,48.4,196.7,39.9,184.5,33.9z M144.4,60.8
		c-17.8,0-31.9-6.1-45.6-12C85.7,43,73.4,37.7,58.5,37.7c-11.9,0-24,3.6-36.9,10.9c-0.3-3.4-0.3-8.6,0.5-16.6l0.3-2.9l-2.6-1.1
		c-5.9-2.6-10-5.4-12.8-7.5C24,9.8,39.9,4.6,55.5,4.6c17.1,0,32,6.1,46.4,12.1c14.3,5.9,27.7,11.4,42.8,11.4
		c12.6,0,24.9-4,37.3-12.1c0.3,3.1,0.1,8.5-1.6,17.3l-0.6,3l2.8,1.4c6.3,3,10,6.8,12,9.4C176.2,56.3,159.8,60.8,144.4,60.8z"/>
	<text transform="matrix(1 0 0 1 51.9503 30.3736)" fill="#5D5D5D" font-family="'Interstate-Bold'" font-size="25.9994">V</text>
	<text transform="matrix(1 0 0 1 87.9253 40.0922)" fill="#5D5D5D" font-family="'Interstate-Bold'" font-size="25.9994">O</text>
	<text transform="matrix(1 0 0 1 125.3989 53.8316)" fill="#5D5D5D" font-family="'Interstate-Bold'" font-size="25.9994">Y</text>
	<path fill="#5D5D5D" d="M184.6,33.7c4.1-20.4,0-24.5,0-24.5C117,58.8,87.2-39.1,0.6,19.8c0,0,5.5,6.3,17.6,11.6
		c-1.8,18.5,0.5,23.5,0.5,23.5C91.3,9,104.6,100,200.5,48.3C200.5,48.2,196.8,39.7,184.6,33.7z M144.7,60.7
		c-17.8,0-31.9-6.1-45.6-12C86,42.9,73.7,37.5,58.8,37.5c-11.9,0-24,3.6-36.9,10.9c-0.3-3.4-0.3-8.6,0.5-16.6l0.3-2.9L20,27.8
		c-5.9-2.6-10-5.4-12.8-7.5C24.3,9.5,40.2,4.4,55.8,4.4c17.1,0,32,6.1,46.4,12.1c14.3,5.9,27.7,11.4,42.8,11.4
		c12.6,0,24.9-4,37.3-12.1c0.3,3.1,0.1,8.5-1.6,17.3l-0.6,3l2.8,1.4c6.3,3,10,6.8,12,9.4C176.4,56.1,160.1,60.7,144.7,60.7z"/>
	<g enable-background="new    ">
		<path fill="#5D5D5D" d="M63.2,30.2h-3.5L53.2,12h4l3.4,10.5c0.1,0.3,0.2,0.5,0.3,0.8c0.1,0.3,0.2,0.6,0.2,0.8
			c0.1,0.3,0.1,0.5,0.2,0.8c0.1,0.2,0.1,0.4,0.1,0.6c0.1-0.3,0.2-0.8,0.4-1.4c0.1-0.6,0.3-1.1,0.5-1.6L65.7,12h4L63.2,30.2z"/>
	</g>
	<g enable-background="new    ">
		<path fill="#5D5D5D" d="M105.3,30.8c0,1.4-0.2,2.7-0.5,3.8c-0.4,1.2-0.9,2.1-1.5,3s-1.5,1.5-2.5,1.9c-1,0.5-2.1,0.7-3.3,0.7
			s-2.4-0.2-3.3-0.7c-1-0.5-1.8-1.1-2.5-1.9c-0.7-0.8-1.2-1.8-1.5-3c-0.4-1.2-0.5-2.4-0.5-3.8c0-1.4,0.2-2.7,0.5-3.8
			c0.4-1.2,0.9-2.1,1.5-3c0.7-0.8,1.5-1.5,2.5-1.9c1-0.5,2.1-0.7,3.3-0.7s2.4,0.2,3.3,0.7c1,0.5,1.8,1.1,2.5,1.9s1.2,1.8,1.5,3
			C105.2,28.1,105.3,29.4,105.3,30.8z M101.6,30.8c0-0.8-0.1-1.6-0.2-2.3c-0.2-0.7-0.4-1.3-0.7-1.8s-0.8-0.9-1.3-1.2
			c-0.5-0.3-1.2-0.4-1.9-0.4s-1.4,0.1-1.9,0.4c-0.5,0.3-1,0.7-1.3,1.2c-0.3,0.5-0.6,1.1-0.7,1.8c-0.2,0.7-0.2,1.5-0.2,2.3
			s0.1,1.6,0.2,2.3c0.2,0.7,0.4,1.3,0.7,1.8c0.3,0.5,0.8,0.9,1.3,1.2c0.5,0.3,1.2,0.4,1.9,0.4s1.4-0.1,1.9-0.4s1-0.7,1.3-1.2
			c0.3-0.5,0.6-1.1,0.7-1.8C101.5,32.3,101.6,31.6,101.6,30.8z"/>
	</g>
	<g enable-background="new    ">
		<path fill="#5D5D5D" d="M136.7,46.4v7.2h-3.6v-7.1l-6.9-11.1h4.2l2.6,4.3c0.2,0.3,0.3,0.6,0.5,0.9c0.2,0.3,0.4,0.7,0.6,1
			c0.2,0.3,0.3,0.6,0.5,0.9c0.2,0.3,0.3,0.5,0.4,0.7c0.1-0.2,0.2-0.4,0.4-0.7c0.2-0.3,0.3-0.6,0.5-0.9s0.4-0.7,0.6-1
			s0.4-0.7,0.5-0.9l2.6-4.3h4.1L136.7,46.4z"/>
	</g>
</g>
</svg>
