<?xml version="1.0" encoding="utf-8"?>
<!-- Generator: Adobe Illustrator 18.1.0, SVG Export Plug-In . SVG Version: 6.00 Build 0)  -->
<!DOCTYPE svg PUBLIC "-//W3C//DTD SVG 1.1//EN" "http://www.w3.org/Graphics/SVG/1.1/DTD/svg11.dtd">
<svg version="1.1" id="Layer_1" xmlns="http://www.w3.org/2000/svg" xmlns:xlink="http://www.w3.org/1999/xlink" x="0px" y="0px"
	 viewBox="21 43.9 148.7 49.1" enable-background="new 21 43.9 148.7 49.1" xml:space="preserve">
<path fill="#FFFFFF" d="M-118.8-58.7h11.1l12,32.3l12-32.3h10.9l-18.5,46.1h-8.9L-118.8-58.7z"/>
<path fill="#FFFFFF" d="M-39.3-21.8c-3.5,0-6.8-0.6-9.8-1.9c-3-1.2-5.5-2.9-7.7-5c-2.2-2.1-3.8-4.6-5-7.5c-1.2-2.9-1.8-5.9-1.8-9.2
	v-0.1c0-3.3,0.6-6.3,1.8-9.2c1.2-2.9,2.9-5.4,5.1-7.5c2.2-2.2,4.7-3.9,7.7-5.1c3-1.2,6.2-1.9,9.8-1.9c3.5,0,6.8,0.6,9.8,1.9
	c3,1.2,5.5,2.9,7.7,5c2.2,2.1,3.8,4.6,5,7.5c1.2,2.9,1.8,5.9,1.8,9.2v0.1c0,3.3-0.6,6.3-1.8,9.2c-1.2,2.9-2.9,5.4-5.1,7.5
	c-2.2,2.2-4.7,3.9-7.7,5.1C-32.5-22.4-35.8-21.8-39.3-21.8z M-39.2-31.1c2,0,3.9-0.4,5.6-1.1c1.7-0.7,3.2-1.8,4.4-3.1
	c1.2-1.3,2.1-2.8,2.8-4.5c0.7-1.7,1-3.6,1-5.5v-0.1c0-2-0.3-3.8-1-5.6c-0.7-1.7-1.6-3.3-2.9-4.6c-1.2-1.3-2.7-2.3-4.4-3.1
	c-1.7-0.8-3.6-1.1-5.6-1.1c-2.1,0-3.9,0.4-5.6,1.1c-1.7,0.7-3.1,1.8-4.3,3.1c-1.2,1.3-2.1,2.8-2.8,4.5c-0.7,1.7-1,3.6-1,5.5v0.1
	c0,2,0.3,3.8,1,5.6c0.7,1.7,1.6,3.3,2.9,4.6c1.2,1.3,2.7,2.3,4.4,3.1C-43.1-31.5-41.2-31.1-39.2-31.1z"/>
<path fill="#FFFFFF" d="M2.7-50.7l-17.6-27.7h11.8L7.8-60l11.1-18.4h11.5L12.8-50.9v18.3H2.7V-50.7z"/>
<g>
	<g enable-background="new    ">
		<path fill="#EF7052" d="M122,13.5v5.3h-2.7v-5.2l-5.1-8.1h3.1l1.9,3.2c0.1,0.2,0.2,0.4,0.4,0.7c0.1,0.2,0.3,0.5,0.4,0.7
			c0.1,0.2,0.3,0.5,0.4,0.7c0.1,0.2,0.2,0.4,0.3,0.5c0.1-0.1,0.2-0.3,0.3-0.5c0.1-0.2,0.2-0.4,0.4-0.7c0.1-0.2,0.3-0.5,0.4-0.7
			c0.1-0.2,0.3-0.5,0.4-0.7l1.9-3.2h3L122,13.5z"/>
	</g>
	<path fill="#EF7052" d="M157.3,3.9c3-15,0-18,0-18C107.7,22.4,85.8-49.4,22.3-6.3c0,0,4,4.6,13,8.5c-1.3,13.6,0.4,17.3,0.4,17.3
		c53.3-33.7,63,33.1,133.4-4.9C169,14.6,166.3,8.3,157.3,3.9z M128,23.8c-13,0-23.4-4.5-33.4-8.8C84.9,10.7,75.9,6.8,65,6.8
		c-8.7,0-17.6,2.7-27.1,8c-0.2-2.5-0.2-6.3,0.4-12.2l0.2-2.1l-1.9-0.8c-4.3-1.9-7.3-4-9.4-5.5c12.5-7.9,24.2-11.7,35.6-11.7
		c12.6,0,23.5,4.5,34.1,8.9c10.5,4.3,20.3,8.4,31.4,8.4c9.3,0,18.3-2.9,27.4-8.9c0.2,2.3,0.1,6.2-1.2,12.7L154,5.7l2,1
		c4.6,2.2,7.3,5,8.8,6.9C151.3,20.4,139.3,23.8,128,23.8z"/>
	<g enable-background="new    ">
		<path fill="#EF7052" d="M68.2,1.4h-2.6L60.9-12h3l2.5,7.7c0.1,0.2,0.1,0.4,0.2,0.6c0.1,0.2,0.1,0.4,0.2,0.6
			c0.1,0.2,0.1,0.4,0.2,0.6c0,0.2,0.1,0.3,0.1,0.4c0.1-0.3,0.1-0.6,0.3-1c0.1-0.4,0.2-0.8,0.4-1.2l2.5-7.7H73L68.2,1.4z"/>
	</g>
	<g enable-background="new    ">
		<path fill="#EF7052" d="M99.1,1.8c0,1-0.1,1.9-0.4,2.8c-0.3,0.8-0.6,1.6-1.1,2.2c-0.5,0.6-1.1,1.1-1.8,1.4
			c-0.7,0.3-1.5,0.5-2.5,0.5c-0.9,0-1.7-0.2-2.5-0.5c-0.7-0.3-1.3-0.8-1.8-1.4c-0.5-0.6-0.9-1.3-1.1-2.2c-0.3-0.8-0.4-1.8-0.4-2.8
			s0.1-1.9,0.4-2.8c0.3-0.8,0.6-1.6,1.1-2.2c0.5-0.6,1.1-1.1,1.8-1.4c0.7-0.3,1.5-0.5,2.5-0.5c0.9,0,1.7,0.2,2.5,0.5
			c0.7,0.3,1.3,0.8,1.8,1.4c0.5,0.6,0.9,1.3,1.1,2.2C99-0.1,99.1,0.8,99.1,1.8z M96.4,1.8c0-0.6-0.1-1.2-0.2-1.7
			c-0.1-0.5-0.3-1-0.5-1.3s-0.6-0.7-1-0.9c-0.4-0.2-0.8-0.3-1.4-0.3c-0.5,0-1,0.1-1.4,0.3c-0.4,0.2-0.7,0.5-1,0.9
			c-0.2,0.4-0.4,0.8-0.5,1.3c-0.1,0.5-0.2,1.1-0.2,1.7s0.1,1.2,0.2,1.7c0.1,0.5,0.3,1,0.5,1.3c0.2,0.4,0.6,0.7,1,0.9
			c0.4,0.2,0.8,0.3,1.4,0.3c0.5,0,1-0.1,1.4-0.3c0.4-0.2,0.7-0.5,1-0.9c0.2-0.4,0.4-0.8,0.5-1.3C96.3,3,96.4,2.4,96.4,1.8z"/>
	</g>
</g>
<g>
	<path fill="#EF7052" d="M157.9,68.7c3.1-15.2,0-18.3,0-18.3C107.6,87.5,85.5,14.7,21,58.4c0,0,4.1,4.7,13.1,8.7
		c-1.3,13.8,0.4,17.5,0.4,17.5c54-34.2,63.9,33.5,135.2-4.9C169.8,79.5,167.1,73.2,157.9,68.7z M67.5,66.1h-2.6l-4.8-13.5h3l2.6,7.8
		c0.1,0.2,0.1,0.4,0.2,0.6c0.1,0.2,0.1,0.4,0.2,0.6c0.1,0.2,0.1,0.4,0.2,0.6c0,0.2,0.1,0.3,0.1,0.4c0.1-0.3,0.2-0.6,0.3-1
		c0.1-0.4,0.2-0.8,0.4-1.2l2.5-7.8h3L67.5,66.1z M98.5,69.4c-0.3,0.9-0.6,1.6-1.2,2.2c-0.5,0.6-1.1,1.1-1.8,1.4
		c-0.7,0.3-1.6,0.5-2.5,0.5c-0.9,0-1.8-0.2-2.5-0.5s-1.3-0.8-1.8-1.4c-0.5-0.6-0.9-1.3-1.2-2.2c-0.3-0.9-0.4-1.8-0.4-2.8
		c0-1,0.1-2,0.4-2.8c0.3-0.9,0.6-1.6,1.2-2.2c0.5-0.6,1.1-1.1,1.8-1.4c0.7-0.3,1.6-0.5,2.5-0.5c0.9,0,1.8,0.2,2.5,0.5
		c0.7,0.3,1.3,0.8,1.8,1.4c0.5,0.6,0.9,1.3,1.2,2.2c0.3,0.9,0.4,1.8,0.4,2.8C98.9,67.6,98.7,68.5,98.5,69.4z M122.2,78.2v5.4h-2.7
		v-5.3l-5.1-8.2h3.1l1.9,3.2c0.1,0.2,0.2,0.4,0.4,0.7c0.1,0.3,0.3,0.5,0.4,0.8c0.1,0.3,0.3,0.5,0.4,0.7c0.1,0.2,0.2,0.4,0.3,0.5
		c0.1-0.1,0.2-0.3,0.3-0.5c0.1-0.2,0.2-0.4,0.4-0.7c0.1-0.2,0.3-0.5,0.4-0.7c0.1-0.3,0.3-0.5,0.4-0.7l1.9-3.2h3.1L122.2,78.2z"/>
	<path fill="#EF7052" d="M95.4,63.5c-0.3-0.4-0.6-0.7-1-0.9c-0.4-0.2-0.9-0.3-1.4-0.3c-0.5,0-1,0.1-1.4,0.3c-0.4,0.2-0.7,0.5-1,0.9
		s-0.4,0.8-0.6,1.4c-0.1,0.5-0.2,1.1-0.2,1.7c0,0.6,0.1,1.2,0.2,1.7c0.1,0.5,0.3,1,0.6,1.4s0.6,0.7,1,0.9c0.4,0.2,0.9,0.3,1.4,0.3
		c0.5,0,1-0.1,1.4-0.3c0.4-0.2,0.7-0.5,1-0.9c0.3-0.4,0.4-0.8,0.6-1.4c0.1-0.5,0.2-1.1,0.2-1.7c0-0.6-0.1-1.2-0.2-1.7
		C95.8,64.3,95.6,63.9,95.4,63.5z"/>
</g>
<g>
	<path fill="#333333" d="M925.9,84.6c0.4-1,0.9-1.4,1.7-1.4h9.2c1.5,0,2.1,1.2,1.7,2.1L923,127.9c-0.4,0.9-0.9,1.4-1.7,1.4h-9.8
		c-0.8,0-1.4-0.5-1.7-1.4l-15.8-42.5c-0.4-0.9,0.3-2.1,1.7-2.1h9.2c0.8,0,1.4,0.4,1.7,1.4l9,26.2c0.2,0.6,0.9,0.6,1.1,0L925.9,84.6z
		"/>
	<path fill="#333333" d="M987.1,99.4c0.5,3.7,0.5,10.1,0,13.8c-1.2,9.7-7.8,17.1-19.1,17.1c-11.3,0-18-7.5-19.1-17.1
		c-0.5-3.7-0.5-10.1,0-13.8c1.2-9.7,7.8-17.1,19.1-17.1C979.2,82.2,985.9,89.7,987.1,99.4z M975.1,113.2c0.6-3.7,0.6-10.1,0-13.8
		c-0.5-3-2.5-5.2-7.2-5.2c-4.6,0-6.5,1.7-7.1,5.2c-0.6,3.7-0.6,10.1,0,13.8c0.5,3.2,2.5,5.2,7.1,5.2
		C972.6,118.3,974.6,116.2,975.1,113.2z"/>
	<path fill="#333333" d="M1019.6,110.8c0.3,0.7,0.9,0.7,1.1,0l7.5-26.1c0.3-1,0.9-1.4,1.7-1.4h9.3c1.5,0,2.1,1.2,1.7,2.1l-21.6,60.9
		c-0.4,1-0.9,1.4-1.7,1.4h-8.5c-1.5,0-2.1-1.2-1.7-2.1l6.4-17.2c0.3-0.8,0.4-1.1,0-2l-15.3-41c-0.4-0.9,0.3-2.1,1.7-2.1h9.5
		c0.8,0,1.4,0.4,1.7,1.4L1019.6,110.8z"/>
</g>
<g>
	<path fill="#333333" d="M751,17.2c0.1-0.8,0.7-1.1,1.3-1.1h7.8c1.1,0,1.6,1,1.3,1.7l-12.2,46.7c-0.2,0.7-0.7,1.1-1.3,1.1h-10.7
		c-0.6,0-1.1-0.4-1.3-1.1l-12.2-46.7c-0.2-0.7,0.2-1.7,1.3-1.7h7.8c0.6,0,1.2,0.3,1.3,1.1l7.8,33.1c0.1,0.3,0.2,0.5,0.5,0.5h0.4
		c0.3,0,0.4-0.2,0.5-0.5L751,17.2z"/>
	<path fill="#333333" d="M796.1,42.6c0.4,2.8,0.4,7.8,0,10.6c-0.9,7.4-6,13.1-14.6,13.1c-8.7,0-13.8-5.7-14.7-13.1
		c-0.4-2.8-0.4-7.8,0-10.6c0.9-7.4,6-13.1,14.6-13.1C790.1,29.5,795.2,35.2,796.1,42.6z M786.9,53.2c0.4-2.8,0.4-7.8,0-10.6
		c-0.4-2.3-1.9-4-5.5-4c-3.5,0-5,1.3-5.4,4c-0.4,2.8-0.4,7.8,0,10.6c0.4,2.5,1.9,4,5.4,4C785,57.2,786.5,55.5,786.9,53.2z"/>
	<path fill="#333333" d="M820.1,51.4c0.2,0.6,0.7,0.6,0.8,0l5.7-20.1c0.2-0.8,0.7-1.1,1.3-1.1h7.1c1.1,0,1.6,0.9,1.3,1.6l-16.6,46.7
		c-0.3,0.8-0.7,1.1-1.3,1.1h-6.5c-1.1,0-1.6-0.9-1.3-1.6l4.9-13.2c0.2-0.6,0.3-0.8,0-1.6L804,31.9c-0.3-0.7,0.2-1.6,1.3-1.6h7.3
		c0.6,0,1.1,0.3,1.3,1.1L820.1,51.4z"/>
</g>
<g>
	<path fill="#333333" d="M601.3,11.6c0.4-1,0.9-1.3,1.7-1.3h8.9c1.4,0,2.1,1.2,1.7,2.1l-15.2,41.3c-0.4,0.9-0.9,1.3-1.7,1.3h-9.5
		c-0.8,0-1.3-0.4-1.7-1.3l-15.4-41.3c-0.4-0.9,0.3-2.1,1.7-2.1h8.9c0.8,0,1.3,0.4,1.7,1.3l8.8,25.5c0.2,0.6,0.9,0.6,1.1,0
		L601.3,11.6z"/>
	<path fill="#333333" d="M659.5,25.9c0.4,3.6,0.4,9.8,0,13.4c-1.2,9.4-7.6,16.6-18.5,16.6c-11,0-17.4-7.2-18.6-16.6
		c-0.4-3.6-0.4-9.8,0-13.4c1.2-9.4,7.6-16.6,18.5-16.6C651.9,9.3,658.4,16.5,659.5,25.9z M647.9,39.3c0.5-3.6,0.5-9.8,0-13.4
		c-0.4-2.9-2.4-5-7-5c-4.5,0-6.3,1.6-6.9,5c-0.5,3.6-0.5,9.8,0,13.4c0.4,3.1,2.4,5,6.9,5C645.5,44.3,647.5,42.3,647.9,39.3z"/>
	<path fill="#333333" d="M690,37c0.3,0.7,0.9,0.7,1.1,0l7.2-25.4c0.3-1,0.9-1.3,1.7-1.3h9c1.4,0,2.1,1.2,1.7,2.1l-21,59.2
		c-0.4,1-0.9,1.3-1.7,1.3h-8.2c-1.4,0-2.1-1.2-1.7-2.1l6.3-16.7c0.3-0.8,0.4-1.1,0-2l-14.8-39.8c-0.4-0.9,0.3-2.1,1.7-2.1h9.2
		c0.8,0,1.3,0.4,1.7,1.3L690,37z"/>
</g>
<g>
	<path fill="#333333" d="M560-188.5c0.4-1,0.9-1.3,1.7-1.3h8.9c1.4,0,2.1,1.2,1.7,2.1l-15.2,41.3c-0.4,0.9-0.9,1.3-1.7,1.3H546
		c-0.8,0-1.3-0.4-1.7-1.3l-15.4-41.3c-0.4-0.9,0.3-2.1,1.7-2.1h8.9c0.8,0,1.3,0.4,1.7,1.3L550-163c0.2,0.6,0.9,0.6,1.1,0L560-188.5z
		"/>
	<path fill="#333333" d="M618.3-174.2c0.4,3.6,0.4,9.8,0,13.4c-1.2,9.4-7.6,16.6-18.5,16.6c-11,0-17.4-7.2-18.6-16.6
		c-0.4-3.6-0.4-9.8,0-13.4c1.2-9.4,7.6-16.6,18.5-16.6C610.7-190.8,617.1-183.6,618.3-174.2z M606.6-160.8c0.5-3.6,0.5-9.8,0-13.4
		c-0.4-2.9-2.4-5-7-5c-4.5,0-6.3,1.6-6.9,5c-0.5,3.6-0.5,9.8,0,13.4c0.4,3.1,2.4,5,6.9,5C604.2-155.8,606.2-157.8,606.6-160.8z"/>
	<path fill="#333333" d="M648.7-163.1c0.3,0.7,0.9,0.7,1.1,0l7.2-25.4c0.3-1,0.9-1.3,1.7-1.3h9c1.4,0,2.1,1.2,1.7,2.1l-21,59.2
		c-0.4,1-0.9,1.3-1.7,1.3h-8.2c-1.4,0-2.1-1.2-1.7-2.1l6.3-16.7c0.3-0.8,0.4-1.1,0-2l-14.8-39.8c-0.4-0.9,0.3-2.1,1.7-2.1h9.2
		c0.8,0,1.3,0.4,1.7,1.3L648.7-163.1z"/>
</g>
<g>
	<g>
		<path fill="#FFFFFF" d="M73,135.1c0.2-0.5,0.5-0.7,0.9-0.7h4.7c0.8,0,1.1,0.6,0.9,1.1l-8,21.9c-0.2,0.5-0.5,0.7-0.9,0.7h-5
			c-0.4,0-0.7-0.2-0.9-0.7l-8.1-21.9c-0.2-0.5,0.1-1.1,0.9-1.1h4.7c0.4,0,0.7,0.2,0.9,0.7l4.6,13.5c0.1,0.3,0.5,0.3,0.6,0L73,135.1z
			"/>
		<path fill="#FFFFFF" d="M103.8,142.6c0.2,1.9,0.2,5.2,0,7.1c-0.6,5-4,8.8-9.8,8.8c-5.8,0-9.2-3.8-9.8-8.8c-0.2-1.9-0.2-5.2,0-7.1
			c0.6-5,4-8.8,9.8-8.8C99.8,133.8,103.2,137.7,103.8,142.6z M97.7,149.7c0.3-1.9,0.3-5.2,0-7.1c-0.2-1.6-1.3-2.6-3.7-2.6
			c-2.4,0-3.4,0.9-3.6,2.6c-0.3,1.9-0.3,5.2,0,7.1c0.2,1.7,1.3,2.6,3.6,2.6C96.4,152.4,97.4,151.3,97.7,149.7z"/>
		<path fill="#FFFFFF" d="M119.9,148.5c0.1,0.4,0.5,0.4,0.6,0l3.8-13.4c0.1-0.5,0.5-0.7,0.9-0.7h4.8c0.8,0,1.1,0.6,0.9,1.1
			l-11.1,31.3c-0.2,0.5-0.5,0.7-0.9,0.7h-4.4c-0.8,0-1.1-0.6-0.9-1.1l3.3-8.8c0.1-0.4,0.2-0.6,0-1l-7.9-21.1
			c-0.2-0.5,0.1-1.1,0.9-1.1h4.9c0.4,0,0.7,0.2,0.9,0.7L119.9,148.5z"/>
	</g>
	<path fill="#FFFFFF" d="M144.6,177.5H42.8c-2.2,0-4-1.8-4-4v-52c0-2.2,1.8-4,4-4h101.8c2.2,0,4,1.8,4,4v52
		C148.6,175.7,146.8,177.5,144.6,177.5z M44.8,171.5h97.8v-48H44.8V171.5z"/>
</g>
<g>
	<g>
		<path fill="#EF7052" d="M214.3,217.6c0.2-0.5,0.5-0.7,0.9-0.7h4.7c0.8,0,1.1,0.6,0.9,1.1l-8,21.9c-0.2,0.5-0.5,0.7-0.9,0.7h-5
			c-0.4,0-0.7-0.2-0.9-0.7l-8.1-21.9c-0.2-0.5,0.1-1.1,0.9-1.1h4.7c0.4,0,0.7,0.2,0.9,0.7L209,231c0.1,0.3,0.5,0.3,0.6,0
			L214.3,217.6z"/>
		<path fill="#EF7052" d="M245.2,225.1c0.2,1.9,0.2,5.2,0,7.1c-0.6,5-4,8.8-9.8,8.8c-5.8,0-9.2-3.8-9.8-8.8c-0.2-1.9-0.2-5.2,0-7.1
			c0.6-5,4-8.8,9.8-8.8C241.1,216.3,244.5,220.2,245.2,225.1z M239,232.2c0.3-1.9,0.3-5.2,0-7.1c-0.2-1.6-1.3-2.6-3.7-2.6
			c-2.4,0-3.4,0.9-3.6,2.6c-0.3,1.9-0.3,5.2,0,7.1c0.2,1.7,1.3,2.6,3.6,2.6C237.7,234.9,238.8,233.8,239,232.2z"/>
		<path fill="#EF7052" d="M261.3,231c0.1,0.4,0.5,0.4,0.6,0l3.8-13.4c0.1-0.5,0.5-0.7,0.9-0.7h4.8c0.8,0,1.1,0.6,0.9,1.1l-11.1,31.3
			c-0.2,0.5-0.5,0.7-0.9,0.7h-4.4c-0.8,0-1.1-0.6-0.9-1.1l3.3-8.8c0.1-0.4,0.2-0.6,0-1l-7.9-21.1c-0.2-0.5,0.1-1.1,0.9-1.1h4.9
			c0.4,0,0.7,0.2,0.9,0.7L261.3,231z"/>
	</g>
	<path fill="#EF7052" d="M285.9,260H184.2c-2.2,0-4-1.8-4-4v-52c0-2.2,1.8-4,4-4h101.8c2.2,0,4,1.8,4,4v52
		C289.9,258.2,288.1,260,285.9,260z M186.2,254h97.8v-48h-97.8V254z"/>
</g>
<g>
	<path fill="#333333" d="M79.6,212.3c0.2-0.5,0.5-0.7,0.9-0.7h4.7c0.8,0,1.1,0.6,0.9,1.1l-8,21.9c-0.2,0.5-0.5,0.7-0.9,0.7h-5
		c-0.4,0-0.7-0.2-0.9-0.7l-8.1-21.9c-0.2-0.5,0.1-1.1,0.9-1.1h4.7c0.4,0,0.7,0.2,0.9,0.7l4.6,13.5c0.1,0.3,0.5,0.3,0.6,0L79.6,212.3
		z"/>
	<path fill="#333333" d="M110.5,219.9c0.2,1.9,0.2,5.2,0,7.1c-0.6,5-4,8.8-9.8,8.8c-5.8,0-9.2-3.8-9.8-8.8c-0.2-1.9-0.2-5.2,0-7.1
		c0.6-5,4-8.8,9.8-8.8C106.5,211.1,109.9,214.9,110.5,219.9z M104.3,227c0.3-1.9,0.3-5.2,0-7.1c-0.2-1.6-1.3-2.6-3.7-2.6
		c-2.4,0-3.4,0.9-3.6,2.6c-0.3,1.9-0.3,5.2,0,7.1c0.2,1.7,1.3,2.6,3.6,2.6C103.1,229.6,104.1,228.6,104.3,227z"/>
	<path fill="#333333" d="M126.6,225.8c0.1,0.4,0.5,0.4,0.6,0l3.8-13.4c0.1-0.5,0.5-0.7,0.9-0.7h4.8c0.8,0,1.1,0.6,0.9,1.1L126.5,244
		c-0.2,0.5-0.5,0.7-0.9,0.7h-4.4c-0.8,0-1.1-0.6-0.9-1.1l3.3-8.8c0.1-0.4,0.2-0.6,0-1l-7.9-21.1c-0.2-0.5,0.1-1.1,0.9-1.1h4.9
		c0.4,0,0.7,0.2,0.9,0.7L126.6,225.8z"/>
</g>
<path fill="#333333" d="M151.3,254.8H49.5c-2.2,0-4-1.8-4-4v-52c0-2.2,1.8-4,4-4h101.8c2.2,0,4,1.8,4,4v52
	C155.3,253,153.5,254.8,151.3,254.8z M51.5,248.8h97.8v-48H51.5V248.8z"/>
<g>
	<g>
		<g>
			<path fill="#EF7052" d="M-129.2,63c0.2-0.5,0.5-0.7,0.9-0.7h4.7c0.8,0,1.1,0.6,0.9,1.1l-8,21.9c-0.2,0.5-0.5,0.7-0.9,0.7h-5
				c-0.4,0-0.7-0.2-0.9-0.7l-8.1-21.9c-0.2-0.5,0.1-1.1,0.9-1.1h4.7c0.4,0,0.7,0.2,0.9,0.7l4.6,13.5c0.1,0.3,0.5,0.3,0.6,0
				L-129.2,63z"/>
			<path fill="#EF7052" d="M-98.4,70.6c0.2,1.9,0.2,5.2,0,7.1c-0.6,5-4,8.8-9.8,8.8c-5.8,0-9.2-3.8-9.8-8.8c-0.2-1.9-0.2-5.2,0-7.1
				c0.6-5,4-8.8,9.8-8.8C-102.4,61.8-99,65.6-98.4,70.6z M-104.5,77.7c0.3-1.9,0.3-5.2,0-7.1c-0.2-1.6-1.3-2.6-3.7-2.6
				c-2.4,0-3.4,0.9-3.6,2.6c-0.3,1.9-0.3,5.2,0,7.1c0.2,1.7,1.3,2.6,3.6,2.6C-105.8,80.3-104.7,79.2-104.5,77.7z"/>
			<path fill="#EF7052" d="M-82.2,76.4c0.1,0.4,0.5,0.4,0.6,0l3.8-13.4c0.1-0.5,0.5-0.7,0.9-0.7h4.8c0.8,0,1.1,0.6,0.9,1.1
				l-11.1,31.3c-0.2,0.5-0.5,0.7-0.9,0.7h-4.4c-0.8,0-1.1-0.6-0.9-1.1l3.3-8.8c0.1-0.4,0.2-0.6,0-1l-7.9-21.1
				c-0.2-0.5,0.1-1.1,0.9-1.1h4.9c0.4,0,0.7,0.2,0.9,0.7L-82.2,76.4z"/>
		</g>
		<path fill="#EF7052" d="M-53.2,105.7h-103c-2.2,0-4-1.8-4-4V49.2c0-2.2,1.8-4,4-4h103c1.2,0,2.6,0.5,3.6,1.1l35.9,25.8
			c1,0.7,1.6,1.8,1.6,3c0,1.2-0.6,2.3-1.6,3l-35.9,26.3C-50.5,105.2-52,105.7-53.2,105.7z M-154.2,99.7h100.9c0.1,0,0.1,0,0.2-0.1
			l33.3-24.4l-33.3-24c0,0-0.1,0-0.2,0l-100.9,0V99.7z"/>
		<path fill="#EF7052" d="M-55.8,105.5l-4.8-3.6l4.7-6.3l-4.1-5.5c-1.1-1.5-1.1-3.7,0-5.2l4.1-5.5L-60,74c-1.1-1.5-1.1-3.7,0-5.2
			l4.1-5.5l-4.1-5.5c-1.1-1.5-1.1-3.7,0-5.2l5.4-7.3l4.8,3.6l-4.7,6.3l4.1,5.5c1.1,1.5,1.1,3.7,0,5.2l-4.1,5.5l4.1,5.5
			c1.1,1.5,1.1,3.7,0,5.2l-4.1,5.5l4.1,5.5c1.1,1.5,1.1,3.7,0,5.2L-55.8,105.5z"/>
	</g>
	<path fill="#EF7052" d="M-20.5,81H-22c-2.8,0-5-2.2-5-5v-1.5c0-2.8,2.2-5,5-5h1.5c2.8,0,5,2.2,5,5V76C-15.5,78.8-17.8,81-20.5,81z"
		/>
</g>
<rect x="417.5" y="136" fill="#BECDE0" width="61.5" height="61.5"/>
<rect x="344" y="136" fill="#1D9977" width="61.5" height="61.5"/>
<rect x="344" y="211.5" fill="#EF7052" width="61.5" height="61.5"/>
<rect x="417.5" y="212" fill="#E8D6CC" width="61.5" height="61.5"/>
<rect x="417.5" y="283.5" fill="#3E3C53" width="61.5" height="61.5"/>
<rect x="417.5" y="356.5" fill="#AA9786" width="61.5" height="61.5"/>
<rect x="347.5" y="283.5" fill="#C88156" width="61.5" height="61.5"/>
</svg>
