<svg xmlns="http://www.w3.org/2000/svg" viewBox="0 0 201 65" enable-background="new 0 0 201 65"><path fill="#5D5D5D" d="M184.5 33.9c4.1-20.4 0-24.5 0-24.5C116.9 59.2 87.1-38.7.5 20c0 0 5.5 6.3 17.6 11.6-1.8 18.5.5 23.5.5 23.5 72.6-45.9 85.9 45.1 181.7-6.6.1-.1-3.6-8.6-15.8-14.6zm-40.1 26.9c-17.8 0-31.9-6.1-45.6-12C85.7 43 73.4 37.7 58.5 37.7c-11.9 0-24 3.6-36.9 10.9-.3-3.4-.3-8.6.5-16.6l.3-2.9-2.6-1.1c-5.9-2.6-10-5.4-12.8-7.5C24 9.8 39.9 4.6 55.5 4.6c17.1 0 32 6.1 46.4 12.1 14.3 5.9 27.7 11.4 42.8 11.4 12.6 0 24.9-4 37.3-12.1.3 3.1.1 8.5-1.6 17.3l-.6 3 2.8 1.4c6.3 3 10 6.8 12 9.4-18.4 9.2-34.8 13.7-50.2 13.7z"/><text transform="translate(51.95 30.374)" fill="#5D5D5D" font-family="'Interstate-Bold'" font-size="25.999">V</text><text transform="translate(87.925 40.092)" fill="#5D5D5D" font-family="'Interstate-Bold'" font-size="25.999">O</text><text transform="translate(125.399 53.832)" fill="#5D5D5D" font-family="'Interstate-Bold'" font-size="25.999">Y</text><path fill="#5D5D5D" d="M184.6 33.7c4.1-20.4 0-24.5 0-24.5C117 58.8 87.2-39.1.6 19.8c0 0 5.5 6.3 17.6 11.6-1.8 18.5.5 23.5.5 23.5C91.3 9 104.6 100 200.5 48.3c0-.1-3.7-8.6-15.9-14.6zm-39.9 27c-17.8 0-31.9-6.1-45.6-12C86 42.9 73.7 37.5 58.8 37.5c-11.9 0-24 3.6-36.9 10.9-.3-3.4-.3-8.6.5-16.6l.3-2.9-2.7-1.1c-5.9-2.6-10-5.4-12.8-7.5C24.3 9.5 40.2 4.4 55.8 4.4c17.1 0 32 6.1 46.4 12.1 14.3 5.9 27.7 11.4 42.8 11.4 12.6 0 24.9-4 37.3-12.1.3 3.1.1 8.5-1.6 17.3l-.6 3 2.8 1.4c6.3 3 10 6.8 12 9.4-18.5 9.2-34.8 13.8-50.2 13.8z"/><path fill="#5D5D5D" d="M63.2 30.2h-3.5L53.2 12h4l3.4 10.5c.1.3.2.5.3.8.1.3.2.6.2.8.1.3.1.5.2.8.1.2.1.4.1.6.1-.3.2-.8.4-1.4.1-.6.3-1.1.5-1.6L65.7 12h4l-6.5 18.2zM105.3 30.8c0 1.4-.2 2.7-.5 3.8-.4 1.2-.9 2.1-1.5 3s-1.5 1.5-2.5 1.9c-1 .5-2.1.7-3.3.7s-2.4-.2-3.3-.7c-1-.5-1.8-1.1-2.5-1.9-.7-.8-1.2-1.8-1.5-3-.4-1.2-.5-2.4-.5-3.8s.2-2.7.5-3.8c.4-1.2.9-2.1 1.5-3 .7-.8 1.5-1.5 2.5-1.9 1-.5 2.1-.7 3.3-.7s2.4.2 3.3.7c1 .5 1.8 1.1 2.5 1.9s1.2 1.8 1.5 3c.4 1.1.5 2.4.5 3.8zm-3.7 0c0-.8-.1-1.6-.2-2.3-.2-.7-.4-1.3-.7-1.8s-.8-.9-1.3-1.2c-.5-.3-1.2-.4-1.9-.4s-1.4.1-1.9.4c-.5.3-1 .7-1.3 1.2-.3.5-.6 1.1-.7 1.8-.2.7-.2 1.5-.2 2.3s.1 1.6.2 2.3c.2.7.4 1.3.7 1.8.3.5.8.9 1.3 1.2.5.3 1.2.4 1.9.4s1.4-.1 1.9-.4 1-.7 1.3-1.2c.3-.5.6-1.1.7-1.8.1-.8.2-1.5.2-2.3zM136.7 46.4v7.2h-3.6v-7.1l-6.9-11.1h4.2l2.6 4.3c.2.3.3.6.5.9.2.3.4.7.6 1 .2.3.3.6.5.9.2.3.3.5.4.7.1-.2.2-.4.4-.7.2-.3.3-.6.5-.9s.4-.7.6-1 .4-.7.5-.9l2.6-4.3h4.1l-7 11z" enable-background="new"/></svg>