<?xml version="1.0" encoding="utf-8"?>
<!-- Generator: Adobe Illustrator 18.1.0, SVG Export Plug-In . SVG Version: 6.00 Build 0)  -->
<!DOCTYPE svg PUBLIC "-//W3C//DTD SVG 1.1//EN" "http://www.w3.org/Graphics/SVG/1.1/DTD/svg11.dtd">
<svg version="1.1" id="Layer_1" xmlns="http://www.w3.org/2000/svg" xmlns:xlink="http://www.w3.org/1999/xlink" x="0px" y="0px"
	 viewBox="22.2 43.9 149.2 65.8" enable-background="new 22.2 43.9 149.2 65.8" xml:space="preserve">
<path fill="#FFFFFF" d="M-118.8-58.7h11.1l12,32.3l12-32.3h10.9l-18.5,46.1h-8.9L-118.8-58.7z"/>
<path fill="#FFFFFF" d="M-39.3-21.8c-3.5,0-6.8-0.6-9.8-1.9c-3-1.2-5.5-2.9-7.7-5c-2.2-2.1-3.8-4.6-5-7.5c-1.2-2.9-1.8-5.9-1.8-9.2
	v-0.1c0-3.3,0.6-6.3,1.8-9.2c1.2-2.9,2.9-5.4,5.1-7.5c2.2-2.2,4.7-3.9,7.7-5.1c3-1.2,6.2-1.9,9.8-1.9c3.5,0,6.8,0.6,9.8,1.9
	c3,1.2,5.5,2.9,7.7,5c2.2,2.1,3.8,4.6,5,7.5c1.2,2.9,1.8,5.9,1.8,9.2v0.1c0,3.3-0.6,6.3-1.8,9.2c-1.2,2.9-2.9,5.4-5.1,7.5
	c-2.2,2.2-4.7,3.9-7.7,5.1C-32.5-22.4-35.8-21.8-39.3-21.8z M-39.2-31.1c2,0,3.9-0.4,5.6-1.1c1.7-0.7,3.2-1.8,4.4-3.1
	c1.2-1.3,2.1-2.8,2.8-4.5c0.7-1.7,1-3.6,1-5.5v-0.1c0-2-0.3-3.8-1-5.6c-0.7-1.7-1.6-3.3-2.9-4.6c-1.2-1.3-2.7-2.3-4.4-3.1
	c-1.7-0.8-3.6-1.1-5.6-1.1c-2.1,0-3.9,0.4-5.6,1.1c-1.7,0.7-3.1,1.8-4.3,3.1c-1.2,1.3-2.1,2.8-2.8,4.5c-0.7,1.7-1,3.6-1,5.5v0.1
	c0,2,0.3,3.8,1,5.6c0.7,1.7,1.6,3.3,2.9,4.6c1.2,1.3,2.7,2.3,4.4,3.1C-43.1-31.5-41.2-31.1-39.2-31.1z"/>
<path fill="#FFFFFF" d="M2.7-50.7l-17.6-27.7h11.8L7.8-60l11.1-18.4h11.5L12.8-50.9v18.3H2.7V-50.7z"/>
<g>
	<path fill="#FFFFFF" d="M157.2-4c3-15,0-18,0-18c-49.6,36.6-71.5-35.3-135.1,7.8c0,0,4,4.6,13,8.5C33.8,8,35.5,11.7,35.5,11.7
		c53.3-33.7,63,33.1,133.4-4.9C168.9,6.7,166.2,0.5,157.2-4z M127.8,15.8c-13,0-23.4-4.5-33.4-8.8c-9.6-4.2-18.7-8.2-29.6-8.2
		c-8.7,0-17.6,2.7-27.1,8c-0.2-2.5-0.2-6.3,0.4-12.2l0.2-2.1l-1.9-0.8c-4.3-1.9-7.3-4-9.4-5.5c12.5-7.8,24.2-11.6,35.6-11.6
		c12.6,0,23.5,4.5,34.1,8.9c10.5,4.3,20.3,8.4,31.4,8.4c9.3,0,18.3-2.9,27.4-8.9c0.2,2.3,0.1,6.2-1.2,12.7l-0.5,2.2l2,1
		c4.6,2.2,7.3,5,8.8,6.9C151.2,12.5,139.1,15.8,127.8,15.8z"/>
	<text transform="matrix(1 0 0 1 59.9574 -6.5542)" fill="#FFFFFF" font-family="'Interstate-Bold'" font-size="19.0853">V</text>
	<text transform="matrix(1 0 0 1 86.3646 0.5806)" fill="#FFFFFF" font-family="'Interstate-Bold'" font-size="19.0853">O</text>
	<text transform="matrix(1 0 0 1 113.8744 10.6665)" fill="#FFFFFF" font-family="'Interstate-Bold'" font-size="19.0853">Y</text>
	<path fill="#FFFFFF" d="M157.3-4.1c3-15,0-18,0-18c-49.6,36.5-71.5-35.4-135.1,7.8c0,0,4,4.6,13,8.5c-1.3,13.6,0.4,17.3,0.4,17.3
		c53.3-33.7,63,33.1,133.4-4.9C169,6.5,166.3,0.3,157.3-4.1z M128,15.7c-13,0-23.4-4.5-33.4-8.8C84.9,2.7,75.9-1.3,65-1.3
		c-8.7,0-17.6,2.7-27.1,8c-0.2-2.5-0.2-6.3,0.4-12.2l0.2-2.1l-1.9-0.8c-4.3-1.9-7.3-4-9.4-5.5c12.5-7.9,24.2-11.7,35.6-11.7
		c12.6,0,23.5,4.5,34.1,8.9c10.5,4.3,20.3,8.4,31.4,8.4c9.3,0,18.3-2.9,27.4-8.9c0.2,2.3,0.1,6.2-1.2,12.7L154-2.4l2,1
		c4.6,2.2,7.3,5,8.8,6.9C151.3,12.3,139.3,15.7,128,15.7z"/>
	<g enable-background="new    ">
		<path fill="#FFFFFF" d="M68.2-6.7h-2.6l-4.8-13.4h3l2.5,7.7c0.1,0.2,0.1,0.4,0.2,0.6c0.1,0.2,0.1,0.4,0.2,0.6
			c0.1,0.2,0.1,0.4,0.2,0.6c0,0.2,0.1,0.3,0.1,0.4c0.1-0.3,0.1-0.6,0.3-1c0.1-0.4,0.2-0.8,0.4-1.2l2.5-7.7H73L68.2-6.7z"/>
	</g>
	<g enable-background="new    ">
		<path fill="#FFFFFF" d="M99.1-6.3c0,1-0.1,1.9-0.4,2.8c-0.3,0.8-0.6,1.6-1.1,2.2c-0.5,0.6-1.1,1.1-1.8,1.4
			c-0.7,0.3-1.5,0.5-2.5,0.5c-0.9,0-1.7-0.2-2.5-0.5c-0.7-0.3-1.3-0.8-1.8-1.4c-0.5-0.6-0.9-1.3-1.1-2.2c-0.3-0.8-0.4-1.8-0.4-2.8
			s0.1-1.9,0.4-2.8c0.3-0.8,0.6-1.6,1.1-2.2c0.5-0.6,1.1-1.1,1.8-1.4c0.7-0.3,1.5-0.5,2.5-0.5c0.9,0,1.7,0.2,2.5,0.5
			c0.7,0.3,1.3,0.8,1.8,1.4c0.5,0.6,0.9,1.3,1.1,2.2C99-8.2,99.1-7.3,99.1-6.3z M96.4-6.3c0-0.6-0.1-1.2-0.2-1.7
			c-0.1-0.5-0.3-1-0.5-1.3c-0.2-0.4-0.6-0.7-1-0.9c-0.4-0.2-0.8-0.3-1.4-0.3c-0.5,0-1,0.1-1.4,0.3c-0.4,0.2-0.7,0.5-1,0.9
			c-0.2,0.4-0.4,0.8-0.5,1.3c-0.1,0.5-0.2,1.1-0.2,1.7s0.1,1.2,0.2,1.7c0.1,0.5,0.3,1,0.5,1.3c0.2,0.4,0.6,0.7,1,0.9
			C92.3-2.1,92.8-2,93.3-2c0.5,0,1-0.1,1.4-0.3c0.4-0.2,0.7-0.5,1-0.9c0.2-0.4,0.4-0.8,0.5-1.3C96.3-5.1,96.4-5.7,96.4-6.3z"/>
	</g>
	<g enable-background="new    ">
		<path fill="#FFFFFF" d="M122.2,5.2v5.3h-2.7V5.3l-5.1-8.1h3.1l1.9,3.2c0.1,0.2,0.2,0.4,0.4,0.7c0.1,0.2,0.3,0.5,0.4,0.7
			c0.1,0.2,0.3,0.5,0.4,0.7c0.1,0.2,0.2,0.4,0.3,0.5c0.1-0.1,0.2-0.3,0.3-0.5c0.1-0.2,0.2-0.4,0.4-0.7c0.1-0.2,0.3-0.5,0.4-0.7
			c0.1-0.2,0.3-0.5,0.4-0.7l1.9-3.2h3L122.2,5.2z"/>
	</g>
</g>
<g>
	<path fill="#A7C3C6" d="M366.4,4.7c3.1-15.2,0-18.3,0-18.3C316.1,23.5,294-49.4,229.5-5.7c0,0,4.1,4.7,13.1,8.7
		c-1.3,13.8,0.4,17.5,0.4,17.5c54-34.2,63.9,33.5,135.2-4.9C378.3,15.5,375.6,9.1,366.4,4.7z M276,2h-2.6l-4.8-13.5h3l2.6,7.8
		c0.1,0.2,0.1,0.4,0.2,0.6c0.1,0.2,0.1,0.4,0.2,0.6c0.1,0.2,0.1,0.4,0.2,0.6c0,0.2,0.1,0.3,0.1,0.4c0.1-0.3,0.2-0.6,0.3-1
		c0.1-0.4,0.2-0.8,0.4-1.2l2.5-7.8h3L276,2z M307,5.3c-0.3,0.9-0.6,1.6-1.2,2.2c-0.5,0.6-1.1,1.1-1.8,1.4c-0.7,0.3-1.6,0.5-2.5,0.5
		c-0.9,0-1.8-0.2-2.5-0.5c-0.7-0.3-1.3-0.8-1.8-1.4c-0.5-0.6-0.9-1.3-1.2-2.2c-0.3-0.9-0.4-1.8-0.4-2.8s0.1-2,0.4-2.8
		c0.3-0.9,0.6-1.6,1.2-2.2c0.5-0.6,1.1-1.1,1.8-1.4c0.7-0.3,1.6-0.5,2.5-0.5c0.9,0,1.8,0.2,2.5,0.5c0.7,0.3,1.3,0.8,1.8,1.4
		c0.5,0.6,0.9,1.3,1.2,2.2c0.3,0.9,0.4,1.8,0.4,2.8S307.2,4.5,307,5.3z M330.7,14.1v5.4H328v-5.3l-5.1-8.2h3.1l1.9,3.2
		c0.1,0.2,0.2,0.4,0.4,0.7c0.1,0.3,0.3,0.5,0.4,0.8c0.1,0.3,0.3,0.5,0.4,0.7c0.1,0.2,0.2,0.4,0.3,0.5c0.1-0.1,0.2-0.3,0.3-0.5
		c0.1-0.2,0.2-0.4,0.4-0.7c0.1-0.2,0.3-0.5,0.4-0.7c0.1-0.3,0.3-0.5,0.4-0.7l1.9-3.2h3.1L330.7,14.1z"/>
	<path fill="#A7C3C6" d="M303.9-0.6c-0.3-0.4-0.6-0.7-1-0.9c-0.4-0.2-0.9-0.3-1.4-0.3c-0.5,0-1,0.1-1.4,0.3c-0.4,0.2-0.7,0.5-1,0.9
		c-0.3,0.4-0.4,0.8-0.6,1.4c-0.1,0.5-0.2,1.1-0.2,1.7c0,0.6,0.1,1.2,0.2,1.7c0.1,0.5,0.3,1,0.6,1.4c0.3,0.4,0.6,0.7,1,0.9
		c0.4,0.2,0.9,0.3,1.4,0.3c0.5,0,1-0.1,1.4-0.3c0.4-0.2,0.7-0.5,1-0.9c0.3-0.4,0.4-0.8,0.6-1.4c0.1-0.5,0.2-1.1,0.2-1.7
		c0-0.6-0.1-1.2-0.2-1.7C304.3,0.3,304.1-0.2,303.9-0.6z"/>
</g>
<g>
	<path fill="#333333" d="M925.9,84.6c0.4-1,0.9-1.4,1.7-1.4h9.2c1.5,0,2.1,1.2,1.7,2.1L923,127.9c-0.4,0.9-0.9,1.4-1.7,1.4h-9.8
		c-0.8,0-1.4-0.5-1.7-1.4l-15.8-42.5c-0.4-0.9,0.3-2.1,1.7-2.1h9.2c0.8,0,1.4,0.4,1.7,1.4l9,26.2c0.2,0.6,0.9,0.6,1.1,0L925.9,84.6z
		"/>
	<path fill="#333333" d="M987.1,99.4c0.5,3.7,0.5,10.1,0,13.8c-1.2,9.7-7.8,17.1-19.1,17.1c-11.3,0-18-7.5-19.1-17.1
		c-0.5-3.7-0.5-10.1,0-13.8c1.2-9.7,7.8-17.1,19.1-17.1C979.2,82.2,985.9,89.7,987.1,99.4z M975.1,113.2c0.6-3.7,0.6-10.1,0-13.8
		c-0.5-3-2.5-5.2-7.2-5.2c-4.6,0-6.5,1.7-7.1,5.2c-0.6,3.7-0.6,10.1,0,13.8c0.5,3.2,2.5,5.2,7.1,5.2
		C972.6,118.3,974.6,116.2,975.1,113.2z"/>
	<path fill="#333333" d="M1019.6,110.8c0.3,0.7,0.9,0.7,1.1,0l7.5-26.1c0.3-1,0.9-1.4,1.7-1.4h9.3c1.5,0,2.1,1.2,1.7,2.1l-21.6,60.9
		c-0.4,1-0.9,1.4-1.7,1.4h-8.5c-1.5,0-2.1-1.2-1.7-2.1l6.4-17.2c0.3-0.8,0.4-1.1,0-2l-15.3-41c-0.4-0.9,0.3-2.1,1.7-2.1h9.5
		c0.8,0,1.4,0.4,1.7,1.4L1019.6,110.8z"/>
</g>
<g>
	<path fill="#333333" d="M751,17.2c0.1-0.8,0.7-1.1,1.3-1.1h7.8c1.1,0,1.6,1,1.3,1.7l-12.2,46.7c-0.2,0.7-0.7,1.1-1.3,1.1h-10.7
		c-0.6,0-1.1-0.4-1.3-1.1l-12.2-46.7c-0.2-0.7,0.2-1.7,1.3-1.7h7.8c0.6,0,1.2,0.3,1.3,1.1l7.8,33.1c0.1,0.3,0.2,0.5,0.5,0.5h0.4
		c0.3,0,0.4-0.2,0.5-0.5L751,17.2z"/>
	<path fill="#333333" d="M796.1,42.6c0.4,2.8,0.4,7.8,0,10.6c-0.9,7.4-6,13.1-14.6,13.1c-8.7,0-13.8-5.7-14.7-13.1
		c-0.4-2.8-0.4-7.8,0-10.6c0.9-7.4,6-13.1,14.6-13.1C790.1,29.5,795.2,35.2,796.1,42.6z M786.9,53.2c0.4-2.8,0.4-7.8,0-10.6
		c-0.4-2.3-1.9-4-5.5-4c-3.5,0-5,1.3-5.4,4c-0.4,2.8-0.4,7.8,0,10.6c0.4,2.5,1.9,4,5.4,4C785,57.2,786.5,55.5,786.9,53.2z"/>
	<path fill="#333333" d="M820.1,51.4c0.2,0.6,0.7,0.6,0.8,0l5.7-20.1c0.2-0.8,0.7-1.1,1.3-1.1h7.1c1.1,0,1.6,0.9,1.3,1.6l-16.6,46.7
		c-0.3,0.8-0.7,1.1-1.3,1.1h-6.5c-1.1,0-1.6-0.9-1.3-1.6l4.9-13.2c0.2-0.6,0.3-0.8,0-1.6L804,31.9c-0.3-0.7,0.2-1.6,1.3-1.6h7.3
		c0.6,0,1.1,0.3,1.3,1.1L820.1,51.4z"/>
</g>
<g>
	<path fill="#333333" d="M601.3,11.6c0.4-1,0.9-1.3,1.7-1.3h8.9c1.4,0,2.1,1.2,1.7,2.1l-15.2,41.3c-0.4,0.9-0.9,1.3-1.7,1.3h-9.5
		c-0.8,0-1.3-0.4-1.7-1.3l-15.4-41.3c-0.4-0.9,0.3-2.1,1.7-2.1h8.9c0.8,0,1.3,0.4,1.7,1.3l8.8,25.5c0.2,0.6,0.9,0.6,1.1,0
		L601.3,11.6z"/>
	<path fill="#333333" d="M659.5,25.9c0.4,3.6,0.4,9.8,0,13.4c-1.2,9.4-7.6,16.6-18.5,16.6c-11,0-17.4-7.2-18.6-16.6
		c-0.4-3.6-0.4-9.8,0-13.4c1.2-9.4,7.6-16.6,18.5-16.6C651.9,9.3,658.4,16.5,659.5,25.9z M647.9,39.3c0.5-3.6,0.5-9.8,0-13.4
		c-0.4-2.9-2.4-5-7-5c-4.5,0-6.3,1.6-6.9,5c-0.5,3.6-0.5,9.8,0,13.4c0.4,3.1,2.4,5,6.9,5C645.5,44.3,647.5,42.3,647.9,39.3z"/>
	<path fill="#333333" d="M690,37c0.3,0.7,0.9,0.7,1.1,0l7.2-25.4c0.3-1,0.9-1.3,1.7-1.3h9c1.4,0,2.1,1.2,1.7,2.1l-21,59.2
		c-0.4,1-0.9,1.3-1.7,1.3h-8.2c-1.4,0-2.1-1.2-1.7-2.1l6.3-16.7c0.3-0.8,0.4-1.1,0-2l-14.8-39.8c-0.4-0.9,0.3-2.1,1.7-2.1h9.2
		c0.8,0,1.3,0.4,1.7,1.3L690,37z"/>
</g>
<g>
	<path fill="#333333" d="M560-188.5c0.4-1,0.9-1.3,1.7-1.3h8.9c1.4,0,2.1,1.2,1.7,2.1l-15.2,41.3c-0.4,0.9-0.9,1.3-1.7,1.3H546
		c-0.8,0-1.3-0.4-1.7-1.3l-15.4-41.3c-0.4-0.9,0.3-2.1,1.7-2.1h8.9c0.8,0,1.3,0.4,1.7,1.3L550-163c0.2,0.6,0.9,0.6,1.1,0L560-188.5z
		"/>
	<path fill="#333333" d="M618.3-174.2c0.4,3.6,0.4,9.8,0,13.4c-1.2,9.4-7.6,16.6-18.5,16.6c-11,0-17.4-7.2-18.6-16.6
		c-0.4-3.6-0.4-9.8,0-13.4c1.2-9.4,7.6-16.6,18.5-16.6C610.7-190.8,617.1-183.6,618.3-174.2z M606.6-160.8c0.5-3.6,0.5-9.8,0-13.4
		c-0.4-2.9-2.4-5-7-5c-4.5,0-6.3,1.6-6.9,5c-0.5,3.6-0.5,9.8,0,13.4c0.4,3.1,2.4,5,6.9,5C604.2-155.8,606.2-157.8,606.6-160.8z"/>
	<path fill="#333333" d="M648.7-163.1c0.3,0.7,0.9,0.7,1.1,0l7.2-25.4c0.3-1,0.9-1.3,1.7-1.3h9c1.4,0,2.1,1.2,1.7,2.1l-21,59.2
		c-0.4,1-0.9,1.3-1.7,1.3h-8.2c-1.4,0-2.1-1.2-1.7-2.1l6.3-16.7c0.3-0.8,0.4-1.1,0-2l-14.8-39.8c-0.4-0.9,0.3-2.1,1.7-2.1h9.2
		c0.8,0,1.3,0.4,1.7,1.3L648.7-163.1z"/>
</g>
<g>
	<g>
		<path fill="#FFFFFF" d="M73,64.6c0.2-0.5,0.5-0.7,0.9-0.7h4.7c0.8,0,1.1,0.6,0.9,1.1l-8,21.9c-0.2,0.5-0.5,0.7-0.9,0.7h-5
			c-0.4,0-0.7-0.2-0.9-0.7l-8.1-21.9c-0.2-0.5,0.1-1.1,0.9-1.1h4.7c0.4,0,0.7,0.2,0.9,0.7L67.7,78c0.1,0.3,0.5,0.3,0.6,0L73,64.6z"
			/>
		<path fill="#FFFFFF" d="M103.8,72.1c0.2,1.9,0.2,5.2,0,7.1c-0.6,5-4,8.8-9.8,8.8c-5.8,0-9.2-3.8-9.8-8.8c-0.2-1.9-0.2-5.2,0-7.1
			c0.6-5,4-8.8,9.8-8.8C99.8,63.3,103.2,67.2,103.8,72.1z M97.7,79.2c0.3-1.9,0.3-5.2,0-7.1c-0.2-1.6-1.3-2.6-3.7-2.6
			c-2.4,0-3.4,0.9-3.6,2.6c-0.3,1.9-0.3,5.2,0,7.1c0.2,1.7,1.3,2.6,3.6,2.6C96.4,81.9,97.4,80.8,97.7,79.2z"/>
		<path fill="#FFFFFF" d="M119.9,78c0.1,0.4,0.5,0.4,0.6,0l3.8-13.4c0.1-0.5,0.5-0.7,0.9-0.7h4.8c0.8,0,1.1,0.6,0.9,1.1l-11.1,31.3
			c-0.2,0.5-0.5,0.7-0.9,0.7h-4.4c-0.8,0-1.1-0.6-0.9-1.1L117,87c0.1-0.4,0.2-0.6,0-1l-7.9-21.1c-0.2-0.5,0.1-1.1,0.9-1.1h4.9
			c0.4,0,0.7,0.2,0.9,0.7L119.9,78z"/>
	</g>
	<path fill="#FFFFFF" d="M144.6,107H42.8c-2.2,0-4-1.8-4-4V51c0-2.2,1.8-4,4-4h101.8c2.2,0,4,1.8,4,4v52
		C148.6,105.2,146.8,107,144.6,107z M44.8,101h97.8V53H44.8V101z"/>
</g>
<g>
	<g>
		<path fill="#EF7052" d="M239.5,177.6c0.2-0.5,0.5-0.7,0.9-0.7h4.7c0.8,0,1.1,0.6,0.9,1.1l-8,21.9c-0.2,0.5-0.5,0.7-0.9,0.7h-5
			c-0.4,0-0.7-0.2-0.9-0.7l-8.1-21.9c-0.2-0.5,0.1-1.1,0.9-1.1h4.7c0.4,0,0.7,0.2,0.9,0.7l4.6,13.5c0.1,0.3,0.5,0.3,0.6,0
			L239.5,177.6z"/>
		<path fill="#EF7052" d="M270.3,185.1c0.2,1.9,0.2,5.2,0,7.1c-0.6,5-4,8.8-9.8,8.8c-5.8,0-9.2-3.8-9.8-8.8c-0.2-1.9-0.2-5.2,0-7.1
			c0.6-5,4-8.8,9.8-8.8C266.3,176.3,269.7,180.2,270.3,185.1z M264.2,192.2c0.3-1.9,0.3-5.2,0-7.1c-0.2-1.6-1.3-2.6-3.7-2.6
			c-2.4,0-3.4,0.9-3.6,2.6c-0.3,1.9-0.3,5.2,0,7.1c0.2,1.7,1.3,2.6,3.6,2.6C262.9,194.9,263.9,193.8,264.2,192.2z"/>
		<path fill="#EF7052" d="M286.4,191c0.1,0.4,0.5,0.4,0.6,0l3.8-13.4c0.1-0.5,0.5-0.7,0.9-0.7h4.8c0.8,0,1.1,0.6,0.9,1.1l-11.1,31.3
			c-0.2,0.5-0.5,0.7-0.9,0.7H281c-0.8,0-1.1-0.6-0.9-1.1l3.3-8.8c0.1-0.4,0.2-0.6,0-1l-7.9-21.1c-0.2-0.5,0.1-1.1,0.9-1.1h4.9
			c0.4,0,0.7,0.2,0.9,0.7L286.4,191z"/>
	</g>
	<path fill="#EF7052" d="M311.1,220H209.3c-2.2,0-4-1.8-4-4v-52c0-2.2,1.8-4,4-4h101.8c2.2,0,4,1.8,4,4v52
		C315.1,218.2,313.3,220,311.1,220z M211.3,214h97.8v-48h-97.8V214z"/>
</g>
<g>
	<path fill="#333333" d="M79.6,212.3c0.2-0.5,0.5-0.7,0.9-0.7h4.7c0.8,0,1.1,0.6,0.9,1.1l-8,21.9c-0.2,0.5-0.5,0.7-0.9,0.7h-5
		c-0.4,0-0.7-0.2-0.9-0.7l-8.1-21.9c-0.2-0.5,0.1-1.1,0.9-1.1h4.7c0.4,0,0.7,0.2,0.9,0.7l4.6,13.5c0.1,0.3,0.5,0.3,0.6,0L79.6,212.3
		z"/>
	<path fill="#333333" d="M110.5,219.9c0.2,1.9,0.2,5.2,0,7.1c-0.6,5-4,8.8-9.8,8.8c-5.8,0-9.2-3.8-9.8-8.8c-0.2-1.9-0.2-5.2,0-7.1
		c0.6-5,4-8.8,9.8-8.8C106.5,211.1,109.9,214.9,110.5,219.9z M104.3,227c0.3-1.9,0.3-5.2,0-7.1c-0.2-1.6-1.3-2.6-3.7-2.6
		c-2.4,0-3.4,0.9-3.6,2.6c-0.3,1.9-0.3,5.2,0,7.1c0.2,1.7,1.3,2.6,3.6,2.6C103.1,229.6,104.1,228.6,104.3,227z"/>
	<path fill="#333333" d="M126.6,225.8c0.1,0.4,0.5,0.4,0.6,0l3.8-13.4c0.1-0.5,0.5-0.7,0.9-0.7h4.8c0.8,0,1.1,0.6,0.9,1.1L126.5,244
		c-0.2,0.5-0.5,0.7-0.9,0.7h-4.4c-0.8,0-1.1-0.6-0.9-1.1l3.3-8.8c0.1-0.4,0.2-0.6,0-1l-7.9-21.1c-0.2-0.5,0.1-1.1,0.9-1.1h4.9
		c0.4,0,0.7,0.2,0.9,0.7L126.6,225.8z"/>
</g>
<path fill="#333333" d="M151.3,254.8H49.5c-2.2,0-4-1.8-4-4v-52c0-2.2,1.8-4,4-4h101.8c2.2,0,4,1.8,4,4v52
	C155.3,253,153.5,254.8,151.3,254.8z M51.5,248.8h97.8v-48H51.5V248.8z"/>
<g>
	<g>
		<path fill="#333333" d="M249.8,63c0.2-0.5,0.5-0.7,0.9-0.7h4.7c0.8,0,1.1,0.6,0.9,1.1l-8,21.9c-0.2,0.5-0.5,0.7-0.9,0.7h-5
			c-0.4,0-0.7-0.2-0.9-0.7l-8.1-21.9c-0.2-0.5,0.1-1.1,0.9-1.1h4.7c0.4,0,0.7,0.2,0.9,0.7l4.6,13.5c0.1,0.3,0.5,0.3,0.6,0L249.8,63z
			"/>
		<path fill="#333333" d="M280.6,70.6c0.2,1.9,0.2,5.2,0,7.1c-0.6,5-4,8.8-9.8,8.8c-5.8,0-9.2-3.8-9.8-8.8c-0.2-1.9-0.2-5.2,0-7.1
			c0.6-5,4-8.8,9.8-8.8C276.6,61.8,280,65.6,280.6,70.6z M274.5,77.7c0.3-1.9,0.3-5.2,0-7.1c-0.2-1.6-1.3-2.6-3.7-2.6
			c-2.4,0-3.4,0.9-3.6,2.6c-0.3,1.9-0.3,5.2,0,7.1c0.2,1.7,1.3,2.6,3.6,2.6C273.2,80.3,274.3,79.2,274.5,77.7z"/>
		<path fill="#333333" d="M296.8,76.4c0.1,0.4,0.5,0.4,0.6,0l3.8-13.4c0.1-0.5,0.5-0.7,0.9-0.7h4.8c0.8,0,1.1,0.6,0.9,1.1
			l-11.1,31.3c-0.2,0.5-0.5,0.7-0.9,0.7h-4.4c-0.8,0-1.1-0.6-0.9-1.1l3.3-8.8c0.1-0.4,0.2-0.6,0-1l-7.9-21.1
			c-0.2-0.5,0.1-1.1,0.9-1.1h4.9c0.4,0,0.7,0.2,0.9,0.7L296.8,76.4z"/>
	</g>
	<g>
		<path fill="none" stroke="#333333" stroke-width="6" stroke-miterlimit="10" d="M327.6,102.1c-0.4,0.3-1.3,0.6-1.8,0.6h-103
			c-0.6,0-1-0.5-1-1V49.2c0-0.5,0.4-1,1-1h103c0.6,0,1.4,0.3,1.8,0.6l35.9,25.8c0.4,0.3,0.4,0.9,0,1.2L327.6,102.1z"/>
	</g>
	<g>
		<path fill="none" stroke="#333333" stroke-width="6" stroke-miterlimit="10" d="M326.8,47.2l-5.4,7.3c-0.3,0.4-0.3,1.2,0,1.6
			l4.8,6.5c0.3,0.4,0.3,1.2,0,1.6l-4.8,6.5c-0.3,0.4-0.3,1.2,0,1.6l4.8,6.5c0.3,0.4,0.3,1.2,0,1.6l-4.8,6.5c-0.3,0.4-0.3,1.2,0,1.6
			l4.8,6.5c0.3,0.4,0.3,1.2,0,1.6l-5.4,7.3"/>
	</g>
</g>
<path fill="#333333" d="M358.5,81H357c-2.8,0-5-2.2-5-5v-1.5c0-2.8,2.2-5,5-5h1.5c2.8,0,5,2.2,5,5V76C363.5,78.8,361.2,81,358.5,81z
	"/>
</svg>
